{"glyphs":{"0":{"ha":851,"x_min":65,"x_max":788,"o":"m 338 -19 q 586 64 488 -19 q 710 294 685 147 l 781 689 q 788 763 788 731 q 717 941 788 876 q 514 1006 646 1006 q 265 922 363 1006 q 142 692 167 838 l 72 299 q 65 222 65 254 q 135 44 65 107 q 338 -19 204 -19 m 344 40 q 184 90 239 40 q 129 232 129 140 q 135 294 129 265 l 206 689 q 305 877 225 808 q 508 946 385 946 q 667 895 613 946 q 722 753 722 844 q 717 692 722 721 l 647 299 q 546 109 625 178 q 344 40 467 40 "},"1":{"ha":539,"x_min":117,"x_max":472,"o":"m 254 0 l 283 0 q 297 3 293 0 q 303 15 301 6 l 471 967 q 469 982 472 978 q 457 986 467 986 l 432 986 q 415 983 421 986 q 406 979 408 981 l 129 835 q 117 821 117 829 l 119 813 l 129 788 q 140 778 133 778 q 150 781 142 778 l 397 908 l 240 19 q 242 4 239 8 q 254 0 244 0 "},"2":{"ha":801,"x_min":11,"x_max":750,"o":"m 26 0 l 603 0 q 614 3 611 0 q 619 17 617 7 l 624 40 q 610 60 628 60 l 88 60 q 101 135 96 110 q 154 253 114 206 q 250 333 194 301 q 389 397 306 365 q 596 490 529 454 q 706 594 663 526 q 750 775 750 661 q 686 943 750 881 q 507 1006 622 1006 q 294 952 379 1006 q 150 789 208 899 q 146 776 146 781 q 156 765 146 769 l 185 754 q 206 761 197 747 q 328 901 256 856 q 503 946 400 946 q 635 899 588 946 q 683 769 683 851 q 648 622 683 678 q 556 535 613 567 q 390 463 499 504 l 351 447 q 201 375 263 411 q 93 280 139 339 q 32 133 47 221 l 11 21 q 14 5 11 10 q 26 0 17 0 "},"3":{"ha":811,"x_min":47,"x_max":742,"o":"m 332 -19 q 518 23 439 -19 q 640 143 597 65 q 683 325 683 221 q 653 442 683 393 q 568 511 624 490 q 696 617 650 540 q 742 796 742 693 q 679 951 742 896 q 500 1006 617 1006 q 283 947 364 1006 q 147 769 203 889 l 144 757 q 156 743 144 747 l 181 735 l 192 732 q 203 740 199 732 q 317 897 250 849 q 494 946 385 946 q 631 905 585 946 q 676 788 676 864 q 651 661 676 718 q 576 570 625 604 q 463 536 528 536 l 267 536 q 253 533 257 536 q 249 521 250 531 l 244 497 q 257 478 240 478 l 463 478 q 579 435 539 478 q 619 321 619 392 q 544 117 619 193 q 333 40 468 40 q 167 90 218 40 q 107 243 115 139 q 94 261 106 261 q 88 260 90 261 l 58 251 q 47 238 47 247 l 47 232 q 123 43 58 106 q 332 -19 188 -19 "},"4":{"ha":819,"x_min":21,"x_max":729,"o":"m 478 0 l 507 0 q 519 3 515 0 q 525 17 522 7 l 572 288 l 706 288 q 719 290 715 288 q 725 303 724 293 l 728 326 q 726 342 729 338 q 714 346 724 346 l 582 346 l 694 979 q 694 997 697 992 q 681 1001 690 1001 l 646 1001 q 632 999 638 1001 q 621 989 626 996 l 38 349 q 28 325 29 339 l 25 306 q 40 288 21 288 l 511 288 l 464 18 q 478 0 458 0 m 521 346 l 108 346 l 621 910 l 521 346 "},"5":{"ha":793,"x_min":32,"x_max":757,"o":"m 319 -19 q 504 28 422 -19 q 633 160 586 75 q 679 354 679 246 q 618 525 679 467 q 411 583 557 583 l 201 583 l 293 926 l 733 926 q 744 929 740 926 q 750 942 749 932 l 756 967 q 754 981 757 976 q 742 986 751 986 l 274 986 q 251 981 257 986 q 240 957 244 975 l 129 549 q 146 524 122 524 l 399 524 q 565 481 517 524 q 614 347 614 438 q 577 191 614 261 q 474 81 540 121 q 325 40 408 40 q 92 215 119 40 q 79 231 90 231 q 71 229 74 231 l 40 219 q 32 208 32 217 l 32 201 q 121 36 53 92 q 319 -19 189 -19 "},"6":{"ha":842,"x_min":67,"x_max":789,"o":"m 342 -19 q 541 26 456 -19 q 673 156 626 72 q 719 351 719 240 q 654 513 719 460 q 451 565 589 565 q 297 549 363 565 q 172 511 232 533 l 200 664 q 304 875 225 804 q 513 946 383 946 q 661 906 608 946 q 731 782 714 865 q 740 765 733 765 q 747 767 744 765 l 779 775 q 789 786 789 776 l 789 793 q 704 952 771 899 q 515 1006 638 1006 q 262 919 358 1006 q 135 665 165 833 l 107 510 q 74 316 81 363 q 67 236 67 269 q 137 47 67 114 q 342 -19 207 -19 m 344 40 q 185 93 239 40 q 132 244 132 146 q 138 309 132 272 q 163 451 143 346 q 286 490 222 474 q 443 507 350 507 q 603 467 551 507 q 654 343 654 426 q 572 124 654 207 q 344 40 489 40 "},"7":{"ha":696,"x_min":129,"x_max":743,"o":"m 140 0 l 174 0 q 190 2 185 0 q 201 14 196 4 l 729 924 q 739 949 735 935 l 742 968 q 740 982 743 978 q 728 986 738 986 l 165 986 q 151 983 156 986 q 144 971 147 981 l 140 946 q 154 926 136 926 l 661 926 l 132 19 l 129 8 q 140 0 129 0 "},"8":{"ha":835,"x_min":42,"x_max":771,"o":"m 326 -19 q 602 58 501 -19 q 703 268 703 135 q 659 406 703 351 q 517 500 615 460 q 703 615 635 536 q 771 796 771 693 q 702 951 771 897 q 503 1006 633 1006 q 252 931 343 1006 q 161 725 161 856 q 201 597 161 649 q 324 511 242 546 q 117 388 192 474 q 42 194 42 303 q 326 -19 42 -19 m 450 526 q 281 606 336 554 q 225 738 225 657 q 299 891 225 833 q 500 949 374 949 q 654 907 601 949 q 707 785 707 865 q 636 620 707 690 q 450 526 565 550 m 335 38 q 165 79 222 38 q 107 204 107 121 q 187 380 107 304 q 393 479 267 456 q 580 395 522 444 q 638 263 638 346 q 554 98 638 158 q 335 38 471 38 "},"9":{"ha":842,"x_min":51,"x_max":774,"o":"m 326 -19 q 578 65 483 -19 q 706 318 674 150 l 722 410 q 766 662 758 611 q 774 750 774 713 q 701 939 774 872 q 494 1006 629 1006 q 296 961 381 1006 q 166 834 211 917 q 121 640 121 751 q 392 421 121 421 q 538 435 464 421 q 669 475 611 450 l 642 319 q 539 110 618 181 q 329 40 460 40 q 181 81 235 40 q 111 206 128 121 q 99 221 107 221 l 93 219 l 63 211 q 51 199 51 207 l 51 193 q 138 33 71 86 q 326 -19 206 -19 m 400 479 q 186 650 186 479 q 268 867 186 789 q 494 946 350 946 q 654 894 599 946 q 710 744 710 842 q 704 676 710 714 q 679 535 699 639 q 556 496 619 513 q 400 479 493 479 "}," ":{"ha":339,"x_min":0,"x_max":0,"o":""},"A":{"ha":867,"x_min":-50,"x_max":743,"o":"m -36 0 l -6 0 q 13 3 7 0 q 22 14 18 6 l 190 322 l 617 322 l 674 18 q 681 4 676 8 q 699 0 686 0 l 731 0 q 743 8 743 0 q 742 17 743 14 l 554 975 q 548 989 551 985 q 536 993 544 993 l 503 993 q 489 990 493 993 q 479 978 485 988 l -46 19 q -48 6 -50 11 q -36 0 -46 0 m 606 378 l 219 378 l 467 833 q 508 929 489 876 l 513 929 q 519 838 513 889 l 606 378 "},"Á":{"ha":867,"x_min":-50,"x_max":743,"o":"m -36 0 l -6 0 q 13 3 7 0 q 22 14 18 6 l 190 322 l 617 322 l 674 18 q 681 4 676 8 q 699 0 686 0 l 731 0 q 743 8 743 0 q 742 17 743 14 l 554 975 q 548 989 551 985 q 536 993 544 993 l 503 993 q 489 990 493 993 q 479 978 485 988 l -46 19 q -48 6 -50 11 q -36 0 -46 0 m 606 378 l 219 378 l 467 833 q 508 929 489 876 l 513 929 q 519 838 513 889 l 606 378 m 419 1076 l 426 1065 q 438 1060 432 1060 q 449 1063 444 1060 l 678 1204 q 685 1214 685 1208 q 681 1224 685 1219 l 669 1239 q 656 1247 663 1247 q 642 1243 650 1247 l 424 1096 q 417 1085 417 1092 q 419 1076 417 1082 "},"Ă":{"ha":867,"x_min":-50,"x_max":751,"o":"m -36 0 l -6 0 q 13 3 7 0 q 22 14 18 6 l 190 322 l 617 322 l 674 18 q 681 4 676 8 q 699 0 686 0 l 731 0 q 743 8 743 0 q 742 17 743 14 l 554 975 q 548 989 551 985 q 536 993 544 993 l 503 993 q 489 990 493 993 q 479 978 485 988 l -46 19 q -48 6 -50 11 q -36 0 -46 0 m 606 378 l 219 378 l 467 833 q 508 929 489 876 l 513 929 q 519 838 513 889 l 606 378 m 538 1063 q 749 1215 689 1063 q 750 1227 751 1224 q 743 1232 749 1231 l 719 1240 q 710 1241 714 1242 q 703 1235 707 1240 q 638 1139 676 1168 q 540 1110 599 1110 q 455 1141 486 1110 q 422 1231 424 1172 q 414 1242 421 1242 q 407 1240 410 1242 l 383 1235 q 378 1219 374 1231 q 538 1063 386 1063 "},"Â":{"ha":867,"x_min":-50,"x_max":743,"o":"m -36 0 l -6 0 q 13 3 7 0 q 22 14 18 6 l 190 322 l 617 322 l 674 18 q 681 4 676 8 q 699 0 686 0 l 731 0 q 743 8 743 0 q 742 17 743 14 l 554 975 q 548 989 551 985 q 536 993 544 993 l 503 993 q 489 990 493 993 q 479 978 485 988 l -46 19 q -48 6 -50 11 q -36 0 -46 0 m 606 378 l 219 378 l 467 833 q 508 929 489 876 l 513 929 q 519 838 513 889 l 606 378 m 344 1063 l 371 1063 q 385 1064 379 1063 q 399 1071 392 1065 l 560 1204 l 672 1074 q 681 1065 676 1067 q 696 1063 686 1063 l 722 1063 q 733 1068 733 1063 q 731 1075 733 1072 l 594 1235 q 584 1245 589 1243 q 569 1247 579 1247 l 556 1247 q 542 1244 547 1247 q 529 1236 536 1242 l 336 1078 q 331 1067 329 1072 q 344 1063 333 1063 "},"Ä":{"ha":867,"x_min":-50,"x_max":743,"o":"m -36 0 l -6 0 q 13 3 7 0 q 22 14 18 6 l 190 322 l 617 322 l 674 18 q 681 4 676 8 q 699 0 686 0 l 731 0 q 743 8 743 0 q 742 17 743 14 l 554 975 q 548 989 551 985 q 536 993 544 993 l 503 993 q 489 990 493 993 q 479 978 485 988 l -46 19 q -48 6 -50 11 q -36 0 -46 0 m 606 378 l 219 378 l 467 833 q 508 929 489 876 l 513 929 q 519 838 513 889 l 606 378 m 418 1113 l 426 1113 q 452 1118 444 1113 q 463 1142 460 1124 l 464 1151 q 460 1177 467 1169 q 436 1185 454 1185 l 428 1185 q 401 1178 408 1185 q 392 1154 393 1172 l 389 1144 q 393 1119 386 1126 q 418 1113 400 1113 m 663 1113 l 669 1113 q 695 1118 688 1113 q 706 1142 703 1124 l 707 1151 q 703 1177 710 1169 q 679 1185 697 1185 l 672 1185 q 645 1178 653 1185 q 635 1154 638 1172 l 633 1144 q 632 1133 632 1140 q 639 1117 632 1122 q 663 1113 646 1113 "},"À":{"ha":867,"x_min":-50,"x_max":743,"o":"m -36 0 l -6 0 q 13 3 7 0 q 22 14 18 6 l 190 322 l 617 322 l 674 18 q 681 4 676 8 q 699 0 686 0 l 731 0 q 743 8 743 0 q 742 17 743 14 l 554 975 q 548 989 551 985 q 536 993 544 993 l 503 993 q 489 990 493 993 q 479 978 485 988 l -46 19 q -48 6 -50 11 q -36 0 -46 0 m 606 378 l 219 378 l 467 833 q 508 929 489 876 l 513 929 q 519 838 513 889 l 606 378 m 440 1203 l 621 1063 q 633 1057 629 1057 q 643 1063 638 1057 l 653 1071 q 658 1082 658 1076 q 650 1093 658 1085 l 486 1239 q 478 1244 483 1240 q 469 1247 474 1247 q 456 1240 465 1247 l 439 1225 q 432 1213 432 1218 q 440 1203 432 1207 "},"Ā":{"ha":867,"x_min":-50,"x_max":743,"o":"m -36 0 l -6 0 q 13 3 7 0 q 22 14 18 6 l 190 322 l 617 322 l 674 18 q 681 4 676 8 q 699 0 686 0 l 731 0 q 743 8 743 0 q 742 17 743 14 l 554 975 q 548 989 551 985 q 536 993 544 993 l 503 993 q 489 990 493 993 q 479 978 485 988 l -46 19 q -48 6 -50 11 q -36 0 -46 0 m 606 378 l 219 378 l 467 833 q 508 929 489 876 l 513 929 q 519 838 513 889 l 606 378 m 390 1119 l 699 1119 q 717 1135 713 1119 l 718 1149 q 717 1162 719 1158 q 704 1165 714 1165 l 399 1165 q 379 1151 381 1165 l 378 1138 q 378 1124 375 1128 q 390 1119 381 1119 "},"Ą":{"ha":867,"x_min":-50,"x_max":743,"o":"m 588 -343 q 701 -299 647 -343 q 710 -287 710 -293 l 708 -282 l 700 -260 q 690 -256 697 -251 q 606 -296 649 -296 q 563 -249 563 -296 q 605 -148 563 -203 q 739 -1 647 -93 q 743 10 743 7 q 742 17 743 14 l 554 975 q 548 989 551 985 q 536 993 544 993 l 504 993 q 490 990 494 993 q 479 978 485 988 l -46 19 q -48 6 -50 11 q -36 0 -46 0 l -6 0 q 13 3 7 0 q 22 14 18 6 l 190 322 l 617 322 l 672 24 q 690 4 675 8 q 555 -140 603 -76 q 507 -260 507 -204 q 528 -323 507 -303 q 588 -343 550 -343 m 606 378 l 219 378 l 467 833 q 508 929 489 876 l 513 929 q 519 838 513 889 l 606 378 "},"Å":{"ha":867,"x_min":-56,"x_max":743,"o":"m -33 0 l -7 0 q 13 3 7 0 q 22 14 19 6 l 190 322 l 615 322 l 674 18 q 681 4 675 8 q 701 0 688 0 l 729 0 q 743 8 743 0 q 742 15 743 13 l 557 961 q 637 1013 607 972 q 667 1108 667 1054 q 636 1190 667 1160 q 556 1221 606 1221 q 445 1175 489 1219 q 401 1061 401 1131 q 420 998 401 1024 q 472 963 439 972 l -46 19 q -33 0 -56 0 m 519 988 q 463 1008 483 988 q 442 1063 442 1029 q 443 1082 442 1075 q 480 1155 450 1128 q 556 1182 510 1182 q 609 1161 589 1182 q 629 1104 629 1140 l 628 1089 q 592 1015 621 1043 q 519 988 563 988 m 606 378 l 219 378 l 476 851 q 510 929 488 874 l 513 929 q 518 850 513 900 l 606 378 "},"Ǻ":{"ha":867,"x_min":-56,"x_max":743,"o":"m 474 1207 l 704 1307 q 713 1313 713 1310 q 708 1321 713 1315 l 699 1336 q 689 1343 694 1343 q 675 1339 683 1343 l 458 1238 q 449 1226 449 1232 l 450 1221 l 457 1211 q 463 1206 460 1207 q 474 1207 465 1204 m -33 0 l -7 0 q 13 2 7 0 q 22 14 18 4 l 189 322 l 617 322 l 674 18 q 682 4 676 8 q 701 0 688 0 l 729 0 q 743 10 743 0 l 743 15 l 557 961 q 624 999 599 971 q 656 1068 650 1026 q 629 1149 660 1117 q 544 1182 599 1182 q 446 1144 485 1182 q 407 1050 407 1107 q 424 994 407 1017 q 474 963 442 971 l -46 19 q -33 0 -56 0 m 518 982 q 460 1001 481 982 q 440 1053 440 1019 q 469 1121 440 1094 q 543 1147 497 1147 q 601 1128 579 1147 q 622 1078 622 1108 q 592 1008 622 1033 q 518 982 561 982 m 606 378 l 219 378 l 475 846 q 510 929 486 869 l 513 929 q 518 850 513 900 l 606 378 "},"Ã":{"ha":867,"x_min":-50,"x_max":749,"o":"m -36 0 l -6 0 q 13 3 7 0 q 22 14 18 6 l 190 322 l 617 322 l 674 18 q 681 4 676 8 q 699 0 686 0 l 731 0 q 743 8 743 0 q 742 17 743 14 l 554 975 q 548 989 551 985 q 536 993 544 993 l 503 993 q 489 990 493 993 q 479 978 485 988 l -46 19 q -48 6 -50 11 q -36 0 -46 0 m 606 378 l 219 378 l 467 833 q 508 929 489 876 l 513 929 q 519 838 513 889 l 606 378 m 356 1075 l 375 1075 q 385 1086 385 1075 q 414 1151 392 1126 q 464 1175 436 1175 q 503 1164 488 1175 q 539 1129 518 1153 q 583 1089 563 1103 q 635 1075 603 1075 q 708 1108 679 1075 q 747 1200 736 1142 q 747 1214 749 1210 q 738 1218 744 1218 l 717 1218 q 709 1215 711 1218 q 707 1208 707 1213 q 679 1143 700 1168 q 629 1118 658 1118 q 594 1128 608 1118 q 557 1163 579 1139 q 512 1204 532 1190 q 460 1218 492 1218 q 385 1185 415 1218 q 346 1094 354 1151 q 356 1075 344 1075 "},"Æ":{"ha":1124,"x_min":-72,"x_max":1114,"o":"m -56 0 l -25 0 q -5 3 -10 0 q 7 14 0 6 l 186 260 l 540 260 l 497 19 q 514 0 493 0 l 943 0 q 956 3 953 0 q 961 15 958 7 l 965 40 q 965 56 968 51 q 951 60 961 60 l 568 60 l 639 469 l 950 469 q 969 485 968 469 l 974 510 q 960 529 978 529 l 650 529 l 719 926 l 1090 926 q 1102 930 1099 926 q 1107 942 1106 933 l 1111 967 q 1111 982 1114 978 q 1099 986 1108 986 l 679 986 q 664 983 669 986 q 653 971 658 981 l -67 18 q -69 6 -72 11 q -56 0 -65 0 m 549 314 l 231 314 l 653 886 l 549 314 "},"Ǽ":{"ha":1124,"x_min":-72,"x_max":1114,"o":"m -56 0 l -25 0 q -5 3 -10 0 q 7 14 0 6 l 186 260 l 540 260 l 497 19 q 514 0 493 0 l 943 0 q 956 3 953 0 q 961 15 958 7 l 965 40 q 965 56 968 51 q 951 60 961 60 l 568 60 l 639 469 l 950 469 q 969 485 968 469 l 974 510 q 960 529 978 529 l 650 529 l 719 926 l 1090 926 q 1102 930 1099 926 q 1107 942 1106 933 l 1111 967 q 1111 982 1114 978 q 1099 986 1108 986 l 679 986 q 664 983 669 986 q 653 971 658 981 l -67 18 q -69 6 -72 11 q -56 0 -65 0 m 549 314 l 231 314 l 653 886 l 549 314 m 785 1076 l 792 1065 q 803 1060 797 1060 q 814 1063 810 1060 l 1043 1204 q 1050 1214 1050 1208 q 1046 1224 1050 1219 l 1035 1239 q 1021 1247 1028 1247 q 1007 1243 1015 1247 l 789 1096 q 782 1085 782 1092 q 785 1076 782 1082 "},"B":{"ha":876,"x_min":50,"x_max":803,"o":"m 67 0 l 425 0 q 598 40 524 0 q 712 153 672 81 q 751 322 751 226 q 716 442 751 396 q 621 507 681 489 l 622 508 q 758 616 713 543 q 803 789 803 689 q 744 936 803 886 q 569 986 686 986 l 238 986 q 226 983 229 986 q 219 971 222 979 l 51 19 q 53 4 50 8 q 67 0 56 0 m 510 531 l 207 531 l 276 926 l 561 926 q 739 779 739 926 q 677 600 739 669 q 510 531 615 531 m 422 60 l 124 60 l 197 475 l 518 475 q 644 436 600 475 q 689 322 689 397 q 656 186 689 246 q 563 93 624 126 q 422 60 503 60 "},"C":{"ha":868,"x_min":69,"x_max":836,"o":"m 365 -19 q 599 41 511 -19 q 744 225 686 101 q 749 238 749 233 q 738 250 749 246 l 711 260 q 699 263 703 263 q 688 253 692 263 q 565 94 638 146 q 371 42 493 42 q 194 97 254 42 q 133 254 133 153 q 139 321 133 289 l 200 664 q 308 872 224 797 q 532 946 393 946 q 707 897 651 946 q 774 746 763 849 q 786 732 778 732 q 794 733 792 732 l 824 740 q 836 753 836 744 l 835 760 q 751 945 821 885 q 536 1006 682 1006 q 267 916 369 1006 q 136 665 165 826 l 76 325 q 69 243 69 289 q 145 49 69 118 q 365 -19 221 -19 "},"Ć":{"ha":868,"x_min":69,"x_max":836,"o":"m 365 -19 q 599 41 511 -19 q 744 225 686 101 q 749 238 749 233 q 738 250 749 246 l 711 260 q 699 263 703 263 q 688 253 692 263 q 565 94 638 146 q 371 42 493 42 q 194 97 254 42 q 133 254 133 153 q 139 321 133 289 l 200 664 q 308 872 224 797 q 532 946 393 946 q 707 897 651 946 q 774 746 763 849 q 786 732 778 732 q 794 733 792 732 l 824 740 q 836 753 836 744 l 835 760 q 751 945 821 885 q 536 1006 682 1006 q 267 916 369 1006 q 136 665 165 826 l 76 325 q 69 243 69 289 q 145 49 69 118 q 365 -19 221 -19 m 440 1076 l 447 1065 q 458 1060 453 1060 q 469 1063 465 1060 l 699 1204 q 706 1214 706 1208 q 701 1224 706 1219 l 690 1239 q 676 1247 683 1247 q 663 1243 671 1247 l 444 1096 q 438 1085 438 1092 q 440 1076 438 1082 "},"Č":{"ha":868,"x_min":69,"x_max":836,"o":"m 365 -19 q 599 41 511 -19 q 744 225 686 101 q 749 238 749 233 q 738 250 749 246 l 711 260 q 699 263 703 263 q 688 253 692 263 q 565 94 638 146 q 371 42 493 42 q 194 97 254 42 q 133 254 133 153 q 139 321 133 289 l 200 664 q 308 872 224 797 q 532 946 393 946 q 707 897 651 946 q 774 746 763 849 q 786 732 778 732 q 794 733 792 732 l 824 740 q 836 753 836 744 l 835 760 q 751 945 821 885 q 536 1006 682 1006 q 267 916 369 1006 q 136 665 165 826 l 76 325 q 69 243 69 289 q 145 49 69 118 q 365 -19 221 -19 m 550 1061 l 558 1061 q 570 1063 565 1061 q 582 1069 575 1064 q 592 1076 589 1074 l 782 1232 q 787 1242 789 1238 q 774 1247 785 1247 l 747 1247 q 733 1245 739 1247 q 721 1239 726 1243 l 560 1104 l 447 1238 q 438 1246 442 1244 q 424 1247 433 1247 l 397 1247 q 385 1242 385 1247 q 389 1235 385 1239 l 522 1078 q 535 1065 531 1068 q 550 1061 540 1061 "},"Ç":{"ha":868,"x_min":68,"x_max":836,"o":"m 314 -339 q 427 -306 383 -339 q 474 -208 471 -272 q 458 -140 478 -167 q 399 -110 438 -114 q 378 -108 392 -108 q 347 -111 367 -108 l 392 -19 q 608 47 525 -14 q 744 225 690 107 q 749 238 749 233 q 738 250 749 246 l 711 260 q 697 261 701 263 q 688 253 692 260 q 565 94 638 146 q 371 42 493 42 q 194 97 254 42 q 133 254 133 153 q 139 321 133 289 l 200 664 q 308 872 224 797 q 532 946 393 946 q 706 898 650 946 q 775 746 761 850 q 788 732 779 732 q 796 733 793 732 l 824 740 q 836 753 836 744 l 835 760 q 751 945 821 885 q 536 1006 682 1006 q 267 916 369 1006 q 136 665 165 826 l 76 325 q 68 242 68 282 q 141 53 68 122 q 350 -19 214 -17 l 294 -129 q 294 -142 292 -136 q 304 -147 297 -147 l 308 -147 q 358 -142 339 -142 q 405 -159 389 -143 q 421 -203 421 -175 q 390 -276 421 -253 q 310 -300 360 -300 q 263 -290 283 -300 q 224 -265 243 -281 q 213 -271 215 -261 l 211 -287 q 218 -304 207 -299 q 314 -339 257 -339 "},"Ĉ":{"ha":868,"x_min":69,"x_max":836,"o":"m 365 -19 q 599 41 511 -19 q 744 225 686 101 q 749 238 749 233 q 738 250 749 246 l 711 260 q 699 263 703 263 q 688 253 692 263 q 565 94 638 146 q 371 42 493 42 q 194 97 254 42 q 133 254 133 153 q 139 321 133 289 l 200 664 q 308 872 224 797 q 532 946 393 946 q 707 897 651 946 q 774 746 763 849 q 786 732 778 732 q 794 733 792 732 l 824 740 q 836 753 836 744 l 835 760 q 751 945 821 885 q 536 1006 682 1006 q 267 916 369 1006 q 136 665 165 826 l 76 325 q 69 243 69 289 q 145 49 69 118 q 365 -19 221 -19 m 365 1063 l 392 1063 q 406 1064 400 1063 q 419 1071 413 1065 l 581 1204 l 693 1074 q 702 1065 697 1067 q 717 1063 707 1063 l 743 1063 q 754 1068 754 1063 q 751 1075 754 1072 l 615 1235 q 605 1245 610 1243 q 590 1247 600 1247 l 576 1247 q 563 1244 568 1247 q 550 1236 557 1242 l 357 1078 q 352 1067 350 1072 q 365 1063 354 1063 "},"Ċ":{"ha":868,"x_min":69,"x_max":836,"o":"m 365 -19 q 599 41 511 -19 q 744 225 686 101 q 749 238 749 233 q 738 250 749 246 l 711 260 q 699 263 703 263 q 688 253 692 263 q 565 94 638 146 q 371 42 493 42 q 194 97 254 42 q 133 254 133 153 q 139 321 133 289 l 200 664 q 308 872 224 797 q 532 946 393 946 q 707 897 651 946 q 774 746 763 849 q 786 732 778 732 q 794 733 792 732 l 824 740 q 836 753 836 744 l 835 760 q 751 945 821 885 q 536 1006 682 1006 q 267 916 369 1006 q 136 665 165 826 l 76 325 q 69 243 69 289 q 145 49 69 118 q 365 -19 221 -19 m 560 1106 l 567 1106 q 592 1112 585 1106 q 604 1138 600 1118 l 606 1144 q 602 1171 608 1163 q 576 1179 596 1179 l 569 1179 q 544 1174 551 1179 q 533 1149 538 1168 l 532 1142 q 531 1129 531 1138 q 538 1111 531 1117 q 560 1106 544 1106 "},"D":{"ha":885,"x_min":50,"x_max":815,"o":"m 67 0 l 331 0 q 620 97 508 0 q 763 365 732 193 l 807 618 q 815 710 815 667 q 735 914 815 842 q 499 986 656 986 l 239 986 q 226 983 231 986 q 219 971 221 979 l 51 19 q 53 4 50 8 q 67 0 57 0 m 335 60 l 124 60 l 276 926 l 494 926 q 687 869 622 926 q 751 704 751 813 q 743 621 751 665 l 699 368 q 578 141 674 222 q 335 60 482 60 "},"Ð":{"ha":882,"x_min":21,"x_max":813,"o":"m 63 0 l 326 0 q 616 97 503 0 q 760 365 729 194 l 804 618 q 813 710 813 667 q 733 914 813 842 q 496 986 653 986 l 236 986 q 223 983 228 986 q 217 971 218 979 l 138 519 l 42 519 q 31 517 33 519 q 26 508 28 515 l 24 488 q 24 475 21 479 q 36 471 26 471 l 129 471 l 49 19 q 50 4 47 8 q 63 0 53 0 m 333 60 l 121 60 l 193 471 l 419 471 q 431 473 428 471 q 435 482 433 475 l 439 504 q 438 516 440 513 q 428 519 436 519 l 201 519 l 274 926 l 492 926 q 684 869 619 926 q 749 704 749 813 q 740 621 749 665 l 696 368 q 575 141 671 222 q 333 60 479 60 "},"Ď":{"ha":885,"x_min":50,"x_max":815,"o":"m 67 0 l 331 0 q 620 97 508 0 q 763 365 732 193 l 807 618 q 815 710 815 667 q 735 914 815 842 q 499 986 656 986 l 239 986 q 226 983 231 986 q 219 971 221 979 l 51 19 q 53 4 50 8 q 67 0 57 0 m 335 60 l 124 60 l 276 926 l 494 926 q 687 869 622 926 q 751 704 751 813 q 743 621 751 665 l 699 368 q 578 141 674 222 q 335 60 482 60 m 522 1061 l 531 1061 q 542 1063 538 1061 q 554 1069 547 1064 q 564 1076 561 1074 l 754 1232 q 759 1242 761 1238 q 746 1247 757 1247 l 719 1247 q 705 1245 711 1247 q 693 1239 699 1243 l 532 1104 l 419 1238 q 410 1246 414 1244 q 396 1247 406 1247 l 369 1247 q 357 1242 357 1247 q 361 1235 357 1239 l 494 1078 q 508 1065 503 1068 q 522 1061 513 1061 "},"Đ":{"ha":882,"x_min":21,"x_max":813,"o":"m 63 0 l 326 0 q 616 97 503 0 q 760 365 729 194 l 804 618 q 813 710 813 667 q 733 914 813 842 q 496 986 653 986 l 236 986 q 223 983 228 986 q 217 971 218 979 l 138 519 l 42 519 q 31 517 33 519 q 26 508 28 515 l 24 488 q 24 475 21 479 q 36 471 26 471 l 129 471 l 49 19 q 50 4 47 8 q 63 0 53 0 m 333 60 l 121 60 l 193 471 l 419 471 q 431 473 428 471 q 435 482 433 475 l 439 504 q 438 516 440 513 q 428 519 436 519 l 201 519 l 274 926 l 492 926 q 684 869 619 926 q 749 704 749 813 q 740 621 749 665 l 696 368 q 575 141 671 222 q 333 60 479 60 "},"E":{"ha":779,"x_min":50,"x_max":769,"o":"m 65 0 l 600 0 q 612 3 608 0 q 618 15 615 7 l 622 42 q 621 56 624 51 q 607 60 618 60 l 124 60 l 196 469 l 610 469 q 622 473 618 469 q 628 486 625 476 l 632 513 q 618 531 636 531 l 207 531 l 276 926 l 746 926 q 758 929 754 926 q 764 942 763 932 l 768 967 q 767 982 769 978 q 754 986 764 986 l 240 986 q 226 983 231 986 q 219 969 221 979 l 51 18 q 53 4 50 8 q 65 0 56 0 "},"É":{"ha":779,"x_min":50,"x_max":769,"o":"m 65 0 l 600 0 q 612 3 608 0 q 618 15 615 7 l 622 42 q 621 56 624 51 q 607 60 618 60 l 124 60 l 196 469 l 610 469 q 622 473 618 469 q 628 486 625 476 l 632 513 q 618 531 636 531 l 207 531 l 276 926 l 746 926 q 758 929 754 926 q 764 942 763 932 l 768 967 q 767 982 769 978 q 754 986 764 986 l 240 986 q 226 983 231 986 q 219 969 221 979 l 51 18 q 53 4 50 8 q 65 0 56 0 m 397 1076 l 404 1065 q 415 1060 410 1060 q 426 1063 422 1060 l 656 1204 q 663 1214 663 1208 q 658 1224 663 1219 l 647 1239 q 633 1247 640 1247 q 619 1243 628 1247 l 401 1096 q 394 1085 394 1092 q 397 1076 394 1082 "},"Ĕ":{"ha":779,"x_min":50,"x_max":769,"o":"m 65 0 l 600 0 q 612 3 608 0 q 618 15 615 7 l 622 42 q 621 56 624 51 q 607 60 618 60 l 124 60 l 196 469 l 610 469 q 622 473 618 469 q 628 486 625 476 l 632 513 q 618 531 636 531 l 207 531 l 276 926 l 746 926 q 758 929 754 926 q 764 942 763 932 l 768 967 q 767 982 769 978 q 754 986 764 986 l 240 986 q 226 983 231 986 q 219 969 221 979 l 51 18 q 53 4 50 8 q 65 0 56 0 m 517 1063 q 728 1215 668 1063 q 729 1227 731 1224 q 722 1232 728 1231 l 699 1240 q 690 1241 693 1242 q 682 1235 686 1240 q 617 1139 656 1168 q 519 1110 578 1110 q 434 1141 465 1110 q 401 1231 403 1172 q 393 1242 400 1242 q 386 1240 389 1242 l 363 1235 q 357 1219 353 1231 q 517 1063 365 1063 "},"Ě":{"ha":779,"x_min":50,"x_max":769,"o":"m 65 0 l 600 0 q 612 3 608 0 q 618 15 615 7 l 622 42 q 621 56 624 51 q 607 60 618 60 l 124 60 l 196 469 l 610 469 q 622 473 618 469 q 628 486 625 476 l 632 513 q 618 531 636 531 l 207 531 l 276 926 l 746 926 q 758 929 754 926 q 764 942 763 932 l 768 967 q 767 982 769 978 q 754 986 764 986 l 240 986 q 226 983 231 986 q 219 969 221 979 l 51 18 q 53 4 50 8 q 65 0 56 0 m 508 1061 l 517 1061 q 528 1063 524 1061 q 540 1069 533 1064 q 550 1076 547 1074 l 740 1232 q 745 1242 747 1238 q 732 1247 743 1247 l 706 1247 q 691 1245 697 1247 q 679 1239 685 1243 l 518 1104 l 406 1238 q 396 1246 400 1244 q 382 1247 392 1247 l 356 1247 q 343 1242 343 1247 q 347 1235 343 1239 l 481 1078 q 494 1065 489 1068 q 508 1061 499 1061 "},"Ê":{"ha":779,"x_min":50,"x_max":769,"o":"m 65 0 l 600 0 q 612 3 608 0 q 618 15 615 7 l 622 42 q 621 56 624 51 q 607 60 618 60 l 124 60 l 196 469 l 610 469 q 622 473 618 469 q 628 486 625 476 l 632 513 q 618 531 636 531 l 207 531 l 276 926 l 746 926 q 758 929 754 926 q 764 942 763 932 l 768 967 q 767 982 769 978 q 754 986 764 986 l 240 986 q 226 983 231 986 q 219 969 221 979 l 51 18 q 53 4 50 8 q 65 0 56 0 m 324 1063 l 350 1063 q 365 1064 358 1063 q 378 1071 371 1065 l 539 1204 l 651 1074 q 660 1065 656 1067 q 675 1063 665 1063 l 701 1063 q 713 1068 713 1063 q 710 1075 713 1072 l 574 1235 q 563 1245 568 1243 q 549 1247 558 1247 l 535 1247 q 521 1244 526 1247 q 508 1236 515 1242 l 315 1078 q 310 1067 308 1072 q 324 1063 313 1063 "},"Ë":{"ha":779,"x_min":50,"x_max":769,"o":"m 65 0 l 600 0 q 612 3 608 0 q 618 15 615 7 l 622 42 q 621 56 624 51 q 607 60 618 60 l 124 60 l 196 469 l 610 469 q 622 473 618 469 q 628 486 625 476 l 632 513 q 618 531 636 531 l 207 531 l 276 926 l 746 926 q 758 929 754 926 q 764 942 763 932 l 768 967 q 767 982 769 978 q 754 986 764 986 l 240 986 q 226 983 231 986 q 219 969 221 979 l 51 18 q 53 4 50 8 q 65 0 56 0 m 397 1113 l 406 1113 q 431 1118 424 1113 q 442 1142 439 1124 l 443 1151 q 440 1177 446 1169 q 415 1185 433 1185 l 407 1185 q 380 1178 388 1185 q 371 1154 372 1172 l 368 1144 q 372 1119 365 1126 q 397 1113 379 1113 m 642 1113 l 649 1113 q 674 1118 667 1113 q 685 1142 682 1124 l 686 1151 q 683 1177 689 1169 q 658 1185 676 1185 l 651 1185 q 624 1178 632 1185 q 614 1154 617 1172 l 613 1144 q 611 1133 611 1140 q 618 1117 611 1122 q 642 1113 625 1113 "},"Ė":{"ha":779,"x_min":50,"x_max":769,"o":"m 65 0 l 600 0 q 612 3 608 0 q 618 15 615 7 l 622 42 q 621 56 624 51 q 607 60 618 60 l 124 60 l 196 469 l 610 469 q 622 473 618 469 q 628 486 625 476 l 632 513 q 618 531 636 531 l 207 531 l 276 926 l 746 926 q 758 929 754 926 q 764 942 763 932 l 768 967 q 767 982 769 978 q 754 986 764 986 l 240 986 q 226 983 231 986 q 219 969 221 979 l 51 18 q 53 4 50 8 q 65 0 56 0 m 518 1106 l 525 1106 q 551 1112 543 1106 q 563 1138 558 1118 l 564 1144 q 560 1171 567 1163 q 535 1179 554 1179 l 528 1179 q 503 1174 510 1179 q 492 1149 496 1168 l 490 1142 q 489 1129 489 1138 q 496 1111 489 1117 q 518 1106 503 1106 "},"È":{"ha":779,"x_min":50,"x_max":769,"o":"m 65 0 l 600 0 q 612 3 608 0 q 618 15 615 7 l 622 42 q 621 56 624 51 q 607 60 618 60 l 124 60 l 196 469 l 610 469 q 622 473 618 469 q 628 486 625 476 l 632 513 q 618 531 636 531 l 207 531 l 276 926 l 746 926 q 758 929 754 926 q 764 942 763 932 l 768 967 q 767 982 769 978 q 754 986 764 986 l 240 986 q 226 983 231 986 q 219 969 221 979 l 51 18 q 53 4 50 8 q 65 0 56 0 m 418 1203 l 599 1063 q 611 1057 607 1057 q 621 1063 615 1057 l 631 1071 q 636 1082 636 1076 q 628 1093 636 1085 l 464 1239 q 456 1244 461 1240 q 447 1247 451 1247 q 433 1240 443 1247 l 417 1225 q 410 1213 410 1218 q 418 1203 410 1207 "},"Ē":{"ha":779,"x_min":50,"x_max":769,"o":"m 65 0 l 600 0 q 612 3 608 0 q 618 15 615 7 l 622 42 q 621 56 624 51 q 607 60 618 60 l 124 60 l 196 469 l 610 469 q 622 473 618 469 q 628 486 625 476 l 632 513 q 618 531 636 531 l 207 531 l 276 926 l 746 926 q 758 929 754 926 q 764 942 763 932 l 768 967 q 767 982 769 978 q 754 986 764 986 l 240 986 q 226 983 231 986 q 219 969 221 979 l 51 18 q 53 4 50 8 q 65 0 56 0 m 369 1119 l 678 1119 q 696 1135 692 1119 l 697 1149 q 696 1162 699 1158 q 683 1165 693 1165 l 378 1165 q 358 1151 360 1165 l 357 1138 q 357 1124 354 1128 q 369 1119 360 1119 "},"Ę":{"ha":779,"x_min":50,"x_max":769,"o":"m 458 -343 q 572 -300 525 -343 q 581 -287 581 -294 l 579 -282 l 574 -261 q 563 -256 571 -253 q 478 -296 522 -296 q 435 -251 435 -296 q 490 -133 435 -206 q 611 -1 546 -60 q 619 15 615 3 l 624 42 q 622 56 625 51 q 607 60 618 60 l 124 60 l 196 469 l 610 469 q 628 486 626 469 l 632 511 q 619 531 636 531 l 207 531 l 276 926 l 746 926 q 758 930 754 926 q 764 942 761 933 l 768 967 q 767 982 769 978 q 756 986 764 986 l 240 986 q 226 983 231 986 q 219 971 222 979 l 51 19 q 65 0 50 0 l 560 0 q 432 -137 485 -67 q 379 -262 379 -207 q 401 -323 379 -303 q 458 -343 422 -343 "},"F":{"ha":750,"x_min":50,"x_max":765,"o":"m 65 0 l 100 0 q 112 3 110 0 q 117 15 114 6 l 194 456 l 594 456 q 608 458 604 456 q 614 471 613 461 l 618 497 q 617 511 619 507 q 604 515 614 515 l 204 515 l 276 926 l 742 926 q 753 930 750 926 q 758 942 756 933 l 764 968 q 762 982 765 978 q 749 986 758 986 l 240 986 q 226 983 231 986 q 219 971 221 981 l 51 19 q 53 4 50 8 q 65 0 56 0 "},"G":{"ha":892,"x_min":68,"x_max":836,"o":"m 368 -19 q 635 69 531 -19 q 767 313 739 158 l 794 478 q 781 499 801 499 l 467 499 q 452 495 457 499 q 446 482 447 492 l 442 458 q 456 439 440 439 l 726 439 l 704 315 q 596 113 682 186 q 374 40 510 40 q 194 96 256 40 q 133 253 133 151 q 140 324 133 282 l 200 661 q 308 871 224 796 q 533 946 393 946 q 710 897 654 946 q 775 746 767 849 q 789 731 779 731 l 794 732 l 824 740 q 836 754 836 744 l 833 767 q 750 947 821 888 q 536 1006 679 1006 q 267 918 368 1006 q 136 665 165 831 l 76 326 q 68 243 68 283 q 145 50 68 119 q 368 -19 222 -19 "},"Ğ":{"ha":892,"x_min":68,"x_max":836,"o":"m 368 -19 q 635 69 531 -19 q 767 313 739 158 l 794 478 q 781 499 801 499 l 467 499 q 452 495 457 499 q 446 482 447 492 l 442 458 q 456 439 440 439 l 726 439 l 704 315 q 596 113 682 186 q 374 40 510 40 q 194 96 256 40 q 133 253 133 151 q 140 324 133 282 l 200 661 q 308 871 224 796 q 533 946 393 946 q 710 897 654 946 q 775 746 767 849 q 789 731 779 731 l 794 732 l 824 740 q 836 754 836 744 l 833 767 q 750 947 821 888 q 536 1006 679 1006 q 267 918 368 1006 q 136 665 165 831 l 76 326 q 68 243 68 283 q 145 50 68 119 q 368 -19 222 -19 m 558 1076 q 769 1229 710 1076 q 771 1241 772 1238 q 764 1246 769 1244 l 740 1254 q 731 1255 735 1256 q 724 1249 728 1254 q 658 1153 697 1182 q 561 1124 619 1124 q 476 1155 507 1124 q 443 1244 444 1186 q 435 1256 442 1256 q 428 1254 431 1256 l 404 1249 q 399 1233 394 1244 q 558 1076 407 1076 "},"Ĝ":{"ha":892,"x_min":68,"x_max":836,"o":"m 368 -19 q 635 69 531 -19 q 767 313 739 158 l 794 478 q 781 499 801 499 l 467 499 q 452 495 457 499 q 446 482 447 492 l 442 458 q 456 439 440 439 l 726 439 l 704 315 q 596 113 682 186 q 374 40 510 40 q 194 96 256 40 q 133 253 133 151 q 140 324 133 282 l 200 661 q 308 871 224 796 q 533 946 393 946 q 710 897 654 946 q 775 746 767 849 q 789 731 779 731 l 794 732 l 824 740 q 836 754 836 744 l 833 767 q 750 947 821 888 q 536 1006 679 1006 q 267 918 368 1006 q 136 665 165 831 l 76 326 q 68 243 68 283 q 145 50 68 119 q 368 -19 222 -19 m 365 1076 l 392 1076 q 406 1078 400 1076 q 419 1085 413 1079 l 581 1218 l 693 1088 q 702 1078 697 1081 q 717 1076 707 1076 l 743 1076 q 754 1082 754 1076 q 751 1089 754 1086 l 615 1249 q 605 1259 610 1257 q 590 1261 600 1261 l 576 1261 q 563 1258 568 1261 q 550 1250 557 1256 l 357 1092 q 352 1081 350 1086 q 365 1076 354 1076 "},"Ģ":{"ha":892,"x_min":68,"x_max":836,"o":"m 368 -19 q 635 69 531 -19 q 767 313 739 158 l 794 478 q 781 499 801 499 l 467 499 q 452 495 457 499 q 446 482 447 492 l 442 458 q 456 439 440 439 l 726 439 l 704 315 q 596 113 682 186 q 374 40 510 40 q 194 96 256 40 q 133 253 133 151 q 140 324 133 282 l 200 661 q 308 871 224 796 q 533 946 393 946 q 710 897 654 946 q 775 746 767 849 q 789 731 779 731 l 794 732 l 824 740 q 836 754 836 744 l 833 767 q 750 947 821 888 q 536 1006 679 1006 q 267 918 368 1006 q 136 665 165 831 l 76 326 q 68 243 68 283 q 145 50 68 119 q 368 -19 222 -19 m 240 -342 l 258 -342 q 272 -339 268 -342 q 281 -326 276 -336 l 382 -128 q 383 -114 386 -119 q 368 -108 379 -108 l 342 -108 q 327 -111 332 -108 q 321 -124 322 -114 l 229 -326 q 240 -342 225 -342 "},"Ġ":{"ha":892,"x_min":68,"x_max":836,"o":"m 368 -19 q 635 69 531 -19 q 767 313 739 158 l 794 478 q 781 499 801 499 l 467 499 q 452 495 457 499 q 446 482 447 492 l 442 458 q 456 439 440 439 l 726 439 l 704 315 q 596 113 682 186 q 374 40 510 40 q 194 96 256 40 q 133 253 133 151 q 140 324 133 282 l 200 661 q 308 871 224 796 q 533 946 393 946 q 710 897 654 946 q 775 746 767 849 q 789 731 779 731 l 794 732 l 824 740 q 836 754 836 744 l 833 767 q 750 947 821 888 q 536 1006 679 1006 q 267 918 368 1006 q 136 665 165 831 l 76 326 q 68 243 68 283 q 145 50 68 119 q 368 -19 222 -19 m 560 1119 l 567 1119 q 592 1126 585 1119 q 604 1151 600 1132 l 606 1158 q 602 1185 608 1176 q 576 1193 596 1193 l 569 1193 q 544 1188 551 1193 q 533 1163 538 1182 l 532 1156 q 531 1143 531 1151 q 538 1125 531 1131 q 560 1119 544 1119 "},"H":{"ha":931,"x_min":50,"x_max":881,"o":"m 67 0 l 99 0 q 110 3 107 0 q 115 15 114 7 l 196 469 l 728 469 l 647 18 q 649 4 646 8 q 663 0 651 0 l 693 0 q 705 4 701 0 q 711 18 708 8 l 879 968 q 878 982 881 978 q 865 986 875 986 l 835 986 q 821 983 825 986 q 815 969 817 979 l 738 531 l 207 531 l 283 968 q 283 982 286 978 q 269 986 279 986 l 239 986 q 226 983 231 986 q 219 969 221 979 l 51 19 q 53 3 50 7 q 67 0 57 0 "},"Ħ":{"ha":933,"x_min":51,"x_max":956,"o":"m 65 0 l 99 0 q 111 3 107 0 q 117 15 115 6 l 197 469 l 728 469 l 649 19 q 649 4 646 8 q 661 0 651 0 l 693 0 q 706 3 701 0 q 713 15 711 7 l 844 768 l 938 768 q 947 770 944 768 q 950 781 949 772 l 953 796 q 943 811 956 811 l 853 811 l 881 967 q 879 982 882 978 q 867 986 876 986 l 836 986 q 823 983 828 986 q 817 971 818 979 l 789 811 l 258 811 l 285 968 q 283 983 286 979 q 271 986 281 986 l 240 986 q 227 983 232 986 q 221 971 222 979 l 193 811 l 101 811 q 92 809 94 811 q 89 799 90 807 l 86 785 q 87 772 85 775 q 97 768 89 768 l 185 768 l 53 19 q 54 4 51 8 q 65 0 57 0 m 739 531 l 207 531 l 250 768 l 781 768 l 739 531 "},"Ĥ":{"ha":931,"x_min":50,"x_max":881,"o":"m 67 0 l 99 0 q 110 3 107 0 q 115 15 114 7 l 196 469 l 728 469 l 647 18 q 649 4 646 8 q 663 0 651 0 l 693 0 q 705 4 701 0 q 711 18 708 8 l 879 968 q 878 982 881 978 q 865 986 875 986 l 835 986 q 821 983 825 986 q 815 969 817 979 l 738 531 l 207 531 l 283 968 q 283 982 286 978 q 269 986 279 986 l 239 986 q 226 983 231 986 q 219 969 221 979 l 51 19 q 53 3 50 7 q 67 0 57 0 m 378 1063 l 404 1063 q 419 1064 413 1063 q 432 1071 425 1065 l 593 1204 l 706 1074 q 715 1065 710 1067 q 729 1063 719 1063 l 756 1063 q 767 1068 767 1063 q 764 1075 767 1072 l 628 1235 q 617 1245 622 1243 q 603 1247 613 1247 l 589 1247 q 575 1244 581 1247 q 563 1236 569 1242 l 369 1078 q 365 1067 363 1072 q 378 1063 367 1063 "},"I":{"ha":336,"x_min":50,"x_max":286,"o":"m 65 0 l 97 0 q 115 17 114 0 l 283 967 q 283 982 286 978 q 269 986 279 986 l 242 986 q 226 983 232 986 q 219 971 221 981 l 53 21 q 53 5 50 10 q 65 0 56 0 "},"Ĳ":{"ha":1068,"x_min":50,"x_max":1024,"o":"m 65 0 l 97 0 q 115 17 114 0 l 283 967 q 283 982 286 978 q 269 986 279 986 l 242 986 q 226 983 232 986 q 219 971 221 981 l 53 21 q 53 5 50 10 q 65 0 56 0 m 553 -19 q 788 65 697 -19 q 906 300 878 149 l 1022 968 q 1021 982 1024 978 q 1010 986 1018 986 l 976 986 q 964 983 968 986 q 958 971 960 979 l 842 304 q 747 113 819 183 q 560 42 674 42 q 410 99 456 42 q 365 271 364 156 q 360 284 363 281 q 353 288 358 288 l 347 286 l 314 279 q 303 265 303 275 l 304 258 q 365 51 306 122 q 553 -19 425 -19 "},"Í":{"ha":336,"x_min":50,"x_max":419,"o":"m 65 0 l 97 0 q 115 17 114 0 l 283 967 q 283 982 286 978 q 269 986 279 986 l 242 986 q 226 983 232 986 q 219 971 221 981 l 53 21 q 53 5 50 10 q 65 0 56 0 m 154 1076 l 161 1065 q 172 1060 167 1060 q 183 1063 179 1060 l 413 1204 q 419 1214 419 1208 q 415 1224 419 1219 l 404 1239 q 390 1247 397 1247 q 376 1243 385 1247 l 158 1096 q 151 1085 151 1092 q 154 1076 151 1082 "},"Ĭ":{"ha":336,"x_min":50,"x_max":488,"o":"m 65 0 l 97 0 q 115 17 114 0 l 283 967 q 283 982 286 978 q 269 986 279 986 l 242 986 q 226 983 232 986 q 219 971 221 981 l 53 21 q 53 5 50 10 q 65 0 56 0 m 274 1063 q 485 1215 425 1063 q 486 1227 488 1224 q 479 1232 485 1231 l 456 1240 q 447 1241 450 1242 q 439 1235 443 1240 q 374 1139 413 1168 q 276 1110 335 1110 q 191 1141 222 1110 q 158 1231 160 1172 q 150 1242 157 1242 q 143 1240 146 1242 l 119 1235 q 114 1219 110 1231 q 274 1063 122 1063 "},"Î":{"ha":336,"x_min":50,"x_max":468,"o":"m 65 0 l 97 0 q 115 17 114 0 l 283 967 q 283 982 286 978 q 269 986 279 986 l 242 986 q 226 983 232 986 q 219 971 221 981 l 53 21 q 53 5 50 10 q 65 0 56 0 m 79 1063 l 106 1063 q 120 1064 114 1063 q 133 1071 126 1065 l 294 1204 l 407 1074 q 416 1065 411 1067 q 431 1063 421 1063 l 457 1063 q 468 1068 468 1063 q 465 1075 468 1072 l 329 1235 q 319 1245 324 1243 q 304 1247 314 1247 l 290 1247 q 276 1244 282 1247 q 264 1236 271 1242 l 71 1078 q 66 1067 64 1072 q 79 1063 68 1063 "},"Ï":{"ha":336,"x_min":50,"x_max":444,"o":"m 65 0 l 97 0 q 115 17 114 0 l 283 967 q 283 982 286 978 q 269 986 279 986 l 242 986 q 226 983 232 986 q 219 971 221 981 l 53 21 q 53 5 50 10 q 65 0 56 0 m 153 1113 l 161 1113 q 187 1118 179 1113 q 197 1142 194 1124 l 199 1151 q 195 1177 201 1169 q 171 1185 189 1185 l 163 1185 q 135 1178 143 1185 q 126 1154 128 1172 l 124 1144 q 128 1119 121 1126 q 153 1113 135 1113 m 397 1113 l 404 1113 q 430 1118 422 1113 q 440 1142 438 1124 l 442 1151 q 438 1177 444 1169 q 414 1185 432 1185 l 407 1185 q 380 1178 388 1185 q 369 1154 372 1172 l 368 1144 q 367 1133 367 1140 q 374 1117 367 1122 q 397 1113 381 1113 "},"İ":{"ha":336,"x_min":50,"x_max":324,"o":"m 65 0 l 97 0 q 115 17 114 0 l 283 967 q 283 982 286 978 q 269 986 279 986 l 242 986 q 226 983 232 986 q 219 971 221 981 l 53 21 q 53 5 50 10 q 65 0 56 0 m 275 1106 l 282 1106 q 308 1112 300 1106 q 319 1138 315 1118 l 321 1144 q 317 1171 324 1163 q 292 1179 311 1179 l 285 1179 q 260 1174 267 1179 q 249 1149 253 1168 l 247 1142 q 246 1129 246 1138 q 253 1111 246 1117 q 275 1106 260 1106 "},"Ì":{"ha":336,"x_min":50,"x_max":393,"o":"m 65 0 l 97 0 q 115 17 114 0 l 283 967 q 283 982 286 978 q 269 986 279 986 l 242 986 q 226 983 232 986 q 219 971 221 981 l 53 21 q 53 5 50 10 q 65 0 56 0 m 175 1203 l 356 1063 q 368 1057 364 1057 q 378 1063 372 1057 l 388 1071 q 393 1082 393 1076 q 385 1093 393 1085 l 221 1239 q 213 1244 218 1240 q 204 1247 208 1247 q 190 1240 200 1247 l 174 1225 q 167 1213 167 1218 q 175 1203 167 1207 "},"Ī":{"ha":336,"x_min":50,"x_max":454,"o":"m 65 0 l 97 0 q 115 17 114 0 l 283 967 q 283 982 286 978 q 269 986 279 986 l 242 986 q 226 983 232 986 q 219 971 221 981 l 53 21 q 53 5 50 10 q 65 0 56 0 m 125 1119 l 433 1119 q 451 1135 447 1119 l 453 1149 q 451 1162 454 1158 q 439 1165 449 1165 l 133 1165 q 114 1151 115 1165 l 113 1138 q 113 1124 110 1128 q 125 1119 115 1119 "},"Į":{"ha":336,"x_min":-75,"x_max":286,"o":"m 4 -343 q 121 -297 69 -343 q 126 -287 126 -292 q 125 -282 126 -283 l 118 -261 q 108 -256 114 -253 q 22 -296 65 -296 q -21 -257 -19 -296 q 111 -1 -29 -153 q 117 18 114 1 l 283 967 q 283 982 286 978 q 269 986 279 986 l 240 986 q 226 983 231 986 q 219 971 221 981 l 56 32 l 53 13 q 65 1 53 3 q -75 -260 -75 -139 q -54 -322 -75 -301 q 4 -343 -33 -343 "},"Ĩ":{"ha":336,"x_min":50,"x_max":483,"o":"m 65 0 l 97 0 q 115 17 114 0 l 283 967 q 283 982 286 978 q 269 986 279 986 l 242 986 q 226 983 232 986 q 219 971 221 981 l 53 21 q 53 5 50 10 q 65 0 56 0 m 90 1075 l 110 1075 q 119 1086 119 1075 q 149 1151 126 1126 q 199 1175 171 1175 q 238 1164 222 1175 q 274 1129 253 1153 q 317 1089 297 1103 q 369 1075 338 1075 q 442 1108 414 1075 q 482 1200 471 1142 q 481 1214 483 1210 q 472 1218 479 1218 l 451 1218 q 444 1215 446 1218 q 442 1208 442 1213 q 414 1143 435 1168 q 364 1118 393 1118 q 328 1128 343 1118 q 292 1163 314 1139 q 247 1204 267 1190 q 194 1218 226 1218 q 119 1185 150 1218 q 81 1094 89 1151 q 90 1075 79 1075 "},"J":{"ha":775,"x_min":11,"x_max":732,"o":"m 261 -19 q 496 65 406 -19 q 614 300 586 149 l 731 968 q 729 982 732 978 q 718 986 726 986 l 685 986 q 672 983 676 986 q 667 971 668 979 l 550 304 q 455 113 528 183 q 268 42 382 42 q 118 99 164 42 q 74 271 72 156 q 69 284 71 281 q 61 288 67 288 l 56 286 l 22 279 q 11 265 11 275 l 13 258 q 74 51 14 122 q 261 -19 133 -19 "},"Ĵ":{"ha":775,"x_min":11,"x_max":915,"o":"m 261 -19 q 496 65 406 -19 q 614 300 586 149 l 731 968 q 729 982 732 978 q 718 986 726 986 l 685 986 q 672 983 676 986 q 667 971 668 979 l 550 304 q 455 113 528 183 q 268 42 382 42 q 118 99 164 42 q 74 271 72 156 q 69 284 71 281 q 61 288 67 288 l 56 286 l 22 279 q 11 265 11 275 l 13 258 q 74 51 14 122 q 261 -19 133 -19 m 526 1063 l 553 1063 q 567 1064 561 1063 q 581 1071 574 1065 l 742 1204 l 854 1074 q 863 1065 858 1067 q 878 1063 868 1063 l 904 1063 q 915 1068 915 1063 q 913 1075 915 1072 l 776 1235 q 766 1245 771 1243 q 751 1247 761 1247 l 738 1247 q 724 1244 729 1247 q 711 1236 718 1242 l 518 1078 q 513 1067 511 1072 q 526 1063 515 1063 "},"K":{"ha":821,"x_min":50,"x_max":847,"o":"m 67 0 l 99 0 q 115 15 113 0 l 196 471 l 371 471 q 477 442 444 471 q 529 340 510 413 l 618 17 q 624 3 621 7 q 640 0 628 0 l 675 0 q 688 8 688 0 q 686 17 688 14 l 588 363 q 540 466 568 429 q 460 515 513 503 l 843 967 q 846 981 847 975 q 833 986 844 986 l 799 986 q 779 984 785 986 q 767 972 774 982 l 399 529 l 367 529 l 206 529 l 283 968 q 269 986 288 986 l 239 986 q 226 983 231 986 q 219 971 221 979 l 51 19 q 53 4 50 8 q 67 0 57 0 "},"Ķ":{"ha":821,"x_min":50,"x_max":847,"o":"m 67 0 l 99 0 q 115 15 113 0 l 196 471 l 371 471 q 477 442 444 471 q 529 340 510 413 l 618 17 q 624 3 621 7 q 640 0 628 0 l 675 0 q 688 8 688 0 q 686 17 688 14 l 588 363 q 540 466 568 429 q 460 515 513 503 l 843 967 q 846 981 847 975 q 833 986 844 986 l 799 986 q 779 984 785 986 q 767 972 774 982 l 399 529 l 367 529 l 206 529 l 283 968 q 269 986 288 986 l 239 986 q 226 983 231 986 q 219 971 221 979 l 51 19 q 53 4 50 8 q 67 0 57 0 m 236 -342 l 254 -342 q 268 -339 264 -342 q 276 -326 272 -336 l 378 -128 q 378 -114 382 -119 q 364 -108 375 -108 l 338 -108 q 323 -111 328 -108 q 317 -124 318 -114 l 225 -326 q 236 -342 221 -342 "},"L":{"ha":707,"x_min":50,"x_max":592,"o":"m 65 0 l 565 0 q 577 3 574 0 q 583 15 581 7 l 588 42 q 572 60 592 60 l 124 60 l 283 968 q 271 986 288 986 l 239 986 q 226 983 231 986 q 219 971 221 979 l 51 19 q 53 4 50 8 q 65 0 56 0 "},"Ĺ":{"ha":707,"x_min":50,"x_max":592,"o":"m 65 0 l 565 0 q 577 3 574 0 q 583 15 581 7 l 588 42 q 572 60 592 60 l 124 60 l 283 968 q 271 986 288 986 l 239 986 q 226 983 231 986 q 219 971 221 979 l 51 19 q 53 4 50 8 q 65 0 56 0 m 154 1076 l 161 1065 q 172 1060 167 1060 q 183 1063 179 1060 l 413 1204 q 419 1214 419 1208 q 415 1224 419 1219 l 404 1239 q 390 1247 397 1247 q 376 1243 385 1247 l 158 1096 q 151 1085 151 1092 q 154 1076 151 1082 "},"Ľ":{"ha":707,"x_min":50,"x_max":635,"o":"m 65 0 l 565 0 q 577 3 574 0 q 583 15 581 7 l 588 42 q 572 60 592 60 l 124 60 l 283 968 q 271 986 288 986 l 239 986 q 226 983 231 986 q 219 971 221 979 l 51 19 q 53 4 50 8 q 65 0 56 0 m 472 699 l 490 699 q 503 701 500 699 q 513 714 507 703 l 625 965 q 611 986 635 986 l 585 986 q 569 983 574 986 q 561 971 565 981 l 461 715 q 472 699 456 699 "},"Ļ":{"ha":707,"x_min":50,"x_max":592,"o":"m 65 0 l 565 0 q 577 3 574 0 q 583 15 581 7 l 588 42 q 572 60 592 60 l 124 60 l 283 968 q 271 986 288 986 l 239 986 q 226 983 231 986 q 219 971 221 979 l 51 19 q 53 4 50 8 q 65 0 56 0 m 188 -342 l 206 -342 q 219 -339 215 -342 q 228 -326 224 -336 l 329 -128 q 330 -114 333 -119 q 315 -108 326 -108 l 289 -108 q 274 -111 279 -108 q 268 -124 269 -114 l 176 -326 q 188 -342 172 -342 "},"Ŀ":{"ha":707,"x_min":50,"x_max":592,"o":"m 65 0 l 565 0 q 577 3 574 0 q 583 15 581 7 l 588 42 q 572 60 592 60 l 124 60 l 283 968 q 271 986 288 986 l 239 986 q 226 983 231 986 q 219 971 221 979 l 51 19 q 53 4 50 8 q 65 0 56 0 m 458 447 l 467 447 q 497 455 489 447 q 511 485 506 463 l 513 493 q 514 507 514 499 q 479 535 514 535 l 471 535 q 440 527 449 535 q 426 496 432 519 l 425 489 q 424 472 424 483 q 458 447 424 447 "},"Ł":{"ha":738,"x_min":-3,"x_max":610,"o":"m 88 0 l 585 0 q 598 3 594 0 q 604 15 601 7 l 608 40 q 607 56 610 51 q 594 60 604 60 l 144 60 l 213 443 l 563 610 q 571 621 571 617 l 569 626 l 563 647 q 553 657 560 657 l 544 654 l 222 499 l 304 967 q 303 982 307 978 q 290 986 300 986 l 261 986 q 248 983 251 986 q 242 971 244 981 l 153 469 l 6 399 q -3 388 -3 397 l -1 382 l 6 361 q 17 353 8 353 q 25 354 22 353 l 143 413 l 74 18 q 74 4 71 8 q 88 0 78 0 "},"M":{"ha":1093,"x_min":50,"x_max":1042,"o":"m 65 0 l 94 0 q 107 3 103 0 q 113 15 111 6 l 225 653 q 258 886 247 771 l 263 886 q 321 696 286 793 l 474 253 q 494 236 479 236 l 515 236 q 536 250 528 236 l 842 688 q 969 885 883 747 l 972 885 q 924 657 943 771 l 811 18 q 813 3 810 7 q 826 0 817 0 l 853 0 q 866 3 863 0 q 872 17 869 7 l 1040 967 q 1039 982 1042 978 q 1026 986 1036 986 l 996 986 q 981 983 986 986 q 968 971 975 981 l 513 308 l 289 969 q 281 983 285 979 q 268 986 278 986 l 240 986 q 226 983 231 986 q 219 971 221 981 l 51 18 q 53 4 50 8 q 65 0 56 0 "},"N":{"ha":943,"x_min":50,"x_max":896,"o":"m 65 0 l 94 0 q 108 3 104 0 q 114 15 113 6 l 229 664 q 263 893 242 735 l 265 893 q 336 714 292 819 l 654 13 q 661 3 657 6 q 672 0 665 0 l 706 0 q 718 3 715 0 q 724 17 721 7 l 892 967 q 879 986 896 986 l 850 986 q 829 972 831 986 l 718 344 q 683 92 703 256 l 681 92 l 664 133 q 600 290 635 213 l 290 975 q 272 986 286 986 l 239 986 q 226 983 231 986 q 219 971 221 979 l 51 18 q 53 4 50 8 q 65 0 56 0 "},"Ń":{"ha":943,"x_min":50,"x_max":896,"o":"m 65 0 l 94 0 q 108 3 104 0 q 114 15 113 6 l 229 664 q 263 893 242 735 l 265 893 q 336 714 292 819 l 654 13 q 661 3 657 6 q 672 0 665 0 l 706 0 q 718 3 715 0 q 724 17 721 7 l 892 967 q 879 986 896 986 l 850 986 q 829 972 831 986 l 718 344 q 683 92 703 256 l 681 92 l 664 133 q 600 290 635 213 l 290 975 q 272 986 286 986 l 239 986 q 226 983 231 986 q 219 971 221 979 l 51 18 q 53 4 50 8 q 65 0 56 0 m 460 1076 l 467 1065 q 478 1060 472 1060 q 489 1063 485 1060 l 718 1204 q 725 1214 725 1208 q 721 1224 725 1219 l 710 1239 q 696 1247 703 1247 q 682 1243 690 1247 l 464 1096 q 457 1085 457 1092 q 460 1076 457 1082 "},"Ň":{"ha":943,"x_min":50,"x_max":896,"o":"m 65 0 l 94 0 q 108 3 104 0 q 114 15 113 6 l 229 664 q 263 893 242 735 l 265 893 q 336 714 292 819 l 654 13 q 661 3 657 6 q 672 0 665 0 l 706 0 q 718 3 715 0 q 724 17 721 7 l 892 967 q 879 986 896 986 l 850 986 q 829 972 831 986 l 718 344 q 683 92 703 256 l 681 92 l 664 133 q 600 290 635 213 l 290 975 q 272 986 286 986 l 239 986 q 226 983 231 986 q 219 971 221 979 l 51 18 q 53 4 50 8 q 65 0 56 0 m 569 1061 l 578 1061 q 590 1063 585 1061 q 601 1069 594 1064 q 611 1076 608 1074 l 801 1232 q 806 1242 808 1238 q 793 1247 804 1247 l 767 1247 q 752 1245 758 1247 q 740 1239 746 1243 l 579 1104 l 467 1238 q 457 1246 461 1244 q 443 1247 453 1247 l 417 1247 q 404 1242 404 1247 q 408 1235 404 1239 l 542 1078 q 555 1065 550 1068 q 569 1061 560 1061 "},"Ņ":{"ha":943,"x_min":50,"x_max":896,"o":"m 65 0 l 94 0 q 108 3 104 0 q 114 15 113 6 l 229 664 q 263 893 242 735 l 265 893 q 336 714 292 819 l 654 13 q 661 3 657 6 q 672 0 665 0 l 706 0 q 718 3 715 0 q 724 17 721 7 l 892 967 q 879 986 896 986 l 850 986 q 829 972 831 986 l 718 344 q 683 92 703 256 l 681 92 l 664 133 q 600 290 635 213 l 290 975 q 272 986 286 986 l 239 986 q 226 983 231 986 q 219 971 221 979 l 51 18 q 53 4 50 8 q 65 0 56 0 m 261 -342 l 279 -342 q 293 -339 289 -342 q 301 -326 297 -336 l 403 -128 q 403 -114 407 -119 q 389 -108 400 -108 l 363 -108 q 348 -111 353 -108 q 342 -124 343 -114 l 250 -326 q 261 -342 246 -342 "},"Ŋ":{"ha":943,"x_min":50,"x_max":896,"o":"m 401 -319 q 617 -251 546 -319 q 714 -36 689 -182 l 892 967 q 879 986 896 986 l 850 986 q 835 983 839 986 q 829 971 831 981 l 719 344 q 685 92 697 217 l 681 92 l 661 140 q 635 207 653 161 q 600 290 617 253 l 290 975 q 272 986 286 986 l 239 986 q 225 983 229 986 q 219 971 221 981 l 51 19 q 53 4 50 8 q 65 0 56 0 l 94 0 q 108 3 104 0 q 114 15 113 6 l 229 664 q 257 850 236 703 l 263 892 l 265 893 q 336 714 310 776 l 658 3 l 654 -24 q 576 -203 633 -144 q 404 -262 519 -262 q 394 -265 397 -262 q 389 -278 390 -268 l 385 -301 q 401 -319 383 -319 "},"Ñ":{"ha":943,"x_min":50,"x_max":896,"o":"m 65 0 l 94 0 q 108 3 104 0 q 114 15 113 6 l 229 664 q 263 893 242 735 l 265 893 q 336 714 292 819 l 654 13 q 661 3 657 6 q 672 0 665 0 l 706 0 q 718 3 715 0 q 724 17 721 7 l 892 967 q 879 986 896 986 l 850 986 q 829 972 831 986 l 718 344 q 683 92 703 256 l 681 92 l 664 133 q 600 290 635 213 l 290 975 q 272 986 286 986 l 239 986 q 226 983 231 986 q 219 971 221 979 l 51 18 q 53 4 50 8 q 65 0 56 0 m 396 1075 l 415 1075 q 425 1086 425 1075 q 454 1151 432 1126 q 504 1175 476 1175 q 543 1164 528 1175 q 579 1129 558 1153 q 623 1089 603 1103 q 675 1075 643 1075 q 748 1108 719 1075 q 788 1200 776 1142 q 787 1214 789 1210 q 778 1218 785 1218 l 757 1218 q 749 1215 751 1218 q 747 1208 747 1213 q 719 1143 740 1168 q 669 1118 699 1118 q 634 1128 649 1118 q 597 1163 619 1139 q 552 1204 572 1190 q 500 1218 532 1218 q 425 1185 456 1218 q 386 1094 394 1151 q 396 1075 385 1075 "},"O":{"ha":904,"x_min":68,"x_max":835,"o":"m 368 -19 q 638 70 535 -19 q 768 322 740 160 l 828 661 q 835 744 835 697 q 759 938 835 869 q 538 1006 683 1006 q 268 916 371 1006 q 136 664 165 826 l 76 325 q 68 242 68 282 q 144 49 68 117 q 368 -19 221 -19 m 371 40 q 194 95 254 40 q 133 253 133 150 q 140 324 133 282 l 200 660 q 310 870 224 794 q 535 946 397 946 q 711 892 651 946 q 771 738 771 839 q 764 664 771 708 l 706 326 q 594 115 681 189 q 371 40 508 40 "},"Ó":{"ha":904,"x_min":68,"x_max":835,"o":"m 368 -19 q 638 70 535 -19 q 768 322 740 160 l 828 661 q 835 744 835 697 q 759 938 835 869 q 538 1006 683 1006 q 268 916 371 1006 q 136 664 165 826 l 76 325 q 68 242 68 282 q 144 49 68 117 q 368 -19 221 -19 m 371 40 q 194 95 254 40 q 133 253 133 150 q 140 324 133 282 l 200 660 q 310 870 224 794 q 535 946 397 946 q 711 892 651 946 q 771 738 771 839 q 764 664 771 708 l 706 326 q 594 115 681 189 q 371 40 508 40 m 442 1090 l 449 1079 q 460 1074 454 1074 q 471 1076 467 1074 l 700 1218 q 707 1228 707 1222 q 703 1238 707 1233 l 692 1253 q 678 1261 685 1261 q 664 1257 672 1261 l 446 1110 q 439 1099 439 1106 q 442 1090 439 1096 "},"Ŏ":{"ha":904,"x_min":68,"x_max":835,"o":"m 368 -19 q 638 70 535 -19 q 768 322 740 160 l 828 661 q 835 744 835 697 q 759 938 835 869 q 538 1006 683 1006 q 268 916 371 1006 q 136 664 165 826 l 76 325 q 68 242 68 282 q 144 49 68 117 q 368 -19 221 -19 m 371 40 q 194 95 254 40 q 133 253 133 150 q 140 324 133 282 l 200 660 q 310 870 224 794 q 535 946 397 946 q 711 892 651 946 q 771 738 771 839 q 764 664 771 708 l 706 326 q 594 115 681 189 q 371 40 508 40 m 560 1076 q 771 1229 711 1076 q 772 1241 774 1238 q 765 1246 771 1244 l 742 1254 q 733 1255 736 1256 q 725 1249 729 1254 q 660 1153 699 1182 q 563 1124 621 1124 q 477 1155 508 1124 q 444 1244 446 1186 q 436 1256 443 1256 q 429 1254 432 1256 l 406 1249 q 400 1233 396 1244 q 560 1076 408 1076 "},"Ô":{"ha":904,"x_min":68,"x_max":835,"o":"m 368 -19 q 638 70 535 -19 q 768 322 740 160 l 828 661 q 835 744 835 697 q 759 938 835 869 q 538 1006 683 1006 q 268 916 371 1006 q 136 664 165 826 l 76 325 q 68 242 68 282 q 144 49 68 117 q 368 -19 221 -19 m 371 40 q 194 95 254 40 q 133 253 133 150 q 140 324 133 282 l 200 660 q 310 870 224 794 q 535 946 397 946 q 711 892 651 946 q 771 738 771 839 q 764 664 771 708 l 706 326 q 594 115 681 189 q 371 40 508 40 m 367 1076 l 393 1076 q 408 1078 401 1076 q 421 1085 414 1079 l 582 1218 l 694 1088 q 703 1078 699 1081 q 718 1076 708 1076 l 744 1076 q 756 1082 756 1076 q 753 1089 756 1086 l 617 1249 q 606 1259 611 1257 q 592 1261 601 1261 l 578 1261 q 564 1258 569 1261 q 551 1250 558 1256 l 358 1092 q 353 1081 351 1086 q 367 1076 356 1076 "},"Ö":{"ha":904,"x_min":68,"x_max":835,"o":"m 368 -19 q 638 70 535 -19 q 768 322 740 160 l 828 661 q 835 744 835 697 q 759 938 835 869 q 538 1006 683 1006 q 268 916 371 1006 q 136 664 165 826 l 76 325 q 68 242 68 282 q 144 49 68 117 q 368 -19 221 -19 m 371 40 q 194 95 254 40 q 133 253 133 150 q 140 324 133 282 l 200 660 q 310 870 224 794 q 535 946 397 946 q 711 892 651 946 q 771 738 771 839 q 764 664 771 708 l 706 326 q 594 115 681 189 q 371 40 508 40 m 440 1126 l 449 1126 q 474 1132 467 1126 q 485 1156 482 1138 l 486 1165 q 483 1191 489 1183 q 458 1199 476 1199 l 450 1199 q 423 1192 431 1199 q 414 1168 415 1186 l 411 1158 q 415 1133 408 1140 q 440 1126 422 1126 m 685 1126 l 692 1126 q 717 1132 710 1126 q 728 1156 725 1138 l 729 1165 q 726 1191 732 1183 q 701 1199 719 1199 l 694 1199 q 667 1192 675 1199 q 657 1168 660 1186 l 656 1158 q 654 1147 654 1154 q 661 1131 654 1136 q 685 1126 668 1126 "},"Ò":{"ha":904,"x_min":68,"x_max":835,"o":"m 368 -19 q 638 70 535 -19 q 768 322 740 160 l 828 661 q 835 744 835 697 q 759 938 835 869 q 538 1006 683 1006 q 268 916 371 1006 q 136 664 165 826 l 76 325 q 68 242 68 282 q 144 49 68 117 q 368 -19 221 -19 m 371 40 q 194 95 254 40 q 133 253 133 150 q 140 324 133 282 l 200 660 q 310 870 224 794 q 535 946 397 946 q 711 892 651 946 q 771 738 771 839 q 764 664 771 708 l 706 326 q 594 115 681 189 q 371 40 508 40 m 463 1217 l 643 1076 q 656 1071 651 1071 q 665 1076 660 1071 l 675 1085 q 681 1096 681 1090 q 672 1107 681 1099 l 508 1253 q 501 1258 506 1254 q 492 1261 496 1261 q 478 1254 488 1261 l 461 1239 q 454 1226 454 1232 q 463 1217 454 1221 "},"Ő":{"ha":904,"x_min":68,"x_max":835,"o":"m 368 -19 q 638 70 535 -19 q 768 322 740 160 l 828 661 q 835 744 835 697 q 759 938 835 869 q 538 1006 683 1006 q 268 916 371 1006 q 136 664 165 826 l 76 325 q 68 242 68 282 q 144 49 68 117 q 368 -19 221 -19 m 371 40 q 194 95 254 40 q 133 253 133 150 q 140 324 133 282 l 200 660 q 310 870 224 794 q 535 946 397 946 q 711 892 651 946 q 771 738 771 839 q 764 664 771 708 l 706 326 q 594 115 681 189 q 371 40 508 40 m 392 1078 l 403 1074 q 424 1079 414 1069 l 590 1236 q 597 1245 597 1240 q 586 1254 596 1250 l 565 1263 q 552 1263 557 1265 q 540 1254 547 1261 l 388 1096 q 392 1078 376 1085 m 608 1081 l 619 1076 q 629 1075 625 1074 q 640 1082 633 1076 l 810 1233 q 806 1253 822 1244 l 783 1260 q 770 1260 775 1263 q 758 1251 765 1258 l 603 1099 q 599 1088 597 1093 q 608 1081 601 1083 "},"Ō":{"ha":904,"x_min":68,"x_max":835,"o":"m 368 -19 q 638 70 535 -19 q 768 322 740 160 l 828 661 q 835 744 835 697 q 759 938 835 869 q 538 1006 683 1006 q 268 916 371 1006 q 136 664 165 826 l 76 325 q 68 242 68 282 q 144 49 68 117 q 368 -19 221 -19 m 371 40 q 194 95 254 40 q 133 253 133 150 q 140 324 133 282 l 200 660 q 310 870 224 794 q 535 946 397 946 q 711 892 651 946 q 771 738 771 839 q 764 664 771 708 l 706 326 q 594 115 681 189 q 371 40 508 40 m 413 1133 l 721 1133 q 739 1149 735 1133 l 740 1163 q 739 1176 742 1172 q 726 1179 736 1179 l 421 1179 q 401 1165 403 1179 l 400 1151 q 400 1138 397 1142 q 413 1133 403 1133 "},"Ø":{"ha":904,"x_min":10,"x_max":899,"o":"m 18 -60 l 53 -60 q 58 -60 56 -60 q 64 -59 61 -60 q 68 -54 67 -58 l 147 50 q 368 -19 225 -19 q 638 69 536 -19 q 768 322 740 158 l 828 661 q 836 742 836 706 q 792 899 836 835 l 896 1032 q 897 1038 899 1035 q 890 1040 896 1040 l 854 1040 q 840 1035 844 1040 l 761 931 q 539 1006 689 1006 q 268 916 371 1006 q 136 664 165 826 l 76 325 q 68 243 68 282 q 117 82 68 147 l 13 -51 q 11 -57 10 -54 q 18 -60 13 -60 m 722 878 l 167 147 q 138 267 138 194 q 144 343 138 299 l 200 660 q 310 870 224 794 q 535 946 397 946 q 722 878 663 946 m 372 40 q 263 57 311 40 q 186 104 215 74 l 744 836 q 768 724 768 793 q 761 647 768 681 l 706 326 q 597 116 682 192 q 372 40 511 40 "},"Ǿ":{"ha":904,"x_min":10,"x_max":899,"o":"m 18 -60 l 53 -60 q 58 -60 56 -60 q 64 -59 61 -60 q 68 -54 67 -58 l 147 50 q 368 -19 225 -19 q 638 69 536 -19 q 768 322 740 158 l 828 661 q 836 742 836 706 q 792 899 836 835 l 896 1032 q 897 1038 899 1035 q 890 1040 896 1040 l 854 1040 q 840 1035 844 1040 l 761 931 q 539 1006 689 1006 q 268 916 371 1006 q 136 664 165 826 l 76 325 q 68 243 68 282 q 117 82 68 147 l 13 -51 q 11 -57 10 -54 q 18 -60 13 -60 m 722 878 l 167 147 q 138 267 138 194 q 144 343 138 299 l 200 660 q 310 870 224 794 q 535 946 397 946 q 722 878 663 946 m 372 40 q 263 57 311 40 q 186 104 215 74 l 744 836 q 768 724 768 793 q 761 647 768 681 l 706 326 q 597 116 682 192 q 372 40 511 40 m 446 1090 l 453 1079 q 464 1074 458 1074 q 475 1076 471 1074 l 704 1218 q 711 1228 711 1222 q 707 1238 711 1233 l 696 1253 q 682 1261 689 1261 q 668 1257 676 1261 l 450 1110 q 443 1099 443 1106 q 446 1090 443 1096 "},"Õ":{"ha":904,"x_min":68,"x_max":835,"o":"m 368 -19 q 638 70 535 -19 q 768 322 740 160 l 828 661 q 835 744 835 697 q 759 938 835 869 q 538 1006 683 1006 q 268 916 371 1006 q 136 664 165 826 l 76 325 q 68 242 68 282 q 144 49 68 117 q 368 -19 221 -19 m 371 40 q 194 95 254 40 q 133 253 133 150 q 140 324 133 282 l 200 660 q 310 870 224 794 q 535 946 397 946 q 711 892 651 946 q 771 738 771 839 q 764 664 771 708 l 706 326 q 594 115 681 189 q 371 40 508 40 m 378 1089 l 397 1089 q 407 1100 407 1089 q 436 1165 414 1140 q 486 1189 458 1189 q 525 1178 510 1189 q 561 1143 540 1167 q 605 1103 585 1117 q 657 1089 625 1089 q 730 1122 701 1089 q 769 1214 758 1156 q 769 1228 771 1224 q 760 1232 767 1232 l 739 1232 q 731 1229 733 1232 q 729 1222 729 1226 q 701 1157 722 1182 q 651 1132 681 1132 q 616 1142 631 1132 q 579 1176 601 1153 q 534 1218 554 1204 q 482 1232 514 1232 q 407 1199 438 1232 q 368 1108 376 1165 q 378 1089 367 1089 "},"Œ":{"ha":1169,"x_min":69,"x_max":1158,"o":"m 376 -21 q 532 0 451 -21 l 989 0 q 1000 3 997 0 q 1006 15 1003 7 l 1011 42 q 996 60 1015 60 l 585 60 l 656 469 l 999 469 q 1015 485 1013 469 l 1019 511 q 1004 529 1024 529 l 667 529 l 736 926 l 1135 926 q 1146 930 1143 926 q 1151 942 1149 933 l 1156 967 q 1156 982 1158 978 q 1143 986 1153 986 l 701 986 q 550 1007 635 1007 q 272 917 378 1007 q 136 664 165 826 l 76 325 q 69 244 69 290 q 149 49 69 119 q 376 -21 228 -21 m 381 39 q 198 95 261 39 q 135 256 135 151 q 140 322 135 290 l 200 660 q 314 871 224 794 q 546 947 404 947 q 619 941 583 947 q 676 928 656 935 l 519 58 q 460 45 499 51 q 381 39 421 39 "},"P":{"ha":846,"x_min":50,"x_max":817,"o":"m 67 0 l 97 0 q 110 3 107 0 q 115 17 114 7 l 181 383 l 478 383 q 704 467 614 383 q 813 693 794 550 q 817 753 817 725 q 753 925 817 864 q 571 986 689 986 l 240 986 q 226 983 231 986 q 219 971 222 979 l 51 18 q 53 4 50 8 q 67 0 56 0 m 475 444 l 192 444 l 276 926 l 563 926 q 703 879 654 926 q 753 744 753 832 q 749 690 753 719 q 658 509 731 574 q 475 444 585 444 "},"Þ":{"ha":839,"x_min":50,"x_max":781,"o":"m 67 0 l 97 0 q 109 3 106 0 q 115 15 113 7 l 146 186 l 426 186 q 660 269 567 186 q 775 497 753 351 q 781 565 781 529 q 713 748 781 682 q 521 814 644 814 l 257 814 l 283 967 q 271 986 288 986 l 239 986 q 226 983 229 986 q 219 971 222 979 l 51 18 q 53 3 50 7 q 67 0 57 0 m 428 244 l 156 244 l 246 754 l 510 754 q 663 703 610 754 q 715 561 715 653 q 711 506 715 535 q 617 314 693 383 q 428 244 542 244 "},"Q":{"ha":961,"x_min":111,"x_max":878,"o":"m 749 -86 l 774 -69 q 783 -57 783 -64 q 779 -46 783 -53 l 686 78 q 811 322 783 164 l 871 661 q 878 743 878 697 q 801 937 878 868 q 579 1006 725 1006 q 310 915 414 1006 q 178 664 207 825 l 119 325 q 111 239 111 279 q 187 49 111 117 q 408 -19 263 -19 q 633 42 543 -19 l 726 -82 q 738 -90 731 -90 q 749 -86 743 -90 m 414 40 q 238 94 299 40 q 176 250 176 149 q 183 322 176 281 l 242 660 q 352 871 267 796 q 576 946 438 946 q 753 890 692 946 q 814 733 814 835 q 807 664 814 706 l 747 326 q 638 116 724 192 q 414 40 551 40 "},"R":{"ha":878,"x_min":50,"x_max":824,"o":"m 65 0 l 97 0 q 110 3 107 0 q 115 17 114 7 l 189 435 l 406 435 q 515 405 479 435 q 571 303 550 375 l 653 17 q 660 3 656 7 q 678 0 664 0 l 708 0 q 721 8 721 0 q 719 17 721 14 l 632 325 q 599 398 619 369 q 544 443 578 426 q 730 526 657 454 q 819 719 803 599 q 824 771 824 747 q 765 930 824 874 q 601 986 707 986 l 240 986 q 226 983 231 986 q 219 971 221 981 l 51 19 q 53 5 50 10 q 65 0 56 0 m 511 492 l 200 492 l 276 926 l 589 926 q 715 885 671 926 q 760 765 760 843 q 756 718 760 743 q 674 551 739 611 q 511 492 610 492 "},"Ŕ":{"ha":878,"x_min":50,"x_max":824,"o":"m 65 0 l 97 0 q 110 3 107 0 q 115 17 114 7 l 189 435 l 406 435 q 515 405 479 435 q 571 303 550 375 l 653 17 q 660 3 656 7 q 678 0 664 0 l 708 0 q 721 8 721 0 q 719 17 721 14 l 632 325 q 599 398 619 369 q 544 443 578 426 q 730 526 657 454 q 819 719 803 599 q 824 771 824 747 q 765 930 824 874 q 601 986 707 986 l 240 986 q 226 983 231 986 q 219 971 221 981 l 51 19 q 53 5 50 10 q 65 0 56 0 m 511 492 l 200 492 l 276 926 l 589 926 q 715 885 671 926 q 760 765 760 843 q 756 718 760 743 q 674 551 739 611 q 511 492 610 492 m 415 1076 l 422 1065 q 433 1060 428 1060 q 444 1063 440 1060 l 674 1204 q 681 1214 681 1208 q 676 1224 681 1219 l 665 1239 q 651 1247 658 1247 q 638 1243 646 1247 l 419 1096 q 413 1085 413 1092 q 415 1076 413 1082 "},"Ř":{"ha":878,"x_min":50,"x_max":824,"o":"m 65 0 l 97 0 q 110 3 107 0 q 115 17 114 7 l 189 435 l 406 435 q 515 405 479 435 q 571 303 550 375 l 653 17 q 660 3 656 7 q 678 0 664 0 l 708 0 q 721 8 721 0 q 719 17 721 14 l 632 325 q 599 398 619 369 q 544 443 578 426 q 730 526 657 454 q 819 719 803 599 q 824 771 824 747 q 765 930 824 874 q 601 986 707 986 l 240 986 q 226 983 231 986 q 219 971 221 981 l 51 19 q 53 5 50 10 q 65 0 56 0 m 511 492 l 200 492 l 276 926 l 589 926 q 715 885 671 926 q 760 765 760 843 q 756 718 760 743 q 674 551 739 611 q 511 492 610 492 m 526 1061 l 535 1061 q 547 1063 542 1061 q 558 1069 551 1064 q 568 1076 565 1074 l 758 1232 q 763 1242 765 1238 q 750 1247 761 1247 l 724 1247 q 709 1245 715 1247 q 697 1239 703 1243 l 536 1104 l 424 1238 q 414 1246 418 1244 q 400 1247 410 1247 l 374 1247 q 361 1242 361 1247 q 365 1235 361 1239 l 499 1078 q 512 1065 507 1068 q 526 1061 517 1061 "},"Ŗ":{"ha":878,"x_min":50,"x_max":824,"o":"m 65 0 l 97 0 q 110 3 107 0 q 115 17 114 7 l 189 435 l 406 435 q 515 405 479 435 q 571 303 550 375 l 653 17 q 660 3 656 7 q 678 0 664 0 l 708 0 q 721 8 721 0 q 719 17 721 14 l 632 325 q 599 398 619 369 q 544 443 578 426 q 730 526 657 454 q 819 719 803 599 q 824 771 824 747 q 765 930 824 874 q 601 986 707 986 l 240 986 q 226 983 231 986 q 219 971 221 981 l 51 19 q 53 5 50 10 q 65 0 56 0 m 511 492 l 200 492 l 276 926 l 589 926 q 715 885 671 926 q 760 765 760 843 q 756 718 760 743 q 674 551 739 611 q 511 492 610 492 m 253 -342 l 271 -342 q 285 -339 281 -342 q 293 -326 289 -336 l 394 -128 q 395 -114 399 -119 q 381 -108 392 -108 l 354 -108 q 340 -111 344 -108 q 333 -124 335 -114 l 242 -326 q 253 -342 238 -342 "},"S":{"ha":853,"x_min":32,"x_max":810,"o":"m 343 -19 q 610 53 511 -19 q 726 265 708 126 q 731 313 731 290 q 694 429 731 386 q 597 492 657 472 q 444 525 536 513 q 316 551 367 536 q 233 601 265 567 q 200 693 200 635 q 203 732 200 718 q 297 888 219 832 q 496 944 375 944 q 662 903 603 944 q 749 767 721 861 q 760 757 753 757 q 768 758 765 757 l 799 768 q 810 779 810 771 l 807 790 q 703 954 776 903 q 500 1006 629 1006 q 252 932 349 1006 q 139 731 156 858 q 136 686 136 714 q 175 565 136 610 q 276 500 214 521 q 428 467 338 479 q 555 441 507 456 q 634 394 603 426 q 665 304 665 363 q 661 263 665 286 q 565 98 644 154 q 350 42 486 42 q 179 89 242 42 q 94 242 117 136 q 83 254 90 254 q 75 253 78 254 l 43 243 q 32 232 32 239 q 36 217 32 225 q 137 37 63 93 q 343 -19 211 -19 "},"Ś":{"ha":853,"x_min":32,"x_max":810,"o":"m 343 -19 q 610 53 511 -19 q 726 265 708 126 q 731 313 731 290 q 694 429 731 386 q 597 492 657 472 q 444 525 536 513 q 316 551 367 536 q 233 601 265 567 q 200 693 200 635 q 203 732 200 718 q 297 888 219 832 q 496 944 375 944 q 662 903 603 944 q 749 767 721 861 q 760 757 753 757 q 768 758 765 757 l 799 768 q 810 779 810 771 l 807 790 q 703 954 776 903 q 500 1006 629 1006 q 252 932 349 1006 q 139 731 156 858 q 136 686 136 714 q 175 565 136 610 q 276 500 214 521 q 428 467 338 479 q 555 441 507 456 q 634 394 603 426 q 665 304 665 363 q 661 263 665 286 q 565 98 644 154 q 350 42 486 42 q 179 89 242 42 q 94 242 117 136 q 83 254 90 254 q 75 253 78 254 l 43 243 q 32 232 32 239 q 36 217 32 225 q 137 37 63 93 q 343 -19 211 -19 m 418 1089 l 425 1078 q 436 1072 431 1072 q 447 1075 443 1072 l 676 1217 q 683 1226 683 1221 q 679 1236 683 1232 l 668 1251 q 654 1260 661 1260 q 640 1256 649 1260 l 422 1108 q 415 1097 415 1104 q 418 1089 415 1094 "},"Š":{"ha":853,"x_min":32,"x_max":810,"o":"m 343 -19 q 610 53 511 -19 q 726 265 708 126 q 731 313 731 290 q 694 429 731 386 q 597 492 657 472 q 444 525 536 513 q 316 551 367 536 q 233 601 265 567 q 200 693 200 635 q 203 732 200 718 q 297 888 219 832 q 496 944 375 944 q 662 903 603 944 q 749 767 721 861 q 760 757 753 757 q 768 758 765 757 l 799 768 q 810 779 810 771 l 807 790 q 703 954 776 903 q 500 1006 629 1006 q 252 932 349 1006 q 139 731 156 858 q 136 686 136 714 q 175 565 136 610 q 276 500 214 521 q 428 467 338 479 q 555 441 507 456 q 634 394 603 426 q 665 304 665 363 q 661 263 665 286 q 565 98 644 154 q 350 42 486 42 q 179 89 242 42 q 94 242 117 136 q 83 254 90 254 q 75 253 78 254 l 43 243 q 32 232 32 239 q 36 217 32 225 q 137 37 63 93 q 343 -19 211 -19 m 528 1074 l 536 1074 q 548 1075 543 1074 q 560 1081 553 1076 q 569 1089 567 1086 l 760 1244 q 765 1255 767 1250 q 751 1260 763 1260 l 725 1260 q 710 1258 717 1260 q 699 1251 704 1256 l 538 1117 l 425 1250 q 415 1258 419 1257 q 401 1260 411 1260 l 375 1260 q 363 1254 363 1260 q 367 1247 363 1251 l 500 1090 q 513 1077 508 1081 q 528 1074 518 1074 "},"Ş":{"ha":853,"x_min":32,"x_max":810,"o":"m 810 779 l 807 790 q 703 954 776 903 q 500 1006 629 1006 q 252 932 349 1006 q 139 731 156 858 q 136 686 136 714 q 175 565 136 610 q 276 500 214 521 q 428 467 338 479 q 555 441 507 456 q 634 394 603 426 q 665 304 665 363 q 661 263 665 286 q 565 98 644 154 q 350 42 486 42 q 179 89 242 42 q 94 242 117 136 q 83 254 90 254 q 75 253 78 254 l 43 243 q 32 232 32 239 q 36 217 32 225 q 137 37 63 93 q 343 -19 211 -19 l 346 -19 l 285 -142 q 283 -154 281 -149 q 293 -160 286 -160 l 297 -160 q 349 -153 326 -151 q 397 -168 379 -154 q 415 -207 415 -182 l 414 -219 q 376 -287 406 -265 q 299 -310 346 -310 q 249 -300 269 -310 q 208 -274 228 -290 q 204 -272 207 -271 q 200 -279 201 -274 l 199 -297 q 199 -310 197 -306 q 208 -317 201 -314 q 301 -349 247 -349 q 415 -316 371 -349 q 467 -218 458 -283 q 468 -200 468 -211 q 442 -140 468 -161 q 369 -119 415 -119 q 338 -122 357 -119 l 388 -18 q 622 64 536 -8 q 726 265 708 136 q 731 313 731 290 q 694 429 731 386 q 597 492 657 472 q 444 525 536 513 q 316 551 367 536 q 233 601 265 567 q 200 693 200 635 q 203 732 200 718 q 297 888 219 832 q 496 944 375 944 q 662 903 603 944 q 749 767 721 861 q 760 757 753 757 q 768 758 765 757 l 799 768 q 810 779 810 771 "},"Ŝ":{"ha":853,"x_min":32,"x_max":810,"o":"m 343 -19 q 610 53 511 -19 q 726 265 708 126 q 731 313 731 290 q 694 429 731 386 q 597 492 657 472 q 444 525 536 513 q 316 551 367 536 q 233 601 265 567 q 200 693 200 635 q 203 732 200 718 q 297 888 219 832 q 496 944 375 944 q 662 903 603 944 q 749 767 721 861 q 760 757 753 757 q 768 758 765 757 l 799 768 q 810 779 810 771 l 807 790 q 703 954 776 903 q 500 1006 629 1006 q 252 932 349 1006 q 139 731 156 858 q 136 686 136 714 q 175 565 136 610 q 276 500 214 521 q 428 467 338 479 q 555 441 507 456 q 634 394 603 426 q 665 304 665 363 q 661 263 665 286 q 565 98 644 154 q 350 42 486 42 q 179 89 242 42 q 94 242 117 136 q 83 254 90 254 q 75 253 78 254 l 43 243 q 32 232 32 239 q 36 217 32 225 q 137 37 63 93 q 343 -19 211 -19 m 343 1075 l 369 1075 q 384 1076 378 1075 q 397 1083 390 1078 l 558 1217 l 671 1086 q 680 1077 675 1079 q 694 1075 685 1075 l 721 1075 q 732 1081 732 1075 q 729 1088 732 1085 l 593 1247 q 583 1258 588 1256 q 568 1260 578 1260 l 554 1260 q 540 1257 546 1260 q 528 1249 535 1254 l 335 1090 q 330 1080 328 1085 q 343 1075 332 1075 "},"Ș":{"ha":853,"x_min":32,"x_max":810,"o":"m 343 -19 q 610 53 511 -19 q 726 265 708 126 q 731 313 731 290 q 694 429 731 386 q 597 492 657 472 q 444 525 536 513 q 316 551 367 536 q 233 601 265 567 q 200 693 200 635 q 203 732 200 718 q 297 888 219 832 q 496 944 375 944 q 662 903 603 944 q 749 767 721 861 q 760 757 753 757 q 768 758 765 757 l 799 768 q 810 779 810 771 l 807 790 q 703 954 776 903 q 500 1006 629 1006 q 252 932 349 1006 q 139 731 156 858 q 136 686 136 714 q 175 565 136 610 q 276 500 214 521 q 428 467 338 479 q 555 441 507 456 q 634 394 603 426 q 665 304 665 363 q 661 263 665 286 q 565 98 644 154 q 350 42 486 42 q 179 89 242 42 q 94 242 117 136 q 83 254 90 254 q 75 253 78 254 l 43 243 q 32 232 32 239 q 36 217 32 225 q 137 37 63 93 q 343 -19 211 -19 m 236 -351 l 254 -351 q 268 -349 264 -351 q 276 -336 272 -346 l 378 -137 q 378 -124 382 -129 q 364 -118 375 -118 l 338 -118 q 323 -121 328 -118 q 317 -133 318 -124 l 225 -336 q 236 -351 221 -351 "},"ẞ":{"ha":875,"x_min":50,"x_max":818,"o":"m 800 986 l 239 986 q 225 982 229 986 q 219 968 221 978 l 51 18 q 53 4 50 8 q 65 0 56 0 l 96 0 q 115 18 114 0 l 276 926 l 729 926 l 432 567 q 421 544 422 556 l 415 518 q 428 503 413 503 l 431 503 q 506 510 476 510 q 542 510 536 510 q 653 469 613 510 q 693 349 693 429 q 686 279 693 321 q 592 105 664 161 q 396 49 521 49 q 316 56 353 49 q 229 85 279 63 q 215 82 221 86 q 210 71 210 78 l 204 43 q 218 25 203 25 q 310 -3 269 4 q 390 -11 350 -11 q 633 59 544 -11 q 749 275 722 129 q 757 363 757 324 q 705 515 757 465 q 561 565 653 565 q 493 563 540 565 l 799 918 q 811 940 810 932 l 815 968 q 800 986 818 986 "},"T":{"ha":735,"x_min":118,"x_max":781,"o":"m 267 0 l 297 0 q 310 3 306 0 q 315 15 314 6 l 476 926 l 756 926 q 769 929 765 926 q 775 942 772 932 l 779 967 q 778 982 781 978 q 765 986 775 986 l 144 986 q 131 983 135 986 q 124 971 126 981 l 119 946 q 122 931 118 935 q 135 926 125 926 l 411 926 l 251 18 q 253 4 250 8 q 267 0 256 0 "},"Ŧ":{"ha":725,"x_min":114,"x_max":769,"o":"m 261 0 l 290 0 q 304 3 300 0 q 310 15 308 6 l 385 435 l 578 435 q 588 437 585 435 q 592 447 590 439 l 594 468 q 594 480 596 476 q 583 483 592 483 l 393 483 l 471 926 l 746 926 q 758 930 754 926 q 764 942 761 933 l 768 967 q 767 982 769 978 q 756 986 764 986 l 143 986 q 124 971 126 986 l 119 944 q 135 926 115 926 l 406 926 l 328 483 l 135 483 q 125 481 128 483 q 121 472 122 479 l 118 451 q 129 435 114 435 l 321 435 l 246 17 q 248 3 244 7 q 261 0 251 0 "},"Ť":{"ha":735,"x_min":118,"x_max":781,"o":"m 267 0 l 297 0 q 310 3 306 0 q 315 15 314 6 l 476 926 l 756 926 q 769 929 765 926 q 775 942 772 932 l 779 967 q 778 982 781 978 q 765 986 775 986 l 144 986 q 131 983 135 986 q 124 971 126 981 l 119 946 q 122 931 118 935 q 135 926 125 926 l 411 926 l 251 18 q 253 4 250 8 q 267 0 256 0 m 465 1061 l 474 1061 q 485 1063 481 1061 q 497 1069 490 1064 q 507 1076 504 1074 l 697 1232 q 702 1242 704 1238 q 689 1247 700 1247 l 663 1247 q 648 1245 654 1247 q 636 1239 642 1243 l 475 1104 l 363 1238 q 353 1246 357 1244 q 339 1247 349 1247 l 313 1247 q 300 1242 300 1247 q 304 1235 300 1239 l 438 1078 q 451 1065 446 1068 q 465 1061 456 1061 "},"Ţ":{"ha":735,"x_min":118,"x_max":781,"o":"m 267 0 l 297 0 q 310 3 306 0 q 315 15 314 6 l 476 926 l 756 926 q 769 929 765 926 q 775 942 772 932 l 779 967 q 778 982 781 978 q 765 986 775 986 l 144 986 q 131 983 135 986 q 124 971 126 981 l 119 946 q 122 931 118 935 q 135 926 125 926 l 411 926 l 251 18 q 253 4 250 8 q 267 0 256 0 m 153 -342 l 171 -342 q 185 -339 181 -342 q 193 -326 189 -336 l 294 -128 q 295 -114 299 -119 q 281 -108 292 -108 l 254 -108 q 240 -111 244 -108 q 233 -124 235 -114 l 142 -326 q 153 -342 138 -342 "},"U":{"ha":932,"x_min":92,"x_max":889,"o":"m 378 -19 q 645 74 543 -19 q 776 333 747 167 l 888 968 q 886 982 889 978 q 874 986 883 986 l 843 986 q 830 983 835 986 q 824 971 825 981 l 713 336 q 603 118 688 196 q 382 40 519 40 q 213 96 269 40 q 157 254 157 151 q 164 333 157 299 l 276 968 q 274 982 278 978 q 261 986 271 986 l 232 986 q 218 983 222 986 q 213 971 214 981 l 100 336 q 92 242 92 286 q 163 49 92 117 q 378 -19 235 -19 "},"Ú":{"ha":932,"x_min":92,"x_max":889,"o":"m 378 -19 q 645 74 543 -19 q 776 333 747 167 l 888 968 q 886 982 889 978 q 874 986 883 986 l 843 986 q 830 983 835 986 q 824 971 825 981 l 713 336 q 603 118 688 196 q 382 40 519 40 q 213 96 269 40 q 157 254 157 151 q 164 333 157 299 l 276 968 q 274 982 278 978 q 261 986 271 986 l 232 986 q 218 983 222 986 q 213 971 214 981 l 100 336 q 92 242 92 286 q 163 49 92 117 q 378 -19 235 -19 m 453 1076 l 460 1065 q 471 1060 465 1060 q 482 1063 478 1060 l 711 1204 q 718 1214 718 1208 q 714 1224 718 1219 l 703 1239 q 689 1247 696 1247 q 675 1243 683 1247 l 457 1096 q 450 1085 450 1092 q 453 1076 450 1082 "},"Ŭ":{"ha":932,"x_min":92,"x_max":889,"o":"m 378 -19 q 645 74 543 -19 q 776 333 747 167 l 888 968 q 886 982 889 978 q 874 986 883 986 l 843 986 q 830 983 835 986 q 824 971 825 981 l 713 336 q 603 118 688 196 q 382 40 519 40 q 213 96 269 40 q 157 254 157 151 q 164 333 157 299 l 276 968 q 274 982 278 978 q 261 986 271 986 l 232 986 q 218 983 222 986 q 213 971 214 981 l 100 336 q 92 242 92 286 q 163 49 92 117 q 378 -19 235 -19 m 571 1063 q 782 1215 722 1063 q 783 1227 785 1224 q 776 1232 782 1231 l 753 1240 q 744 1241 747 1242 q 736 1235 740 1240 q 671 1139 710 1168 q 574 1110 632 1110 q 488 1141 519 1110 q 456 1231 457 1172 q 447 1242 454 1242 q 440 1240 443 1242 l 417 1235 q 411 1219 407 1231 q 571 1063 419 1063 "},"Û":{"ha":932,"x_min":92,"x_max":889,"o":"m 378 -19 q 645 74 543 -19 q 776 333 747 167 l 888 968 q 886 982 889 978 q 874 986 883 986 l 843 986 q 830 983 835 986 q 824 971 825 981 l 713 336 q 603 118 688 196 q 382 40 519 40 q 213 96 269 40 q 157 254 157 151 q 164 333 157 299 l 276 968 q 274 982 278 978 q 261 986 271 986 l 232 986 q 218 983 222 986 q 213 971 214 981 l 100 336 q 92 242 92 286 q 163 49 92 117 q 378 -19 235 -19 m 378 1063 l 404 1063 q 419 1064 413 1063 q 432 1071 425 1065 l 593 1204 l 706 1074 q 715 1065 710 1067 q 729 1063 719 1063 l 756 1063 q 767 1068 767 1063 q 764 1075 767 1072 l 628 1235 q 617 1245 622 1243 q 603 1247 613 1247 l 589 1247 q 575 1244 581 1247 q 563 1236 569 1242 l 369 1078 q 365 1067 363 1072 q 378 1063 367 1063 "},"Ü":{"ha":932,"x_min":92,"x_max":889,"o":"m 378 -19 q 645 74 543 -19 q 776 333 747 167 l 888 968 q 886 982 889 978 q 874 986 883 986 l 843 986 q 830 983 835 986 q 824 971 825 981 l 713 336 q 603 118 688 196 q 382 40 519 40 q 213 96 269 40 q 157 254 157 151 q 164 333 157 299 l 276 968 q 274 982 278 978 q 261 986 271 986 l 232 986 q 218 983 222 986 q 213 971 214 981 l 100 336 q 92 242 92 286 q 163 49 92 117 q 378 -19 235 -19 m 451 1113 l 460 1113 q 485 1118 478 1113 q 496 1142 493 1124 l 497 1151 q 494 1177 500 1169 q 469 1185 488 1185 l 461 1185 q 434 1178 442 1185 q 425 1154 426 1172 l 422 1144 q 426 1119 419 1126 q 451 1113 433 1113 m 696 1113 l 703 1113 q 728 1118 721 1113 q 739 1142 736 1124 l 740 1151 q 737 1177 743 1169 q 713 1185 731 1185 l 706 1185 q 678 1178 686 1185 q 668 1154 671 1172 l 667 1144 q 665 1133 665 1140 q 672 1117 665 1122 q 696 1113 679 1113 "},"Ù":{"ha":932,"x_min":92,"x_max":889,"o":"m 378 -19 q 645 74 543 -19 q 776 333 747 167 l 888 968 q 886 982 889 978 q 874 986 883 986 l 843 986 q 830 983 835 986 q 824 971 825 981 l 713 336 q 603 118 688 196 q 382 40 519 40 q 213 96 269 40 q 157 254 157 151 q 164 333 157 299 l 276 968 q 274 982 278 978 q 261 986 271 986 l 232 986 q 218 983 222 986 q 213 971 214 981 l 100 336 q 92 242 92 286 q 163 49 92 117 q 378 -19 235 -19 m 474 1203 l 654 1063 q 667 1057 663 1057 q 676 1063 671 1057 l 686 1071 q 692 1082 692 1076 q 683 1093 692 1085 l 519 1239 q 512 1244 517 1240 q 503 1247 507 1247 q 489 1240 499 1247 l 472 1225 q 465 1213 465 1218 q 474 1203 465 1207 "},"Ű":{"ha":932,"x_min":92,"x_max":889,"o":"m 378 -19 q 645 74 543 -19 q 776 333 747 167 l 888 968 q 886 982 889 978 q 874 986 883 986 l 843 986 q 830 983 835 986 q 824 971 825 981 l 713 336 q 603 118 688 196 q 382 40 519 40 q 213 96 269 40 q 157 254 157 151 q 164 333 157 299 l 276 968 q 274 982 278 978 q 261 986 271 986 l 232 986 q 218 983 222 986 q 213 971 214 981 l 100 336 q 92 242 92 286 q 163 49 92 117 q 378 -19 235 -19 m 403 1064 l 414 1060 q 435 1065 425 1056 l 601 1222 q 608 1231 608 1226 q 597 1240 607 1236 l 576 1249 q 563 1249 568 1251 q 551 1240 558 1247 l 399 1082 q 403 1064 388 1071 m 619 1067 l 631 1063 q 640 1061 636 1060 q 651 1068 644 1063 l 821 1219 q 817 1239 833 1231 l 794 1246 q 781 1247 786 1249 q 769 1238 776 1244 l 614 1085 q 610 1074 608 1079 q 619 1067 613 1069 "},"Ū":{"ha":932,"x_min":92,"x_max":889,"o":"m 378 -19 q 645 74 543 -19 q 776 333 747 167 l 888 968 q 886 982 889 978 q 874 986 883 986 l 843 986 q 830 983 835 986 q 824 971 825 981 l 713 336 q 603 118 688 196 q 382 40 519 40 q 213 96 269 40 q 157 254 157 151 q 164 333 157 299 l 276 968 q 274 982 278 978 q 261 986 271 986 l 232 986 q 218 983 222 986 q 213 971 214 981 l 100 336 q 92 242 92 286 q 163 49 92 117 q 378 -19 235 -19 m 424 1119 l 732 1119 q 750 1135 746 1119 l 751 1149 q 750 1162 753 1158 q 738 1165 747 1165 l 432 1165 q 413 1151 414 1165 l 411 1138 q 411 1124 408 1128 q 424 1119 414 1119 "},"Ų":{"ha":932,"x_min":92,"x_max":889,"o":"m 433 -343 q 492 -332 460 -343 q 550 -296 524 -321 q 554 -283 556 -290 l 547 -261 q 538 -256 543 -253 q 451 -296 494 -296 q 419 -286 431 -296 q 408 -250 408 -276 q 468 -110 408 -196 q 619 50 528 -25 q 776 333 743 153 l 888 968 q 886 982 889 978 q 874 986 883 986 l 842 986 q 830 983 835 986 q 824 971 825 981 l 713 336 q 603 118 686 196 q 382 40 519 40 q 213 96 269 40 q 157 254 157 151 q 164 333 157 299 l 276 968 q 275 982 278 978 q 263 986 272 986 l 232 986 q 218 983 222 986 q 213 971 214 981 l 100 336 q 92 243 92 286 q 163 49 92 118 q 378 -19 235 -19 q 524 11 461 -19 q 398 -138 442 -68 q 354 -262 354 -208 q 433 -343 354 -343 "},"Ů":{"ha":932,"x_min":92,"x_max":889,"o":"m 378 -19 q 645 74 543 -19 q 776 333 747 167 l 888 968 q 886 982 889 978 q 874 986 883 986 l 843 986 q 830 983 835 986 q 824 971 825 981 l 713 336 q 603 118 688 196 q 382 40 519 40 q 213 96 269 40 q 157 254 157 151 q 164 333 157 299 l 276 968 q 274 982 278 978 q 261 986 271 986 l 232 986 q 218 983 222 986 q 213 971 214 981 l 100 336 q 92 242 92 286 q 163 49 92 117 q 378 -19 235 -19 m 571 1049 q 672 1092 632 1049 q 713 1203 713 1136 q 684 1279 713 1251 q 607 1307 656 1307 q 503 1264 544 1307 q 463 1151 463 1221 q 492 1076 463 1104 q 571 1049 521 1049 m 572 1082 q 517 1102 538 1082 q 496 1157 496 1122 q 497 1175 496 1169 q 535 1246 504 1219 q 607 1272 565 1272 q 660 1253 640 1272 q 679 1201 679 1233 q 649 1115 679 1149 q 572 1082 618 1082 "},"Ũ":{"ha":932,"x_min":92,"x_max":889,"o":"m 378 -19 q 645 74 543 -19 q 776 333 747 167 l 888 968 q 886 982 889 978 q 874 986 883 986 l 843 986 q 830 983 835 986 q 824 971 825 981 l 713 336 q 603 118 688 196 q 382 40 519 40 q 213 96 269 40 q 157 254 157 151 q 164 333 157 299 l 276 968 q 274 982 278 978 q 261 986 271 986 l 232 986 q 218 983 222 986 q 213 971 214 981 l 100 336 q 92 242 92 286 q 163 49 92 117 q 378 -19 235 -19 m 389 1075 l 408 1075 q 418 1086 418 1075 q 447 1151 425 1126 q 497 1175 469 1175 q 536 1164 521 1175 q 572 1129 551 1153 q 616 1089 596 1103 q 668 1075 636 1075 q 741 1108 713 1075 q 781 1200 769 1142 q 780 1214 782 1210 q 771 1218 778 1218 l 750 1218 q 742 1215 744 1218 q 740 1208 740 1213 q 713 1143 733 1168 q 663 1118 692 1118 q 627 1128 642 1118 q 590 1163 613 1139 q 545 1204 565 1190 q 493 1218 525 1218 q 418 1185 449 1218 q 379 1094 388 1151 q 389 1075 378 1075 "},"V":{"ha":839,"x_min":124,"x_max":889,"o":"m 317 0 l 351 0 q 366 3 361 0 q 375 14 371 6 l 885 968 q 887 981 889 975 q 875 986 885 986 l 839 986 q 824 983 829 986 q 815 972 819 981 l 393 174 q 367 119 379 149 q 349 78 354 89 l 344 78 q 333 171 342 113 l 192 968 q 187 982 190 978 q 172 986 183 986 l 136 986 q 126 983 128 986 q 124 971 124 979 l 299 17 q 317 0 299 0 "},"W":{"ha":1218,"x_min":140,"x_max":1254,"o":"m 242 0 l 272 0 q 288 3 283 0 q 296 14 293 6 l 624 746 q 675 874 658 822 l 679 874 q 685 749 679 829 l 754 17 q 775 0 754 0 l 807 0 q 822 3 817 0 q 831 14 826 6 l 1247 967 q 1238 986 1254 986 l 1203 986 q 1189 983 1193 986 q 1181 972 1185 981 l 856 221 q 807 92 821 135 l 803 92 q 797 219 803 136 l 728 947 q 707 965 728 965 l 679 965 q 665 963 669 965 q 654 951 660 960 l 328 224 q 275 92 292 143 l 269 92 l 271 142 q 267 222 271 185 l 207 968 q 203 983 207 979 q 188 986 199 986 l 153 986 q 143 984 146 986 q 140 976 140 982 l 140 971 l 222 17 q 242 0 222 0 "},"Ẃ":{"ha":1218,"x_min":140,"x_max":1254,"o":"m 242 0 l 272 0 q 288 3 283 0 q 296 14 293 6 l 624 746 q 675 874 658 822 l 679 874 q 685 749 679 829 l 754 17 q 775 0 754 0 l 807 0 q 822 3 817 0 q 831 14 826 6 l 1247 967 q 1238 986 1254 986 l 1203 986 q 1189 983 1193 986 q 1181 972 1185 981 l 856 221 q 807 92 821 135 l 803 92 q 797 219 803 136 l 728 947 q 707 965 728 965 l 679 965 q 665 963 669 965 q 654 951 660 960 l 328 224 q 275 92 292 143 l 269 92 l 271 142 q 267 222 271 185 l 207 968 q 203 983 207 979 q 188 986 199 986 l 153 986 q 143 984 146 986 q 140 976 140 982 l 140 971 l 222 17 q 242 0 222 0 m 599 1076 l 606 1065 q 617 1060 611 1060 q 628 1063 624 1060 l 857 1204 q 864 1214 864 1208 q 860 1224 864 1219 l 849 1239 q 835 1247 842 1247 q 821 1243 829 1247 l 603 1096 q 596 1085 596 1092 q 599 1076 596 1082 "},"Ŵ":{"ha":1218,"x_min":140,"x_max":1254,"o":"m 242 0 l 272 0 q 288 3 283 0 q 296 14 293 6 l 624 746 q 675 874 658 822 l 679 874 q 685 749 679 829 l 754 17 q 775 0 754 0 l 807 0 q 822 3 817 0 q 831 14 826 6 l 1247 967 q 1238 986 1254 986 l 1203 986 q 1189 983 1193 986 q 1181 972 1185 981 l 856 221 q 807 92 821 135 l 803 92 q 797 219 803 136 l 728 947 q 707 965 728 965 l 679 965 q 665 963 669 965 q 654 951 660 960 l 328 224 q 275 92 292 143 l 269 92 l 271 142 q 267 222 271 185 l 207 968 q 203 983 207 979 q 188 986 199 986 l 153 986 q 143 984 146 986 q 140 976 140 982 l 140 971 l 222 17 q 242 0 222 0 m 524 1063 l 550 1063 q 565 1064 558 1063 q 578 1071 571 1065 l 739 1204 l 851 1074 q 860 1065 856 1067 q 875 1063 865 1063 l 901 1063 q 913 1068 913 1063 q 910 1075 913 1072 l 774 1235 q 763 1245 768 1243 q 749 1247 758 1247 l 735 1247 q 721 1244 726 1247 q 708 1236 715 1242 l 515 1078 q 510 1067 508 1072 q 524 1063 513 1063 "},"Ẅ":{"ha":1218,"x_min":140,"x_max":1254,"o":"m 242 0 l 272 0 q 288 3 283 0 q 296 14 293 6 l 624 746 q 675 874 658 822 l 679 874 q 685 749 679 829 l 754 17 q 775 0 754 0 l 807 0 q 822 3 817 0 q 831 14 826 6 l 1247 967 q 1238 986 1254 986 l 1203 986 q 1189 983 1193 986 q 1181 972 1185 981 l 856 221 q 807 92 821 135 l 803 92 q 797 219 803 136 l 728 947 q 707 965 728 965 l 679 965 q 665 963 669 965 q 654 951 660 960 l 328 224 q 275 92 292 143 l 269 92 l 271 142 q 267 222 271 185 l 207 968 q 203 983 207 979 q 188 986 199 986 l 153 986 q 143 984 146 986 q 140 976 140 982 l 140 971 l 222 17 q 242 0 222 0 m 597 1113 l 606 1113 q 631 1118 624 1113 q 642 1142 639 1124 l 643 1151 q 640 1177 646 1169 q 615 1185 633 1185 l 607 1185 q 580 1178 588 1185 q 571 1154 572 1172 l 568 1144 q 572 1119 565 1126 q 597 1113 579 1113 m 842 1113 l 849 1113 q 874 1118 867 1113 q 885 1142 882 1124 l 886 1151 q 883 1177 889 1169 q 858 1185 876 1185 l 851 1185 q 824 1178 832 1185 q 814 1154 817 1172 l 813 1144 q 811 1133 811 1140 q 818 1117 811 1122 q 842 1113 825 1113 "},"Ẁ":{"ha":1218,"x_min":140,"x_max":1254,"o":"m 242 0 l 272 0 q 288 3 283 0 q 296 14 293 6 l 624 746 q 675 874 658 822 l 679 874 q 685 749 679 829 l 754 17 q 775 0 754 0 l 807 0 q 822 3 817 0 q 831 14 826 6 l 1247 967 q 1238 986 1254 986 l 1203 986 q 1189 983 1193 986 q 1181 972 1185 981 l 856 221 q 807 92 821 135 l 803 92 q 797 219 803 136 l 728 947 q 707 965 728 965 l 679 965 q 665 963 669 965 q 654 951 660 960 l 328 224 q 275 92 292 143 l 269 92 l 271 142 q 267 222 271 185 l 207 968 q 203 983 207 979 q 188 986 199 986 l 153 986 q 143 984 146 986 q 140 976 140 982 l 140 971 l 222 17 q 242 0 222 0 m 619 1203 l 800 1063 q 813 1057 808 1057 q 822 1063 817 1057 l 832 1071 q 838 1082 838 1076 q 829 1093 838 1085 l 665 1239 q 658 1244 663 1240 q 649 1247 653 1247 q 635 1240 644 1247 l 618 1225 q 611 1213 611 1218 q 619 1203 611 1207 "},"X":{"ha":825,"x_min":-44,"x_max":860,"o":"m -33 0 l 8 0 q 36 15 28 0 l 406 451 l 622 17 q 630 3 625 7 q 646 0 635 0 l 683 0 q 697 10 697 0 q 694 19 697 11 l 456 503 l 856 968 q 857 981 860 975 q 846 986 854 986 l 804 986 q 788 984 793 986 q 776 972 782 982 l 421 551 l 213 969 q 206 983 210 981 q 189 986 201 986 l 149 986 q 138 978 138 986 q 139 971 138 974 l 371 501 l -39 22 q -44 7 -44 15 q -33 0 -44 0 "},"Y":{"ha":847,"x_min":128,"x_max":893,"o":"m 321 0 l 353 0 q 365 3 363 0 q 371 17 368 6 l 440 404 l 889 967 q 891 980 893 974 q 879 986 889 986 l 844 986 q 825 984 831 986 q 814 972 819 982 l 419 468 l 201 969 q 194 983 199 979 q 175 986 189 986 l 139 986 q 128 976 128 986 q 129 969 128 972 l 376 407 l 307 19 q 308 4 306 8 q 321 0 311 0 "},"Ý":{"ha":847,"x_min":128,"x_max":893,"o":"m 321 0 l 353 0 q 365 3 363 0 q 371 17 368 6 l 440 404 l 889 967 q 891 980 893 974 q 879 986 889 986 l 844 986 q 825 984 831 986 q 814 972 819 982 l 419 468 l 201 969 q 194 983 199 979 q 175 986 189 986 l 139 986 q 128 976 128 986 q 129 969 128 972 l 376 407 l 307 19 q 308 4 306 8 q 321 0 311 0 m 411 1076 l 418 1065 q 429 1060 424 1060 q 440 1063 436 1060 l 669 1204 q 676 1214 676 1208 q 672 1224 676 1219 l 661 1239 q 647 1247 654 1247 q 633 1243 642 1247 l 415 1096 q 408 1085 408 1092 q 411 1076 408 1082 "},"Ŷ":{"ha":847,"x_min":128,"x_max":893,"o":"m 321 0 l 353 0 q 365 3 363 0 q 371 17 368 6 l 440 404 l 889 967 q 891 980 893 974 q 879 986 889 986 l 844 986 q 825 984 831 986 q 814 972 819 982 l 419 468 l 201 969 q 194 983 199 979 q 175 986 189 986 l 139 986 q 128 976 128 986 q 129 969 128 972 l 376 407 l 307 19 q 308 4 306 8 q 321 0 311 0 m 338 1063 l 364 1063 q 378 1064 372 1063 q 392 1071 385 1065 l 553 1204 l 665 1074 q 674 1065 669 1067 q 689 1063 679 1063 l 715 1063 q 726 1068 726 1063 q 724 1075 726 1072 l 588 1235 q 577 1245 582 1243 q 563 1247 572 1247 l 549 1247 q 535 1244 540 1247 q 522 1236 529 1242 l 329 1078 q 324 1067 322 1072 q 338 1063 326 1063 "},"Ÿ":{"ha":847,"x_min":128,"x_max":893,"o":"m 321 0 l 353 0 q 365 3 363 0 q 371 17 368 6 l 440 404 l 889 967 q 891 980 893 974 q 879 986 889 986 l 844 986 q 825 984 831 986 q 814 972 819 982 l 419 468 l 201 969 q 194 983 199 979 q 175 986 189 986 l 139 986 q 128 976 128 986 q 129 969 128 972 l 376 407 l 307 19 q 308 4 306 8 q 321 0 311 0 m 411 1113 l 419 1113 q 445 1118 438 1113 q 456 1142 453 1124 l 457 1151 q 453 1177 460 1169 q 429 1185 447 1185 l 421 1185 q 394 1178 401 1185 q 385 1154 386 1172 l 382 1144 q 386 1119 379 1126 q 411 1113 393 1113 m 656 1113 l 663 1113 q 688 1118 681 1113 q 699 1142 696 1124 l 700 1151 q 697 1177 703 1169 q 672 1185 690 1185 l 665 1185 q 638 1178 646 1185 q 628 1154 631 1172 l 626 1144 q 625 1133 625 1140 q 632 1117 625 1122 q 656 1113 639 1113 "},"Ỳ":{"ha":847,"x_min":128,"x_max":893,"o":"m 321 0 l 353 0 q 365 3 363 0 q 371 17 368 6 l 440 404 l 889 967 q 891 980 893 974 q 879 986 889 986 l 844 986 q 825 984 831 986 q 814 972 819 982 l 419 468 l 201 969 q 194 983 199 979 q 175 986 189 986 l 139 986 q 128 976 128 986 q 129 969 128 972 l 376 407 l 307 19 q 308 4 306 8 q 321 0 311 0 m 432 1203 l 613 1063 q 625 1057 621 1057 q 635 1063 629 1057 l 644 1071 q 650 1082 650 1076 q 642 1093 650 1085 l 478 1239 q 470 1244 475 1240 q 461 1247 465 1247 q 447 1240 457 1247 l 431 1225 q 424 1213 424 1218 q 432 1203 424 1207 "},"Z":{"ha":758,"x_min":-19,"x_max":771,"o":"m -3 0 l 594 0 q 608 3 604 0 q 614 15 613 6 l 618 42 q 617 57 621 53 q 604 61 614 61 l 67 61 l 754 922 q 763 944 758 929 l 767 967 q 753 986 771 986 l 175 986 q 161 983 165 986 q 156 971 157 981 l 151 946 q 152 931 149 935 q 165 926 156 926 l 682 926 l -4 67 q -14 43 -10 58 l -18 18 q -16 4 -19 8 q -3 0 -12 0 "},"Ź":{"ha":758,"x_min":-19,"x_max":771,"o":"m -3 0 l 594 0 q 608 3 604 0 q 614 15 613 6 l 618 42 q 617 57 621 53 q 604 61 614 61 l 67 61 l 754 922 q 763 944 758 929 l 767 967 q 753 986 771 986 l 175 986 q 161 983 165 986 q 156 971 157 981 l 151 946 q 152 931 149 935 q 165 926 156 926 l 682 926 l -4 67 q -14 43 -10 58 l -18 18 q -16 4 -19 8 q -3 0 -12 0 m 371 1076 l 378 1065 q 389 1060 383 1060 q 400 1063 396 1060 l 629 1204 q 636 1214 636 1208 q 632 1224 636 1219 l 621 1239 q 607 1247 614 1247 q 593 1243 601 1247 l 375 1096 q 368 1085 368 1092 q 371 1076 368 1082 "},"Ž":{"ha":758,"x_min":-19,"x_max":771,"o":"m -3 0 l 594 0 q 608 3 604 0 q 614 15 613 6 l 618 42 q 617 57 621 53 q 604 61 614 61 l 67 61 l 754 922 q 763 944 758 929 l 767 967 q 753 986 771 986 l 175 986 q 161 983 165 986 q 156 971 157 981 l 151 946 q 152 931 149 935 q 165 926 156 926 l 682 926 l -4 67 q -14 43 -10 58 l -18 18 q -16 4 -19 8 q -3 0 -12 0 m 482 1061 l 490 1061 q 502 1063 497 1061 q 514 1069 507 1064 q 524 1076 521 1074 l 714 1232 q 719 1242 721 1238 q 706 1247 717 1247 l 679 1247 q 665 1245 671 1247 q 653 1239 658 1243 l 492 1104 l 379 1238 q 369 1246 374 1244 q 356 1247 365 1247 l 329 1247 q 317 1242 317 1247 q 321 1235 317 1239 l 454 1078 q 467 1065 463 1068 q 482 1061 472 1061 "},"Ż":{"ha":758,"x_min":-19,"x_max":771,"o":"m -3 0 l 594 0 q 608 3 604 0 q 614 15 613 6 l 618 42 q 617 57 621 53 q 604 61 614 61 l 67 61 l 754 922 q 763 944 758 929 l 767 967 q 753 986 771 986 l 175 986 q 161 983 165 986 q 156 971 157 981 l 151 946 q 152 931 149 935 q 165 926 156 926 l 682 926 l -4 67 q -14 43 -10 58 l -18 18 q -16 4 -19 8 q -3 0 -12 0 m 490 1106 l 497 1106 q 523 1112 515 1106 q 535 1138 531 1118 l 536 1144 q 533 1171 539 1163 q 507 1179 526 1179 l 500 1179 q 475 1174 482 1179 q 464 1149 468 1168 l 463 1142 q 461 1129 461 1138 q 468 1111 461 1117 q 490 1106 475 1106 "},"a":{"ha":694,"x_min":26,"x_max":597,"o":"m 254 -19 q 457 17 372 -19 q 502 46 489 31 q 521 97 515 61 l 560 318 q 576 411 564 342 q 590 517 588 481 q 545 674 597 617 q 379 732 493 732 q 225 699 288 732 q 113 596 163 665 q 108 583 108 588 q 117 571 108 575 l 139 561 q 149 560 146 558 q 158 568 153 561 q 249 649 199 621 q 369 678 299 678 q 496 635 457 678 q 532 518 535 593 q 518 417 532 493 l 513 385 q 431 396 485 390 q 319 401 376 401 q 26 157 26 401 q 78 26 26 71 q 254 -19 131 -19 m 258 31 q 126 64 165 31 q 86 164 86 97 q 144 305 86 257 q 313 353 203 353 q 504 335 410 353 l 464 111 q 452 77 460 86 q 422 60 444 68 q 258 31 343 31 "},"á":{"ha":694,"x_min":26,"x_max":597,"o":"m 254 -19 q 457 17 372 -19 q 502 46 489 31 q 521 97 515 61 l 560 318 q 576 411 564 342 q 590 517 588 481 q 545 674 597 617 q 379 732 493 732 q 225 699 288 732 q 113 596 163 665 q 108 583 108 588 q 117 571 108 575 l 139 561 q 149 560 146 558 q 158 568 153 561 q 249 649 199 621 q 369 678 299 678 q 496 635 457 678 q 532 518 535 593 q 518 417 532 493 l 513 385 q 431 396 485 390 q 319 401 376 401 q 26 157 26 401 q 78 26 26 71 q 254 -19 131 -19 m 258 31 q 126 64 165 31 q 86 164 86 97 q 144 305 86 257 q 313 353 203 353 q 504 335 410 353 l 464 111 q 452 77 460 86 q 422 60 444 68 q 258 31 343 31 m 310 858 l 317 847 q 326 842 321 842 q 338 844 333 842 l 568 986 q 574 993 574 988 q 571 1006 575 999 l 560 1021 q 546 1029 554 1029 q 533 1025 540 1029 l 314 878 q 307 867 307 874 q 310 858 307 864 "},"ă":{"ha":694,"x_min":26,"x_max":621,"o":"m 254 -19 q 457 17 372 -19 q 502 46 489 31 q 521 97 515 61 l 560 318 q 576 411 564 342 q 590 517 588 481 q 545 674 597 617 q 379 732 493 732 q 225 699 288 732 q 113 596 163 665 q 108 583 108 588 q 117 571 108 575 l 139 561 q 149 560 146 558 q 158 568 153 561 q 249 649 199 621 q 369 678 299 678 q 496 635 457 678 q 532 518 535 593 q 518 417 532 493 l 513 385 q 431 396 485 390 q 319 401 376 401 q 26 157 26 401 q 78 26 26 71 q 254 -19 131 -19 m 258 31 q 126 64 165 31 q 86 164 86 97 q 144 305 86 257 q 313 353 203 353 q 504 335 410 353 l 464 111 q 452 77 460 86 q 422 60 444 68 q 258 31 343 31 m 407 842 q 529 879 479 842 q 617 994 579 917 q 620 1006 621 1003 q 613 1011 619 1010 l 588 1019 q 571 1014 576 1024 q 502 918 539 947 q 410 889 465 889 q 292 1010 296 889 q 282 1021 288 1021 l 276 1019 l 253 1014 q 244 1004 244 1013 l 246 999 q 407 842 254 842 "},"â":{"ha":694,"x_min":26,"x_max":606,"o":"m 254 -19 q 457 17 372 -19 q 502 46 489 31 q 521 97 515 61 l 560 318 q 576 411 564 342 q 590 517 588 481 q 545 674 597 617 q 379 732 493 732 q 225 699 288 732 q 113 596 163 665 q 108 583 108 588 q 117 571 108 575 l 139 561 q 149 560 146 558 q 158 568 153 561 q 249 649 199 621 q 369 678 299 678 q 496 635 457 678 q 532 518 535 593 q 518 417 532 493 l 513 385 q 431 396 485 390 q 319 401 376 401 q 26 157 26 401 q 78 26 26 71 q 254 -19 131 -19 m 258 31 q 126 64 165 31 q 86 164 86 97 q 144 305 86 257 q 313 353 203 353 q 504 335 410 353 l 464 111 q 452 77 460 86 q 422 60 444 68 q 258 31 343 31 m 217 836 l 243 836 q 258 838 251 836 q 271 844 264 839 l 432 978 l 544 847 q 553 838 549 840 q 568 836 557 836 l 594 836 q 606 842 606 836 q 603 849 606 846 l 467 1008 q 456 1019 461 1017 q 442 1021 451 1021 l 429 1021 q 415 1019 419 1021 q 401 1008 411 1017 l 208 850 q 204 841 201 846 q 217 836 207 836 "},"ä":{"ha":694,"x_min":26,"x_max":597,"o":"m 254 -19 q 457 17 372 -19 q 502 46 489 31 q 521 97 515 61 l 560 318 q 576 411 564 342 q 590 517 588 481 q 545 674 597 617 q 379 732 493 732 q 225 699 288 732 q 113 596 163 665 q 108 583 108 588 q 117 571 108 575 l 139 561 q 149 560 146 558 q 158 568 153 561 q 249 649 199 621 q 369 678 299 678 q 496 635 457 678 q 532 518 535 593 q 518 417 532 493 l 513 385 q 431 396 485 390 q 319 401 376 401 q 26 157 26 401 q 78 26 26 71 q 254 -19 131 -19 m 258 31 q 126 64 165 31 q 86 164 86 97 q 144 305 86 257 q 313 353 203 353 q 504 335 410 353 l 464 111 q 452 77 460 86 q 422 60 444 68 q 258 31 343 31 m 292 894 l 299 894 q 326 901 318 894 q 339 928 333 908 l 340 936 q 336 964 343 956 q 310 972 329 972 l 301 972 q 276 965 283 972 q 264 939 268 958 l 263 932 q 260 917 260 921 q 292 894 260 894 m 531 894 l 539 894 q 566 901 558 894 q 578 928 574 908 l 579 936 q 581 949 581 940 q 574 967 581 961 q 549 972 567 972 l 542 972 q 515 965 522 972 q 503 939 507 958 l 501 932 q 500 917 500 926 q 507 899 500 904 q 531 894 514 894 "},"à":{"ha":694,"x_min":26,"x_max":597,"o":"m 254 -19 q 457 17 372 -19 q 502 46 489 31 q 521 97 515 61 l 560 318 q 576 411 564 342 q 590 517 588 481 q 545 674 597 617 q 379 732 493 732 q 225 699 288 732 q 113 596 163 665 q 108 583 108 588 q 117 571 108 575 l 139 561 q 149 560 146 558 q 158 568 153 561 q 249 649 199 621 q 369 678 299 678 q 496 635 457 678 q 532 518 535 593 q 518 417 532 493 l 513 385 q 431 396 485 390 q 319 401 376 401 q 26 157 26 401 q 78 26 26 71 q 254 -19 131 -19 m 258 31 q 126 64 165 31 q 86 164 86 97 q 144 305 86 257 q 313 353 203 353 q 504 335 410 353 l 464 111 q 452 77 460 86 q 422 60 444 68 q 258 31 343 31 m 272 988 l 451 847 q 465 843 460 843 q 475 847 471 843 l 485 856 q 482 878 496 867 l 317 1024 q 300 1032 306 1032 q 288 1026 293 1032 l 269 1010 q 264 999 264 1004 q 272 988 264 992 "},"ā":{"ha":694,"x_min":26,"x_max":597,"o":"m 254 -19 q 457 17 372 -19 q 502 46 489 31 q 521 97 515 61 l 560 318 q 576 411 564 342 q 590 517 588 481 q 545 674 597 617 q 379 732 493 732 q 225 699 288 732 q 113 596 163 665 q 108 583 108 588 q 117 571 108 575 l 139 561 q 149 560 146 558 q 158 568 153 561 q 249 649 199 621 q 369 678 299 678 q 496 635 457 678 q 532 518 535 593 q 518 417 532 493 l 513 385 q 431 396 485 390 q 319 401 376 401 q 26 157 26 401 q 78 26 26 71 q 254 -19 131 -19 m 258 31 q 126 64 165 31 q 86 164 86 97 q 144 305 86 257 q 313 353 203 353 q 504 335 410 353 l 464 111 q 452 77 460 86 q 422 60 444 68 q 258 31 343 31 m 264 900 l 572 900 q 589 915 585 900 l 592 929 q 590 942 593 939 q 578 946 586 946 l 274 946 q 259 943 264 946 q 253 932 254 940 l 250 918 q 264 900 247 900 "},"ą":{"ha":694,"x_min":22,"x_max":594,"o":"m 342 -343 q 458 -297 404 -343 q 463 -291 463 -294 q 463 -282 464 -287 l 456 -261 q 444 -256 451 -253 q 361 -296 404 -296 q 317 -251 317 -296 q 362 -131 317 -204 q 485 25 407 -58 q 518 99 508 51 q 537 206 528 157 q 553 296 546 254 q 577 435 568 383 q 588 517 586 486 q 542 674 594 617 q 376 732 490 732 q 222 699 285 732 q 110 596 160 665 q 104 583 104 590 q 114 571 104 575 l 135 561 q 146 560 142 558 q 156 568 150 561 q 246 649 196 621 q 367 678 296 678 q 493 635 454 678 q 529 518 532 593 q 515 417 529 493 l 510 385 q 427 396 482 390 q 317 401 372 401 q 22 157 22 401 q 75 26 22 71 q 251 -19 128 -19 q 422 8 346 -19 q 300 -149 343 -76 q 263 -274 257 -222 q 287 -326 265 -310 q 342 -343 308 -343 m 256 31 q 123 64 163 31 q 83 164 83 97 q 142 305 83 257 q 310 353 200 353 q 501 335 407 353 l 461 111 q 449 78 457 88 q 419 60 440 68 q 256 31 347 31 "},"å":{"ha":694,"x_min":26,"x_max":597,"o":"m 254 -19 q 457 17 372 -19 q 502 46 489 31 q 521 97 515 61 l 560 318 q 576 411 564 342 q 590 517 588 481 q 545 674 597 617 q 379 732 493 732 q 225 699 288 732 q 113 596 163 665 q 108 583 108 588 q 117 571 108 575 l 139 561 q 149 560 146 558 q 158 568 153 561 q 249 649 199 621 q 369 678 299 678 q 496 635 457 678 q 532 518 535 593 q 518 417 532 493 l 513 385 q 431 396 485 390 q 319 401 376 401 q 26 157 26 401 q 78 26 26 71 q 254 -19 131 -19 m 258 31 q 126 64 165 31 q 86 164 86 97 q 144 305 86 257 q 313 353 203 353 q 504 335 410 353 l 464 111 q 452 77 460 86 q 422 60 444 68 q 258 31 343 31 m 406 801 q 506 844 467 801 q 546 954 546 888 q 517 1031 546 1003 q 440 1060 489 1060 q 336 1017 378 1060 q 294 908 294 975 q 324 831 294 860 q 406 801 354 801 m 408 836 q 351 856 372 836 q 331 911 331 876 q 362 992 331 960 q 439 1025 393 1025 q 493 1006 474 1025 q 513 951 513 986 q 511 933 513 940 q 476 863 504 889 q 408 836 447 836 "},"ǻ":{"ha":651,"x_min":26,"x_max":597,"o":"m 315 1115 l 319 1107 q 332 1100 324 1100 q 339 1101 336 1100 l 568 1164 q 574 1178 581 1167 l 565 1192 q 550 1200 558 1200 q 542 1199 544 1200 l 321 1131 q 314 1121 314 1128 l 315 1115 m 403 807 q 503 850 464 807 q 543 960 543 893 q 515 1037 543 1008 q 438 1065 486 1065 q 341 1028 381 1065 q 293 933 301 992 l 292 915 q 321 835 292 864 q 403 807 350 807 m 406 840 q 348 861 369 840 q 326 917 326 882 q 328 933 326 928 q 365 1004 335 978 q 438 1031 394 1031 q 490 1010 471 1031 q 510 957 510 990 q 480 873 510 906 q 406 840 450 840 m 254 -19 q 457 17 372 -19 q 502 46 489 31 q 521 97 515 61 l 560 318 q 576 411 564 342 q 590 517 588 481 q 545 674 597 617 q 379 732 493 732 q 225 699 288 732 q 113 596 163 665 q 108 583 108 588 q 117 571 108 575 l 139 561 q 149 560 146 558 q 158 568 153 561 q 249 649 199 621 q 369 678 299 678 q 496 635 457 678 q 532 518 535 593 q 518 417 532 493 l 513 385 q 431 396 485 390 q 319 401 376 401 q 26 157 26 401 q 78 26 26 71 q 254 -19 131 -19 m 258 31 q 126 64 165 31 q 86 164 86 97 q 144 305 86 257 q 313 353 203 353 q 504 335 410 353 l 464 111 q 452 77 460 86 q 422 60 444 68 q 258 31 343 31 "},"ã":{"ha":694,"x_min":26,"x_max":621,"o":"m 254 -19 q 457 17 372 -19 q 502 46 489 31 q 521 97 515 61 l 560 318 q 576 411 564 342 q 590 517 588 481 q 545 674 597 617 q 379 732 493 732 q 225 699 288 732 q 113 596 163 665 q 108 583 108 588 q 117 571 108 575 l 139 561 q 149 560 146 558 q 158 568 153 561 q 249 649 199 621 q 369 678 299 678 q 496 635 457 678 q 532 518 535 593 q 518 417 532 493 l 513 385 q 431 396 485 390 q 319 401 376 401 q 26 157 26 401 q 78 26 26 71 q 254 -19 131 -19 m 258 31 q 126 64 165 31 q 86 164 86 97 q 144 305 86 257 q 313 353 203 353 q 504 335 410 353 l 464 111 q 452 77 460 86 q 422 60 444 68 q 258 31 343 31 m 229 857 l 249 857 q 258 868 256 857 q 288 934 271 911 q 338 957 304 957 q 373 947 358 957 q 410 913 388 936 q 453 872 432 886 q 507 857 475 857 q 585 890 554 857 q 619 982 615 924 q 619 997 621 993 q 611 1000 617 1000 l 590 1000 q 579 990 581 1000 q 557 926 579 951 q 501 900 535 900 q 467 911 482 900 q 433 943 451 922 q 387 985 408 971 q 332 1000 365 1000 q 257 968 283 1000 q 218 876 231 936 q 229 857 217 857 "},"æ":{"ha":1063,"x_min":24,"x_max":993,"o":"m 238 -19 q 461 83 375 -19 q 522 8 478 35 q 638 -19 567 -19 q 802 23 733 -19 q 921 142 871 65 q 925 151 925 149 q 918 161 925 158 l 896 174 q 876 171 885 182 q 640 26 788 26 q 529 63 564 26 q 494 167 494 99 q 501 236 494 194 l 519 333 q 703 304 615 304 q 905 365 824 304 q 990 553 986 425 q 935 684 993 636 q 771 732 876 732 q 631 695 688 732 q 538 589 574 658 q 493 694 532 657 q 367 732 454 732 q 219 697 281 732 q 110 592 157 663 q 107 582 106 586 q 115 572 108 578 l 133 563 q 144 560 140 560 q 153 567 149 561 q 245 653 196 625 q 364 681 294 681 q 467 649 438 681 q 497 557 497 617 q 490 481 497 525 l 474 385 q 419 394 465 386 q 318 403 374 403 q 98 343 172 403 q 24 160 24 283 q 238 -19 24 -19 m 700 350 q 620 357 658 350 q 528 378 582 364 l 540 450 q 614 624 560 564 q 768 685 668 685 q 892 648 853 685 q 931 550 931 611 q 875 409 931 468 q 700 350 819 350 m 244 31 q 82 164 82 31 q 140 306 82 258 q 314 354 199 354 q 414 347 369 354 q 465 338 458 339 l 449 243 q 440 160 440 200 q 442 135 440 142 q 244 31 376 31 "},"ǽ":{"ha":1063,"x_min":24,"x_max":993,"o":"m 238 -19 q 461 83 375 -19 q 522 8 478 35 q 638 -19 567 -19 q 802 23 733 -19 q 921 142 871 65 q 925 151 925 149 q 918 161 925 158 l 896 174 q 876 171 885 182 q 640 26 788 26 q 529 63 564 26 q 494 167 494 99 q 501 236 494 194 l 519 333 q 703 304 615 304 q 905 365 824 304 q 990 553 986 425 q 935 684 993 636 q 771 732 876 732 q 631 695 688 732 q 538 589 574 658 q 493 694 532 657 q 367 732 454 732 q 219 697 281 732 q 110 592 157 663 q 107 582 106 586 q 115 572 108 578 l 133 563 q 144 560 140 560 q 153 567 149 561 q 245 653 196 625 q 364 681 294 681 q 467 649 438 681 q 497 557 497 617 q 490 481 497 525 l 474 385 q 419 394 465 386 q 318 403 374 403 q 98 343 172 403 q 24 160 24 283 q 238 -19 24 -19 m 700 350 q 620 357 658 350 q 528 378 582 364 l 540 450 q 614 624 560 564 q 768 685 668 685 q 892 648 853 685 q 931 550 931 611 q 875 409 931 468 q 700 350 819 350 m 244 31 q 82 164 82 31 q 140 306 82 258 q 314 354 199 354 q 414 347 369 354 q 465 338 458 339 l 449 243 q 440 160 440 200 q 442 135 440 142 q 244 31 376 31 m 489 858 l 496 847 q 506 842 500 842 q 517 844 513 842 l 747 986 q 753 993 753 988 q 750 1006 754 999 l 739 1021 q 725 1029 733 1029 q 713 1025 719 1029 l 493 878 q 486 867 486 874 q 489 858 486 864 "},"b":{"ha":733,"x_min":44,"x_max":639,"o":"m 285 -19 q 494 51 417 -19 q 596 257 572 122 l 632 461 q 639 533 639 503 q 583 681 639 629 q 422 732 528 732 q 208 679 318 732 l 267 1010 q 254 1028 271 1028 l 225 1028 q 208 1014 210 1028 l 47 99 q 44 72 44 79 q 53 45 44 56 q 85 22 63 35 q 169 -8 118 4 q 285 -19 221 -19 m 286 36 q 197 45 238 36 q 131 67 157 54 q 112 81 117 75 q 107 94 107 86 q 110 114 107 97 l 199 622 q 411 675 304 675 q 578 525 578 675 q 572 464 578 493 l 538 261 q 286 36 500 36 "},"c":{"ha":701,"x_min":46,"x_max":629,"o":"m 275 -19 q 450 26 382 -19 q 568 171 518 72 q 572 188 572 182 q 564 199 572 194 l 538 207 q 524 208 528 210 q 514 194 521 206 q 415 72 467 110 q 279 35 364 35 q 149 76 192 35 q 106 194 106 118 q 110 247 106 218 l 149 463 q 231 621 167 564 q 397 678 294 678 q 525 641 485 678 q 575 522 565 604 q 586 508 579 508 l 593 510 l 618 518 q 629 531 629 522 l 629 536 q 565 683 621 633 q 396 732 510 732 q 190 663 268 732 q 90 465 113 593 l 53 250 q 46 182 46 208 q 104 33 46 85 q 275 -19 163 -19 "},"ć":{"ha":701,"x_min":46,"x_max":629,"o":"m 275 -19 q 450 26 382 -19 q 568 171 518 72 q 572 188 572 182 q 564 199 572 194 l 538 207 q 524 208 528 210 q 514 194 521 206 q 415 72 467 110 q 279 35 364 35 q 149 76 192 35 q 106 194 106 118 q 110 247 106 218 l 149 463 q 231 621 167 564 q 397 678 294 678 q 525 641 485 678 q 575 522 565 604 q 586 508 579 508 l 593 510 l 618 518 q 629 531 629 522 l 629 536 q 565 683 621 633 q 396 732 510 732 q 190 663 268 732 q 90 465 113 593 l 53 250 q 46 182 46 208 q 104 33 46 85 q 275 -19 163 -19 m 329 858 l 336 847 q 346 842 340 842 q 357 844 353 842 l 588 986 q 594 993 593 988 q 590 1006 594 999 l 579 1021 q 565 1029 574 1029 q 553 1025 560 1029 l 333 878 q 326 867 326 874 q 329 858 326 864 "},"č":{"ha":701,"x_min":46,"x_max":646,"o":"m 275 -19 q 450 26 382 -19 q 568 171 518 72 q 572 188 572 182 q 564 199 572 194 l 538 207 q 524 208 528 210 q 514 194 521 206 q 415 72 467 110 q 279 35 364 35 q 149 76 192 35 q 106 194 106 118 q 110 247 106 218 l 149 463 q 231 621 167 564 q 397 678 294 678 q 525 641 485 678 q 575 522 565 604 q 586 508 579 508 l 593 510 l 618 518 q 629 531 629 522 l 629 536 q 565 683 621 633 q 396 732 510 732 q 190 663 268 732 q 90 465 113 593 l 53 250 q 46 182 46 208 q 104 33 46 85 q 275 -19 163 -19 m 410 835 l 418 835 q 434 837 429 835 q 451 850 439 839 l 642 1006 q 644 1015 646 1010 q 633 1019 643 1019 l 606 1019 q 592 1018 597 1019 q 581 1011 586 1017 l 419 876 l 307 1010 q 298 1018 301 1017 q 283 1019 294 1019 l 257 1019 q 244 1014 244 1019 q 249 1007 244 1011 l 382 850 q 394 838 389 840 q 410 835 400 835 "},"ç":{"ha":701,"x_min":46,"x_max":629,"o":"m 214 -339 q 330 -303 286 -339 q 374 -197 374 -267 q 355 -137 374 -160 q 301 -112 336 -115 q 271 -110 292 -110 q 247 -111 254 -110 l 290 -19 q 456 28 392 -17 q 568 171 521 74 q 572 188 572 182 q 564 199 572 194 l 538 207 q 524 208 528 210 q 514 194 521 206 q 421 74 475 113 q 279 35 367 35 q 150 77 194 35 q 106 196 106 119 q 110 247 106 221 l 149 463 q 231 621 167 564 q 397 678 294 678 q 525 641 485 678 q 575 522 565 604 q 586 508 576 508 l 593 510 l 618 518 q 629 531 629 522 l 629 536 q 565 683 621 633 q 396 732 510 732 q 190 663 268 732 q 90 465 113 593 l 53 250 q 46 181 46 208 q 98 38 46 90 q 250 -19 150 -14 l 194 -129 q 193 -142 190 -136 q 204 -147 196 -147 l 208 -147 q 258 -142 239 -142 q 319 -200 319 -144 q 290 -276 319 -251 q 210 -300 260 -300 q 164 -291 182 -300 q 122 -265 146 -282 q 117 -265 119 -264 q 113 -271 114 -267 l 110 -287 q 118 -304 108 -299 q 214 -339 156 -339 "},"ĉ":{"ha":701,"x_min":46,"x_max":629,"o":"m 275 -19 q 450 26 382 -19 q 568 171 518 72 q 572 188 572 182 q 564 199 572 194 l 538 207 q 524 208 528 210 q 514 194 521 206 q 415 72 467 110 q 279 35 364 35 q 149 76 192 35 q 106 194 106 118 q 110 247 106 218 l 149 463 q 231 621 167 564 q 397 678 294 678 q 525 641 485 678 q 575 522 565 604 q 586 508 579 508 l 593 510 l 618 518 q 629 531 629 522 l 629 536 q 565 683 621 633 q 396 732 510 732 q 190 663 268 732 q 90 465 113 593 l 53 250 q 46 182 46 208 q 104 33 46 85 q 275 -19 163 -19 m 236 836 l 263 836 q 277 838 271 836 q 290 844 283 839 l 451 978 l 564 847 q 572 838 568 840 q 588 836 576 836 l 614 836 q 625 842 625 836 q 622 849 625 846 l 486 1008 q 476 1019 481 1017 q 461 1021 471 1021 l 449 1021 q 435 1019 439 1021 q 421 1008 431 1017 l 228 850 q 224 841 221 846 q 236 836 226 836 "},"ċ":{"ha":701,"x_min":46,"x_max":629,"o":"m 275 -19 q 450 26 382 -19 q 568 171 518 72 q 572 188 572 182 q 564 199 572 194 l 538 207 q 524 208 528 210 q 514 194 521 206 q 415 72 467 110 q 279 35 364 35 q 149 76 192 35 q 106 194 106 118 q 110 247 106 218 l 149 463 q 231 621 167 564 q 397 678 294 678 q 525 641 485 678 q 575 522 565 604 q 586 508 579 508 l 593 510 l 618 518 q 629 531 629 522 l 629 536 q 565 683 621 633 q 396 732 510 732 q 190 663 268 732 q 90 465 113 593 l 53 250 q 46 182 46 208 q 104 33 46 85 q 275 -19 163 -19 m 426 897 l 447 897 q 472 904 465 897 q 483 932 479 911 l 485 942 q 486 957 486 947 q 458 981 486 981 l 438 981 q 414 974 421 981 q 403 946 407 967 l 400 935 q 399 919 399 929 q 405 902 399 907 q 426 897 411 897 "},"d":{"ha":733,"x_min":47,"x_max":713,"o":"m 279 -19 q 392 -8 338 -19 q 486 19 447 3 q 529 47 518 32 q 546 96 540 61 l 708 1010 q 696 1028 713 1028 l 667 1028 q 655 1024 658 1028 q 649 1013 651 1021 l 589 678 q 389 732 499 732 q 190 664 265 732 q 90 465 114 596 l 56 263 q 47 183 47 219 q 106 32 47 83 q 279 -19 164 -19 m 282 36 q 108 189 108 36 q 115 260 108 229 l 150 460 q 230 622 168 568 q 392 676 292 676 q 581 624 490 676 l 492 117 q 480 86 488 94 q 449 67 472 78 q 282 36 376 36 "},"ð":{"ha":749,"x_min":46,"x_max":693,"o":"m 282 -19 q 494 47 415 -19 q 596 242 572 114 l 651 560 q 667 717 667 651 q 599 933 667 860 l 686 1008 q 686 1024 693 1017 l 672 1036 q 658 1036 665 1044 l 569 958 q 299 1029 483 1028 q 289 1026 292 1029 q 283 1014 286 1024 l 279 992 q 297 975 275 975 q 528 914 451 975 l 408 811 q 408 796 400 804 l 421 785 q 426 780 424 781 q 435 785 429 779 l 556 892 q 611 715 611 831 q 597 581 611 664 q 528 674 582 640 q 392 708 475 708 q 188 640 265 708 q 88 446 110 572 l 51 244 q 46 181 46 215 q 106 33 46 85 q 282 -19 165 -19 m 288 36 q 151 76 197 36 q 106 192 106 117 q 110 242 106 215 l 146 440 q 225 597 163 542 q 393 653 288 653 q 529 611 482 653 q 576 494 576 569 q 572 446 576 471 l 536 244 q 455 91 519 146 q 288 36 390 36 "},"ď":{"ha":811,"x_min":47,"x_max":897,"o":"m 278 -19 q 391 -8 336 -19 q 485 19 446 3 q 528 47 517 32 q 544 96 539 61 l 707 1010 q 694 1028 711 1028 l 665 1028 q 653 1024 657 1028 q 647 1013 650 1021 l 588 678 q 388 732 497 732 q 188 664 264 732 q 90 465 113 596 l 54 263 q 47 185 47 228 q 278 -19 47 -19 m 758 794 l 772 794 q 785 797 782 794 q 794 810 789 800 l 889 1008 q 874 1028 897 1028 l 850 1028 q 836 1025 840 1028 q 829 1013 832 1022 l 747 810 q 758 794 742 794 m 281 36 q 107 192 107 36 q 114 260 107 218 l 149 460 q 390 676 189 676 q 579 624 489 676 l 490 117 q 478 86 486 94 q 447 67 471 78 q 281 36 375 36 "},"đ":{"ha":729,"x_min":47,"x_max":794,"o":"m 279 -19 q 392 -8 338 -19 q 486 19 447 3 q 529 47 518 32 q 546 96 540 61 l 682 858 l 776 858 q 786 860 783 858 q 790 871 789 863 l 793 883 q 792 895 794 892 q 782 899 790 899 l 689 899 l 708 1010 q 696 1028 713 1028 l 667 1028 q 655 1024 658 1028 q 649 1013 651 1021 l 629 899 l 428 899 q 418 897 421 899 q 414 888 415 894 l 411 874 q 411 862 408 865 q 422 858 414 858 l 622 858 l 589 678 q 389 732 499 732 q 190 664 265 732 q 90 465 114 596 l 56 263 q 47 183 47 219 q 106 32 47 83 q 279 -19 164 -19 m 282 36 q 108 189 108 36 q 115 260 108 229 l 150 460 q 230 622 168 568 q 392 676 292 676 q 581 624 490 676 l 492 117 q 480 86 488 94 q 449 67 472 78 q 282 36 376 36 "},"e":{"ha":704,"x_min":44,"x_max":632,"o":"m 401 732 q 189 657 271 732 q 83 444 107 582 l 76 406 q 63 327 71 369 q 49 236 56 285 q 44 181 44 207 q 100 33 44 85 q 267 -19 156 -19 q 438 23 369 -19 q 558 142 507 65 q 554 163 567 156 l 533 174 q 514 171 521 179 q 269 26 425 26 q 144 67 186 26 q 103 181 103 107 q 108 239 103 211 l 122 318 q 329 304 210 304 q 538 360 460 304 q 629 522 615 415 q 632 558 632 547 q 572 688 632 643 q 401 732 511 732 m 569 522 q 492 393 556 436 q 322 350 428 350 q 131 364 215 350 l 146 449 q 231 623 164 561 q 396 685 297 685 q 526 652 481 685 q 572 556 572 619 q 569 522 572 547 "},"é":{"ha":704,"x_min":44,"x_max":632,"o":"m 401 732 q 189 657 271 732 q 83 444 107 582 l 76 406 q 63 327 71 369 q 49 236 56 285 q 44 181 44 207 q 100 33 44 85 q 267 -19 156 -19 q 438 23 369 -19 q 558 142 507 65 q 554 163 567 156 l 533 174 q 514 171 521 179 q 269 26 425 26 q 144 67 186 26 q 103 181 103 107 q 108 239 103 211 l 122 318 q 329 304 210 304 q 538 360 460 304 q 629 522 615 415 q 632 558 632 547 q 572 688 632 643 q 401 732 511 732 m 569 522 q 492 393 556 436 q 322 350 428 350 q 131 364 215 350 l 146 449 q 231 623 164 561 q 396 685 297 685 q 526 652 481 685 q 572 556 572 619 q 569 522 572 547 m 326 860 l 333 849 q 343 843 338 843 q 354 846 350 843 l 585 988 q 591 994 590 989 q 588 1007 592 1000 l 576 1022 q 563 1031 571 1031 q 550 1026 557 1031 l 331 879 q 324 868 324 875 q 326 860 324 865 "},"ĕ":{"ha":704,"x_min":44,"x_max":639,"o":"m 401 732 q 189 657 271 732 q 83 444 107 582 l 76 406 q 63 327 71 369 q 49 236 56 285 q 44 181 44 207 q 100 33 44 85 q 267 -19 156 -19 q 438 23 369 -19 q 558 142 507 65 q 554 163 567 156 l 533 174 q 514 171 521 179 q 269 26 425 26 q 144 67 186 26 q 103 181 103 107 q 108 239 103 211 l 122 318 q 329 304 210 304 q 538 360 460 304 q 629 522 615 415 q 632 558 632 547 q 572 688 632 643 q 401 732 511 732 m 569 522 q 492 393 556 436 q 322 350 428 350 q 131 364 215 350 l 146 449 q 231 623 164 561 q 396 685 297 685 q 526 652 481 685 q 572 556 572 619 q 569 522 572 547 m 425 843 q 547 881 497 843 q 635 996 597 918 q 638 1008 639 1004 q 631 1013 638 1011 l 606 1021 q 589 1015 594 1025 q 520 919 557 949 q 428 890 483 890 q 310 1011 314 890 q 300 1022 306 1022 l 294 1021 l 271 1015 q 263 1006 263 1014 l 264 1000 q 425 843 272 843 "},"ě":{"ha":704,"x_min":44,"x_max":644,"o":"m 401 732 q 189 657 271 732 q 83 444 107 582 l 76 406 q 63 327 71 369 q 49 236 56 285 q 44 181 44 207 q 100 33 44 85 q 267 -19 156 -19 q 438 23 369 -19 q 558 142 507 65 q 554 163 567 156 l 533 174 q 514 171 521 179 q 269 26 425 26 q 144 67 186 26 q 103 181 103 107 q 108 239 103 211 l 122 318 q 329 304 210 304 q 538 360 460 304 q 629 522 615 415 q 632 558 632 547 q 572 688 632 643 q 401 732 511 732 m 569 522 q 492 393 556 436 q 322 350 428 350 q 131 364 215 350 l 146 449 q 231 623 164 561 q 396 685 297 685 q 526 652 481 685 q 572 556 572 619 q 569 522 572 547 m 408 836 l 417 836 q 433 838 428 836 q 450 851 438 840 l 640 1007 q 643 1016 644 1011 q 632 1021 642 1021 l 604 1021 q 590 1019 596 1021 q 579 1013 585 1018 l 418 878 l 306 1011 q 297 1019 300 1018 q 282 1021 293 1021 l 256 1021 q 243 1015 243 1021 q 247 1008 243 1013 l 381 851 q 393 839 388 842 q 408 836 399 836 "},"ê":{"ha":704,"x_min":44,"x_max":632,"o":"m 401 732 q 189 657 271 732 q 83 444 107 582 l 76 406 q 63 327 71 369 q 49 236 56 285 q 44 181 44 207 q 100 33 44 85 q 267 -19 156 -19 q 438 23 369 -19 q 558 142 507 65 q 554 163 567 156 l 533 174 q 514 171 521 179 q 269 26 425 26 q 144 67 186 26 q 103 181 103 107 q 108 239 103 211 l 122 318 q 329 304 210 304 q 538 360 460 304 q 629 522 615 415 q 632 558 632 547 q 572 688 632 643 q 401 732 511 732 m 569 522 q 492 393 556 436 q 322 350 428 350 q 131 364 215 350 l 146 449 q 231 623 164 561 q 396 685 297 685 q 526 652 481 685 q 572 556 572 619 q 569 522 572 547 m 233 838 l 260 838 q 274 839 268 838 q 288 846 281 840 l 449 979 l 561 849 q 569 840 565 842 q 585 838 574 838 l 611 838 q 622 843 622 838 q 619 850 622 847 l 483 1010 q 473 1020 478 1018 q 458 1022 468 1022 l 446 1022 q 432 1020 436 1022 q 418 1010 428 1018 l 225 851 q 221 842 218 847 q 233 838 224 838 "},"ë":{"ha":704,"x_min":44,"x_max":632,"o":"m 401 732 q 189 657 271 732 q 83 444 107 582 l 76 406 q 63 327 71 369 q 49 236 56 285 q 44 181 44 207 q 100 33 44 85 q 267 -19 156 -19 q 438 23 369 -19 q 558 142 507 65 q 554 163 567 156 l 533 174 q 514 171 521 179 q 269 26 425 26 q 144 67 186 26 q 103 181 103 107 q 108 239 103 211 l 122 318 q 329 304 210 304 q 538 360 460 304 q 629 522 615 415 q 632 558 632 547 q 572 688 632 643 q 401 732 511 732 m 569 522 q 492 393 556 436 q 322 350 428 350 q 131 364 215 350 l 146 449 q 231 623 164 561 q 396 685 297 685 q 526 652 481 685 q 572 556 572 619 q 569 522 572 547 m 308 896 l 315 896 q 342 903 335 896 q 356 929 350 910 l 357 938 q 353 965 360 957 q 326 974 346 974 l 318 974 q 292 967 300 974 q 281 940 285 960 l 279 933 q 276 918 276 922 q 308 896 276 896 m 547 896 l 556 896 q 583 903 575 896 q 594 929 590 910 l 596 938 q 597 950 597 942 q 590 968 597 963 q 565 974 583 974 l 558 974 q 531 967 539 974 q 519 940 524 960 l 518 933 q 517 918 517 928 q 524 901 517 906 q 547 896 531 896 "},"ė":{"ha":704,"x_min":44,"x_max":632,"o":"m 401 732 q 189 657 271 732 q 83 444 107 582 l 76 406 q 63 327 71 369 q 49 236 56 285 q 44 181 44 207 q 100 33 44 85 q 267 -19 156 -19 q 438 23 369 -19 q 558 142 507 65 q 554 163 567 156 l 533 174 q 514 171 521 179 q 269 26 425 26 q 144 67 186 26 q 103 181 103 107 q 108 239 103 211 l 122 318 q 329 304 210 304 q 538 360 460 304 q 629 522 615 415 q 632 558 632 547 q 572 688 632 643 q 401 732 511 732 m 569 522 q 492 393 556 436 q 322 350 428 350 q 131 364 215 350 l 146 449 q 231 623 164 561 q 396 685 297 685 q 526 652 481 685 q 572 556 572 619 q 569 522 572 547 m 424 899 l 444 899 q 469 906 463 899 q 481 933 476 913 l 482 943 q 483 958 483 949 q 456 982 483 982 l 435 982 q 411 975 418 982 q 400 947 404 968 l 397 936 q 396 921 396 931 q 402 903 396 908 q 424 899 408 899 "},"è":{"ha":704,"x_min":44,"x_max":632,"o":"m 401 732 q 189 657 271 732 q 83 444 107 582 l 76 406 q 63 327 71 369 q 49 236 56 285 q 44 181 44 207 q 100 33 44 85 q 267 -19 156 -19 q 438 23 369 -19 q 558 142 507 65 q 554 163 567 156 l 533 174 q 514 171 521 179 q 269 26 425 26 q 144 67 186 26 q 103 181 103 107 q 108 239 103 211 l 122 318 q 329 304 210 304 q 538 360 460 304 q 629 522 615 415 q 632 558 632 547 q 572 688 632 643 q 401 732 511 732 m 569 522 q 492 393 556 436 q 322 350 428 350 q 131 364 215 350 l 146 449 q 231 623 164 561 q 396 685 297 685 q 526 652 481 685 q 572 556 572 619 q 569 522 572 547 m 289 989 l 468 849 q 482 844 476 844 q 492 849 488 844 l 501 857 q 499 879 513 868 l 333 1025 q 317 1033 322 1033 q 304 1028 310 1033 l 286 1011 q 281 1000 281 1006 q 289 989 281 993 "},"ē":{"ha":704,"x_min":44,"x_max":632,"o":"m 401 732 q 189 657 271 732 q 83 444 107 582 l 76 406 q 63 327 71 369 q 49 236 56 285 q 44 181 44 207 q 100 33 44 85 q 267 -19 156 -19 q 438 23 369 -19 q 558 142 507 65 q 554 163 567 156 l 533 174 q 514 171 521 179 q 269 26 425 26 q 144 67 186 26 q 103 181 103 107 q 108 239 103 211 l 122 318 q 329 304 210 304 q 538 360 460 304 q 629 522 615 415 q 632 558 632 547 q 572 688 632 643 q 401 732 511 732 m 569 522 q 492 393 556 436 q 322 350 428 350 q 131 364 215 350 l 146 449 q 231 623 164 561 q 396 685 297 685 q 526 652 481 685 q 572 556 572 619 q 569 522 572 547 m 281 901 l 589 901 q 606 917 601 901 l 608 931 q 606 944 610 940 q 594 947 603 947 l 290 947 q 276 944 281 947 q 269 933 271 942 l 267 919 q 281 901 264 901 "},"ę":{"ha":717,"x_min":44,"x_max":632,"o":"m 325 -343 q 442 -296 389 -343 q 447 -287 447 -292 q 446 -282 446 -283 l 439 -262 q 435 -256 438 -258 q 429 -256 433 -254 q 344 -296 386 -296 q 312 -286 324 -296 q 300 -251 300 -276 q 345 -123 301 -187 q 474 39 389 -58 q 561 144 539 111 q 554 163 565 157 l 532 174 q 513 171 522 181 q 409 63 468 99 q 269 26 350 26 q 145 67 188 26 q 103 181 103 107 q 108 239 103 211 l 125 331 q 340 304 218 304 q 540 360 465 304 q 629 522 615 417 q 632 558 632 547 q 572 688 632 643 q 401 732 511 732 q 189 657 271 732 q 83 444 107 582 l 76 406 q 63 327 71 369 q 49 236 56 285 q 44 181 44 207 q 100 33 44 85 q 267 -19 156 -19 q 335 -12 300 -19 q 397 7 371 -6 q 286 -138 326 -65 q 246 -267 246 -211 q 267 -323 246 -303 q 325 -343 289 -343 m 338 350 q 131 375 219 350 l 146 449 q 231 623 165 561 q 397 685 297 685 q 527 653 482 685 q 572 557 572 621 q 569 522 572 547 q 495 393 557 436 q 338 350 433 350 "},"f":{"ha":447,"x_min":60,"x_max":507,"o":"m 90 0 l 118 0 q 131 3 128 0 q 136 15 135 7 l 250 657 l 426 657 q 438 660 435 657 q 444 674 442 664 l 447 694 q 435 711 451 711 l 260 711 l 267 756 q 305 888 282 842 q 368 952 328 933 q 478 971 408 971 q 494 974 490 971 q 499 986 497 976 l 503 1010 q 488 1028 507 1028 l 479 1028 q 340 1001 392 1026 q 258 920 288 976 q 208 760 228 864 l 200 711 l 85 711 q 72 708 76 711 q 67 697 68 706 l 61 674 q 63 660 60 664 q 75 657 65 657 l 190 657 l 78 18 q 79 4 76 8 q 90 0 82 0 "},"g":{"ha":731,"x_min":-11,"x_max":639,"o":"m 210 -351 q 417 -276 343 -351 q 517 -56 492 -200 l 636 614 q 639 640 639 633 q 630 670 639 660 q 599 690 621 681 q 511 721 563 710 q 399 732 460 732 q 189 663 265 732 q 89 453 113 593 l 54 257 q 47 181 47 211 q 97 39 47 88 q 250 -10 147 -10 q 476 38 374 -10 l 460 -54 q 377 -234 438 -172 q 210 -296 317 -296 q 101 -262 138 -296 q 43 -164 64 -228 q 32 -154 39 -154 q 25 -156 28 -154 l -3 -169 q -11 -181 -11 -174 q -8 -190 -11 -182 q 65 -309 14 -267 q 210 -351 117 -351 m 264 44 q 107 190 107 44 q 114 257 107 218 l 147 449 q 228 620 168 564 q 394 676 288 676 q 483 667 443 676 q 549 644 524 658 q 571 631 565 638 q 576 615 576 625 q 574 596 576 613 l 485 94 q 385 58 436 72 q 264 44 333 44 "},"ğ":{"ha":731,"x_min":-11,"x_max":650,"o":"m 210 -351 q 417 -276 343 -351 q 517 -56 492 -200 l 636 614 q 639 640 639 633 q 630 670 639 660 q 599 690 621 681 q 511 721 563 710 q 399 732 460 732 q 189 663 265 732 q 89 453 113 593 l 54 257 q 47 181 47 211 q 97 39 47 88 q 250 -10 147 -10 q 476 38 374 -10 l 460 -54 q 377 -234 438 -172 q 210 -296 317 -296 q 101 -262 138 -296 q 43 -164 64 -228 q 32 -154 39 -154 q 25 -156 28 -154 l -3 -169 q -11 -181 -11 -174 q -8 -190 -11 -182 q 65 -309 14 -267 q 210 -351 117 -351 m 264 44 q 107 190 107 44 q 114 257 107 218 l 147 449 q 228 620 168 564 q 394 676 288 676 q 483 667 443 676 q 549 644 524 658 q 571 631 565 638 q 576 615 576 625 q 574 596 576 613 l 485 94 q 385 58 436 72 q 264 44 333 44 m 436 842 q 558 879 508 842 q 646 994 608 917 q 649 1006 650 1003 q 642 1011 649 1010 l 617 1019 q 600 1014 606 1024 q 531 918 568 947 q 439 889 494 889 q 321 1010 325 889 q 311 1021 317 1021 l 306 1019 l 282 1014 q 274 1004 274 1013 l 275 999 q 436 842 283 842 "},"ĝ":{"ha":731,"x_min":-11,"x_max":639,"o":"m 210 -351 q 417 -276 343 -351 q 517 -56 492 -200 l 636 614 q 639 640 639 633 q 630 670 639 660 q 599 690 621 681 q 511 721 563 710 q 399 732 460 732 q 189 663 265 732 q 89 453 113 593 l 54 257 q 47 181 47 211 q 97 39 47 88 q 250 -10 147 -10 q 476 38 374 -10 l 460 -54 q 377 -234 438 -172 q 210 -296 317 -296 q 101 -262 138 -296 q 43 -164 64 -228 q 32 -154 39 -154 q 25 -156 28 -154 l -3 -169 q -11 -181 -11 -174 q -8 -190 -11 -182 q 65 -309 14 -267 q 210 -351 117 -351 m 264 44 q 107 190 107 44 q 114 257 107 218 l 147 449 q 228 620 168 564 q 394 676 288 676 q 483 667 443 676 q 549 644 524 658 q 571 631 565 638 q 576 615 576 625 q 574 596 576 613 l 485 94 q 385 58 436 72 q 264 44 333 44 m 246 836 l 272 836 q 287 838 281 836 q 300 844 293 839 l 461 978 l 574 847 q 582 838 578 840 q 597 836 586 836 l 624 836 q 635 842 635 836 q 632 849 635 846 l 496 1008 q 485 1019 490 1017 q 471 1021 481 1021 l 458 1021 q 444 1019 449 1021 q 431 1008 440 1017 l 238 850 q 233 841 231 846 q 246 836 236 836 "},"ģ":{"ha":731,"x_min":-11,"x_max":639,"o":"m 393 815 l 415 815 q 431 818 426 815 q 438 831 435 821 l 518 1007 q 507 1022 524 1022 l 490 1022 q 477 1020 481 1022 q 468 1008 474 1018 l 379 836 q 378 821 374 826 q 393 815 382 815 m 210 -351 q 417 -276 343 -351 q 517 -56 492 -200 l 636 614 q 639 640 639 633 q 630 670 639 660 q 599 690 621 681 q 511 721 563 710 q 399 732 460 732 q 189 663 265 732 q 89 453 113 593 l 54 257 q 47 181 47 211 q 97 39 47 88 q 250 -10 147 -10 q 476 38 374 -10 l 460 -54 q 377 -234 438 -172 q 210 -296 317 -296 q 101 -262 138 -296 q 43 -164 64 -228 q 32 -154 39 -154 q 25 -156 28 -154 l -3 -169 q -11 -181 -11 -174 q -8 -190 -11 -182 q 65 -309 14 -267 q 210 -351 117 -351 m 264 44 q 107 190 107 44 q 114 257 107 218 l 147 449 q 228 620 168 564 q 394 676 288 676 q 483 667 443 676 q 549 644 524 658 q 571 631 565 638 q 576 615 576 625 q 574 596 576 613 l 485 94 q 385 58 436 72 q 264 44 333 44 "},"ġ":{"ha":731,"x_min":-11,"x_max":639,"o":"m 210 -351 q 417 -276 343 -351 q 517 -56 492 -200 l 636 614 q 639 640 639 633 q 630 670 639 660 q 599 690 621 681 q 511 721 563 710 q 399 732 460 732 q 189 663 265 732 q 89 453 113 593 l 54 257 q 47 181 47 211 q 97 39 47 88 q 250 -10 147 -10 q 476 38 374 -10 l 460 -54 q 377 -234 438 -172 q 210 -296 317 -296 q 101 -262 138 -296 q 43 -164 64 -228 q 32 -154 39 -154 q 25 -156 28 -154 l -3 -169 q -11 -181 -11 -174 q -8 -190 -11 -182 q 65 -309 14 -267 q 210 -351 117 -351 m 264 44 q 107 190 107 44 q 114 257 107 218 l 147 449 q 228 620 168 564 q 394 676 288 676 q 483 667 443 676 q 549 644 524 658 q 571 631 565 638 q 576 615 576 625 q 574 596 576 613 l 485 94 q 385 58 436 72 q 264 44 333 44 m 436 897 l 457 897 q 482 904 475 897 q 493 932 489 911 l 494 942 q 496 957 496 947 q 468 981 496 981 l 447 981 q 424 974 431 981 q 413 946 417 967 l 410 935 q 408 919 408 929 q 415 902 408 907 q 436 897 421 897 "},"h":{"ha":751,"x_min":36,"x_max":639,"o":"m 51 0 l 78 0 q 90 3 86 0 q 96 15 94 6 l 206 626 q 422 676 306 676 q 540 640 501 676 q 579 531 579 604 q 572 463 579 504 l 494 18 q 506 0 492 0 l 535 0 q 547 3 543 0 q 553 14 551 6 l 632 464 q 639 543 639 499 q 436 732 639 732 q 214 683 315 732 l 272 1010 q 258 1028 276 1028 l 232 1028 q 219 1024 224 1028 q 213 1013 214 1021 l 38 17 q 51 0 36 0 "},"ħ":{"ha":750,"x_min":32,"x_max":638,"o":"m 49 0 l 75 0 q 89 3 85 0 q 94 15 93 6 l 203 626 q 421 676 306 676 q 539 640 501 676 q 576 529 576 603 q 571 463 576 496 l 492 18 q 494 4 492 8 q 504 0 496 0 l 533 0 q 551 14 549 0 l 631 464 q 638 542 638 510 q 435 732 638 732 q 213 683 314 732 l 244 867 l 442 867 q 452 869 449 867 q 457 879 456 871 l 458 892 q 458 903 460 900 q 447 907 456 907 l 251 907 l 269 1010 q 257 1028 274 1028 l 229 1028 q 217 1025 221 1028 q 211 1013 213 1022 l 192 907 l 115 907 q 106 905 108 907 q 101 894 103 903 l 99 881 q 100 869 97 872 q 111 867 103 867 l 185 867 l 36 17 q 49 0 32 0 "},"ĥ":{"ha":751,"x_min":36,"x_max":639,"o":"m 51 0 l 78 0 q 90 3 86 0 q 96 15 94 6 l 206 626 q 422 676 306 676 q 540 640 501 676 q 579 531 579 604 q 572 463 579 504 l 494 18 q 506 0 492 0 l 535 0 q 547 3 543 0 q 553 14 551 6 l 632 464 q 639 543 639 499 q 436 732 639 732 q 214 683 315 732 l 272 1010 q 258 1028 276 1028 l 232 1028 q 219 1024 224 1028 q 213 1013 214 1021 l 38 17 q 51 0 36 0 m 68 1082 l 94 1082 q 109 1083 103 1082 q 122 1090 115 1085 l 283 1224 l 396 1093 q 405 1084 400 1086 q 419 1082 410 1082 l 446 1082 q 457 1088 457 1082 q 454 1094 457 1092 l 318 1254 q 308 1265 313 1263 q 293 1267 303 1267 l 279 1267 q 265 1264 271 1267 q 253 1256 260 1261 l 60 1097 q 55 1087 53 1092 q 68 1082 57 1082 "},"i":{"ha":300,"x_min":35,"x_max":271,"o":"m 213 897 l 233 897 q 258 903 251 897 q 268 931 264 910 l 269 942 q 271 956 271 947 q 244 978 271 978 l 224 978 q 200 972 207 978 q 189 944 193 965 l 188 935 l 185 918 q 213 897 185 897 m 47 0 l 78 0 q 90 3 86 0 q 96 15 94 7 l 215 694 q 204 711 219 711 l 174 711 q 157 697 158 711 l 36 18 q 47 0 35 0 "},"ı":{"ha":300,"x_min":33,"x_max":219,"o":"m 49 0 l 76 0 q 90 3 86 0 q 96 15 93 7 l 215 694 q 203 711 219 711 l 175 711 q 157 697 158 711 l 36 18 q 49 0 33 0 "},"í":{"ha":300,"x_min":33,"x_max":364,"o":"m 121 840 l 129 831 q 139 825 133 825 q 149 828 144 825 l 354 963 q 364 972 364 968 q 358 983 364 975 l 349 997 q 333 1006 342 1006 q 318 1001 326 1006 l 124 858 q 117 851 117 854 q 121 840 117 847 m 49 0 l 76 0 q 90 3 86 0 q 96 15 93 7 l 215 694 q 203 711 219 711 l 175 711 q 157 697 158 711 l 36 18 q 49 0 33 0 "},"ĭ":{"ha":300,"x_min":33,"x_max":383,"o":"m 206 833 q 310 869 265 833 q 378 974 354 904 q 371 993 383 989 l 349 1000 q 339 1001 342 1001 q 333 993 336 1000 q 208 881 294 881 q 145 908 167 881 q 126 989 124 935 q 123 999 125 996 q 114 1001 121 1001 l 110 1001 l 86 994 q 79 986 79 992 l 79 982 q 206 833 82 833 m 49 0 l 76 0 q 90 3 86 0 q 96 15 93 7 l 215 694 q 203 711 219 711 l 175 711 q 157 697 158 711 l 36 18 q 49 0 33 0 "},"î":{"ha":300,"x_min":33,"x_max":361,"o":"m 68 835 l 92 835 q 100 834 96 835 q 109 835 104 833 q 119 842 114 836 l 233 965 l 303 844 q 310 836 306 838 q 329 835 315 835 l 350 835 q 361 839 361 835 l 358 846 l 271 989 q 258 1004 264 1001 q 242 1007 253 1007 l 233 1007 q 215 1005 221 1007 q 199 993 208 1003 l 58 849 q 56 839 54 843 q 68 835 58 835 m 49 0 l 76 0 q 90 3 86 0 q 96 15 93 7 l 215 694 q 203 711 219 711 l 175 711 q 157 697 158 711 l 36 18 q 49 0 33 0 "},"ï":{"ha":300,"x_min":33,"x_max":290,"o":"m 260 960 l 251 960 q 226 954 233 960 q 206 960 221 960 l 197 960 q 172 954 179 960 q 163 931 165 949 l 161 921 q 160 910 160 917 q 167 892 160 897 q 189 888 174 888 l 197 888 q 221 892 213 888 q 242 888 228 888 l 250 888 q 275 894 268 888 q 285 918 282 900 l 288 926 q 284 952 290 944 q 260 960 278 960 m 203 711 l 175 711 q 157 697 158 711 l 36 18 q 49 0 33 0 l 76 0 q 90 3 86 0 q 96 15 93 7 l 215 694 q 203 711 219 711 "},"ì":{"ha":300,"x_min":33,"x_max":289,"o":"m 268 832 l 279 842 q 278 861 289 853 l 138 1006 q 122 1013 131 1013 q 110 1007 115 1013 l 94 992 q 88 978 88 982 q 96 968 88 975 l 247 833 q 260 828 256 828 q 268 832 264 828 m 49 0 l 76 0 q 90 3 86 0 q 96 15 93 7 l 215 694 q 203 711 219 711 l 175 711 q 157 697 158 711 l 36 18 q 49 0 33 0 "},"ĳ":{"ha":597,"x_min":35,"x_max":528,"o":"m 213 897 l 233 897 q 258 903 251 897 q 268 931 264 910 l 269 942 q 271 956 271 947 q 244 978 271 978 l 224 978 q 200 972 207 978 q 189 944 193 965 l 188 935 l 185 918 q 213 897 185 897 m 47 0 l 78 0 q 90 3 86 0 q 96 15 94 7 l 215 694 q 204 711 219 711 l 174 711 q 157 697 158 711 l 36 18 q 47 0 35 0 "},"ī":{"ha":300,"x_min":33,"x_max":342,"o":"m 117 896 l 325 896 q 338 908 333 896 l 342 926 q 332 940 342 940 l 128 940 q 116 938 119 940 q 111 926 113 935 l 107 908 q 117 896 106 896 m 49 0 l 76 0 q 90 3 86 0 q 96 15 93 7 l 215 694 q 203 711 219 711 l 175 711 q 157 697 158 711 l 36 18 q 49 0 33 0 "},"į":{"ha":300,"x_min":-81,"x_max":271,"o":"m 213 897 l 233 897 q 258 903 251 897 q 268 931 264 910 l 269 942 q 271 956 271 947 q 244 978 271 978 l 224 978 q 200 972 207 978 q 189 944 193 965 l 188 935 l 185 918 q 213 897 185 897 m -3 -343 q 114 -297 64 -343 q 119 -291 118 -294 q 118 -282 119 -287 l 111 -261 q 108 -256 110 -257 q 103 -256 106 -254 q 17 -296 58 -296 q -26 -246 -31 -296 q 90 0 -17 -154 q 96 21 93 4 l 215 694 q 203 711 219 711 l 175 711 q 157 697 158 711 l 36 17 q 47 3 33 3 q -36 -119 8 -39 q -81 -264 -81 -200 q -61 -322 -81 -300 q -3 -343 -42 -343 "},"ĩ":{"ha":300,"x_min":33,"x_max":383,"o":"m 76 840 l 92 840 q 99 842 96 840 q 101 847 101 843 q 129 918 115 900 q 168 936 143 936 q 197 925 186 936 q 217 893 207 914 q 243 853 229 867 q 285 840 257 840 q 343 869 322 840 q 379 964 364 897 q 371 979 383 979 l 354 979 q 348 978 350 979 q 346 972 346 976 q 319 904 333 926 q 282 882 304 882 q 254 892 264 882 q 233 925 244 903 q 208 965 222 951 q 165 979 194 979 q 104 951 126 979 q 67 856 82 924 q 76 840 64 840 m 49 0 l 76 0 q 90 3 86 0 q 96 15 93 7 l 215 694 q 203 711 219 711 l 175 711 q 157 697 158 711 l 36 18 q 49 0 33 0 "},"j":{"ha":297,"x_min":-204,"x_max":274,"o":"m -186 -319 q -34 -286 -87 -319 q 44 -192 19 -253 q 89 -18 69 -131 l 215 694 q 203 711 218 711 l 174 711 q 161 708 165 711 q 156 697 157 706 l 29 -12 q -5 -158 13 -108 q -63 -235 -22 -207 q -183 -262 -104 -262 q -192 -265 -190 -262 q -196 -278 -194 -268 l -200 -301 q -186 -319 -204 -319 m 214 897 l 235 897 q 260 904 253 897 q 271 932 267 911 l 272 942 q 274 957 274 947 q 246 981 274 981 l 225 981 q 201 974 208 981 q 190 946 194 967 l 188 935 q 186 919 186 929 q 192 902 186 907 q 214 897 199 897 "},"ȷ":{"ha":297,"x_min":-204,"x_max":218,"o":"m -186 -319 q -34 -286 -87 -319 q 44 -192 19 -253 q 89 -18 69 -131 l 215 694 q 203 711 218 711 l 174 711 q 161 708 165 711 q 156 697 157 706 l 29 -12 q -5 -158 13 -108 q -63 -235 -22 -207 q -183 -262 -104 -262 q -192 -265 -190 -262 q -196 -278 -194 -268 l -200 -301 q -186 -319 -204 -319 "},"ĵ":{"ha":297,"x_min":-204,"x_max":368,"o":"m 64 835 l 88 835 q 94 835 90 835 q 104 836 99 835 q 117 843 110 838 l 233 965 l 308 844 q 316 837 311 839 q 333 835 321 835 l 356 835 q 368 839 368 835 q 364 847 368 843 l 271 989 q 259 1004 264 1001 q 242 1007 254 1007 l 233 1007 q 216 1004 222 1007 q 199 992 210 1001 l 54 849 q 52 839 50 843 q 64 835 54 835 m -186 -319 q -34 -286 -87 -319 q 44 -192 19 -253 q 89 -18 69 -131 l 215 694 q 203 711 218 711 l 174 711 q 161 708 165 711 q 156 697 157 706 l 29 -12 q -5 -158 13 -108 q -63 -235 -22 -207 q -183 -262 -104 -262 q -192 -265 -190 -262 q -196 -278 -194 -268 l -200 -301 q -186 -319 -204 -319 "},"k":{"ha":681,"x_min":35,"x_max":656,"o":"m 49 0 l 78 0 q 90 3 86 0 q 96 15 94 7 l 153 339 l 311 339 q 383 318 358 339 q 419 249 407 297 l 479 15 q 486 3 482 6 q 501 0 490 0 l 531 0 q 540 1 536 0 q 543 7 543 3 q 542 17 543 13 l 474 271 q 440 346 461 319 q 381 382 419 372 l 650 692 q 656 704 656 697 q 643 711 656 711 l 608 711 q 594 709 599 711 q 583 700 590 707 l 325 394 l 311 394 l 163 394 l 271 1010 q 258 1028 275 1028 l 229 1028 q 211 1013 214 1028 l 36 18 q 38 4 35 8 q 49 0 40 0 "},"ķ":{"ha":681,"x_min":35,"x_max":656,"o":"m 49 0 l 78 0 q 90 3 86 0 q 96 15 94 7 l 153 339 l 311 339 q 383 318 358 339 q 419 249 407 297 l 479 15 q 486 3 482 6 q 501 0 490 0 l 531 0 q 540 1 536 0 q 543 7 543 3 q 542 17 543 13 l 474 271 q 440 346 461 319 q 381 382 419 372 l 650 692 q 656 704 656 697 q 643 711 656 711 l 608 711 q 594 709 599 711 q 583 700 590 707 l 325 394 l 311 394 l 163 394 l 271 1010 q 258 1028 275 1028 l 229 1028 q 211 1013 214 1028 l 36 18 q 38 4 35 8 q 49 0 40 0 m 150 -342 l 168 -342 q 182 -339 178 -342 q 190 -326 186 -336 l 292 -128 q 292 -114 296 -119 q 278 -108 289 -108 l 251 -108 q 237 -111 242 -108 q 231 -124 232 -114 l 139 -326 q 150 -342 135 -342 "},"ĸ":{"ha":626,"x_min":35,"x_max":608,"o":"m 49 0 l 76 0 q 89 3 85 0 q 94 15 93 6 l 132 224 l 283 369 l 432 15 q 438 3 435 6 q 454 0 442 0 l 481 0 q 494 8 494 0 q 493 19 494 15 l 331 413 l 604 692 q 608 703 608 699 q 594 711 608 711 l 565 711 q 548 710 553 711 q 535 699 543 708 l 146 303 l 215 693 q 214 707 217 703 q 203 711 211 711 l 175 711 q 156 697 157 711 l 36 18 q 38 4 35 8 q 49 0 40 0 "},"l":{"ha":310,"x_min":40,"x_max":281,"o":"m 54 0 l 83 0 q 100 15 99 0 l 276 1008 q 263 1028 281 1028 l 235 1028 q 222 1024 226 1028 q 217 1013 218 1021 l 42 18 q 43 4 40 8 q 54 0 46 0 "},"ĺ":{"ha":310,"x_min":40,"x_max":421,"o":"m 176 1092 l 186 1081 q 196 1075 190 1075 q 206 1078 201 1075 l 411 1190 q 421 1200 421 1194 q 415 1211 421 1203 l 404 1228 q 390 1236 399 1236 q 376 1232 385 1236 l 179 1110 q 173 1102 174 1106 q 176 1092 172 1099 m 54 0 l 83 0 q 100 15 99 0 l 276 1008 q 263 1028 281 1028 l 235 1028 q 222 1024 226 1028 q 217 1013 218 1021 l 42 18 q 43 4 40 8 q 54 0 46 0 "},"ľ":{"ha":310,"x_min":40,"x_max":454,"o":"m 54 0 l 83 0 q 100 15 99 0 l 276 1008 q 263 1028 281 1028 l 235 1028 q 222 1024 226 1028 q 217 1013 218 1021 l 42 18 q 43 4 40 8 q 54 0 46 0 m 315 794 l 329 794 q 342 797 339 794 q 351 810 346 800 l 446 1008 q 431 1028 454 1028 l 407 1028 q 393 1025 397 1028 q 386 1013 389 1022 l 304 810 q 315 794 299 794 "},"ļ":{"ha":310,"x_min":-67,"x_max":281,"o":"m 54 0 l 83 0 q 100 15 99 0 l 276 1008 q 263 1028 281 1028 l 235 1028 q 222 1024 226 1028 q 217 1013 218 1021 l 42 18 q 43 4 40 8 q 54 0 46 0 m -51 -342 l -33 -342 q -19 -339 -24 -342 q -11 -326 -15 -336 l 90 -128 q 91 -114 94 -119 q 76 -108 88 -108 l 50 -108 q 35 -111 40 -108 q 29 -124 31 -114 l -62 -326 q -51 -342 -67 -342 "},"ŀ":{"ha":438,"x_min":40,"x_max":358,"o":"m 54 0 l 83 0 q 100 15 99 0 l 276 1008 q 263 1028 281 1028 l 235 1028 q 222 1024 226 1028 q 217 1013 218 1021 l 42 18 q 43 4 40 8 q 54 0 46 0 m 306 478 l 313 478 q 343 485 335 478 q 356 515 351 493 l 357 522 q 358 538 358 528 q 325 564 358 564 l 317 564 q 288 556 296 564 q 274 526 279 549 l 272 518 q 269 501 269 507 q 278 483 269 488 q 306 478 286 478 "},"ł":{"ha":399,"x_min":26,"x_max":382,"o":"m 94 0 l 122 0 q 140 14 136 0 l 228 508 l 375 586 q 382 596 382 592 q 381 603 382 600 l 372 621 q 366 628 369 626 q 356 625 363 629 l 236 561 l 315 1010 q 303 1028 319 1028 l 275 1028 q 257 1013 258 1028 l 172 528 l 33 456 q 26 444 26 451 q 28 438 26 440 l 35 421 q 44 413 39 413 l 51 415 l 161 475 l 81 18 q 82 4 79 8 q 94 0 85 0 "},"m":{"ha":1139,"x_min":29,"x_max":1028,"o":"m 46 0 l 72 0 q 85 3 81 0 q 92 14 90 6 l 194 592 q 204 622 197 610 q 231 643 211 633 q 394 676 301 676 q 511 646 474 676 q 549 546 549 615 q 543 483 549 515 l 461 18 q 463 4 460 8 q 474 0 465 0 l 501 0 q 519 14 515 0 l 603 483 q 610 560 610 529 q 604 610 610 592 q 697 659 651 642 q 815 676 743 676 q 930 642 893 676 q 967 539 967 608 q 960 469 967 511 l 881 18 q 894 0 876 0 l 921 0 q 934 3 929 0 q 940 14 939 6 l 1019 469 q 1028 547 1028 511 q 824 732 1028 732 q 687 713 740 732 q 578 661 633 694 q 403 732 538 732 q 197 689 292 732 q 156 658 168 675 q 138 611 143 642 l 33 18 q 46 0 29 0 "},"n":{"ha":747,"x_min":29,"x_max":636,"o":"m 46 0 l 74 0 q 92 14 88 0 l 194 593 q 206 622 199 611 q 232 640 213 632 q 314 666 265 656 q 418 676 363 676 q 575 531 575 676 q 568 463 575 504 l 490 18 q 492 4 489 8 q 503 0 494 0 l 531 0 q 549 14 547 0 l 628 461 q 636 540 636 506 q 426 732 636 732 q 196 686 304 732 q 156 658 168 674 q 138 611 143 642 l 33 18 q 46 0 29 0 "},"ń":{"ha":747,"x_min":29,"x_max":636,"o":"m 46 0 l 74 0 q 92 14 88 0 l 194 593 q 206 622 199 611 q 232 640 213 632 q 314 666 265 656 q 418 676 363 676 q 575 531 575 676 q 568 463 575 504 l 490 18 q 492 4 489 8 q 503 0 494 0 l 531 0 q 549 14 547 0 l 628 461 q 636 540 636 506 q 426 732 636 732 q 196 686 304 732 q 156 658 168 674 q 138 611 143 642 l 33 18 q 46 0 29 0 m 335 860 l 342 849 q 351 843 346 843 q 363 846 358 843 l 593 988 q 599 994 599 989 q 596 1007 600 1000 l 585 1022 q 571 1031 579 1031 q 558 1026 565 1031 l 339 879 q 332 868 332 875 q 335 860 332 865 "},"ŉ":{"ha":747,"x_min":29,"x_max":636,"o":"m 97 782 l 111 782 q 122 783 119 782 q 131 792 125 785 l 253 997 q 257 1008 257 1004 q 240 1018 257 1018 l 213 1018 q 197 1015 201 1018 q 188 1001 193 1013 l 89 796 q 97 782 81 782 m 46 0 l 74 0 q 92 14 88 0 l 194 593 q 206 622 199 611 q 232 640 213 632 q 314 666 265 656 q 418 676 363 676 q 575 531 575 676 q 568 463 575 504 l 490 18 q 492 4 489 8 q 503 0 494 0 l 531 0 q 549 14 547 0 l 628 461 q 636 540 636 506 q 426 732 636 732 q 196 686 304 732 q 156 658 168 674 q 138 611 143 642 l 33 18 q 46 0 29 0 "},"ň":{"ha":747,"x_min":29,"x_max":651,"o":"m 46 0 l 74 0 q 92 14 88 0 l 194 593 q 206 622 199 611 q 232 640 213 632 q 314 666 265 656 q 418 676 363 676 q 575 531 575 676 q 568 463 575 504 l 490 18 q 492 4 489 8 q 503 0 494 0 l 531 0 q 549 14 547 0 l 628 461 q 636 540 636 506 q 426 732 636 732 q 196 686 304 732 q 156 658 168 674 q 138 611 143 642 l 33 18 q 46 0 29 0 m 415 836 l 424 836 q 440 838 435 836 q 457 851 444 840 l 647 1007 q 650 1016 651 1011 q 639 1021 649 1021 l 611 1021 q 597 1019 603 1021 q 586 1013 592 1018 l 425 878 l 313 1011 q 303 1019 307 1018 q 289 1021 300 1021 l 263 1021 q 250 1015 250 1021 q 254 1008 250 1013 l 388 851 q 400 839 394 842 q 415 836 406 836 "},"ņ":{"ha":747,"x_min":29,"x_max":636,"o":"m 46 0 l 74 0 q 92 14 88 0 l 194 593 q 206 622 199 611 q 232 640 213 632 q 314 666 265 656 q 418 676 363 676 q 575 531 575 676 q 568 463 575 504 l 490 18 q 492 4 489 8 q 503 0 494 0 l 531 0 q 549 14 547 0 l 628 461 q 636 540 636 506 q 426 732 636 732 q 196 686 304 732 q 156 658 168 674 q 138 611 143 642 l 33 18 q 46 0 29 0 m 183 -342 l 201 -342 q 215 -339 211 -342 q 224 -326 219 -336 l 325 -128 q 326 -114 329 -119 q 311 -108 322 -108 l 285 -108 q 270 -111 275 -108 q 264 -124 265 -114 l 172 -326 q 183 -342 168 -342 "},"ŋ":{"ha":747,"x_min":29,"x_max":636,"o":"m 265 -319 q 417 -286 363 -319 q 497 -191 471 -253 q 543 -21 524 -129 l 628 461 q 636 540 636 506 q 426 732 636 732 q 196 686 304 732 q 156 658 168 674 q 138 611 143 642 l 33 18 q 46 0 29 0 l 74 0 q 92 14 88 0 l 194 593 q 206 622 199 611 q 232 640 213 632 q 314 666 265 656 q 418 676 363 676 q 575 531 575 676 q 568 463 575 504 l 485 -17 q 449 -161 467 -112 q 390 -237 432 -210 q 267 -265 347 -265 q 257 -267 260 -265 q 253 -279 254 -269 l 249 -301 q 250 -315 246 -311 q 265 -319 254 -319 "},"ñ":{"ha":747,"x_min":29,"x_max":646,"o":"m 46 0 l 74 0 q 92 14 88 0 l 194 593 q 206 622 199 611 q 232 640 213 632 q 314 666 265 656 q 418 676 363 676 q 575 531 575 676 q 568 463 575 504 l 490 18 q 492 4 489 8 q 503 0 494 0 l 531 0 q 549 14 547 0 l 628 461 q 636 540 636 506 q 426 732 636 732 q 196 686 304 732 q 156 658 168 674 q 138 611 143 642 l 33 18 q 46 0 29 0 m 254 858 l 274 858 q 283 869 281 858 q 313 935 296 913 q 363 958 329 958 q 398 948 383 958 q 435 914 413 938 q 478 873 457 888 q 532 858 500 858 q 610 892 579 858 q 644 983 640 925 q 644 998 646 994 q 636 1001 642 1001 l 615 1001 q 604 992 606 1001 q 582 927 604 953 q 526 901 560 901 q 492 913 507 901 q 458 944 476 924 q 412 987 433 972 q 357 1001 390 1001 q 282 969 308 1001 q 243 878 256 938 q 254 858 242 858 "},"o":{"ha":735,"x_min":46,"x_max":640,"o":"m 279 -19 q 486 45 403 -19 q 589 222 569 110 l 636 486 q 640 535 640 511 q 576 678 640 625 q 403 732 513 732 q 197 669 278 732 q 96 489 117 606 l 50 225 q 46 175 46 199 q 108 33 46 85 q 279 -19 169 -19 m 283 35 q 153 74 201 35 q 104 185 104 114 q 108 222 104 201 l 156 486 q 236 625 171 574 q 399 676 301 676 q 532 638 483 676 q 581 528 581 599 q 578 490 581 503 l 531 225 q 448 86 515 138 q 283 35 381 35 "},"ó":{"ha":735,"x_min":46,"x_max":640,"o":"m 279 -19 q 486 45 403 -19 q 589 222 569 110 l 636 486 q 640 535 640 511 q 576 678 640 625 q 403 732 513 732 q 197 669 278 732 q 96 489 117 606 l 50 225 q 46 175 46 199 q 108 33 46 85 q 279 -19 169 -19 m 283 35 q 153 74 201 35 q 104 185 104 114 q 108 222 104 201 l 156 486 q 236 625 171 574 q 399 676 301 676 q 532 638 483 676 q 581 528 581 599 q 578 490 581 503 l 531 225 q 448 86 515 138 q 283 35 381 35 m 332 858 l 339 847 q 349 842 343 842 q 360 844 356 842 l 590 986 q 597 993 596 988 q 593 1006 597 999 l 582 1021 q 568 1029 576 1029 q 556 1025 563 1029 l 336 878 q 329 867 329 874 q 332 858 329 864 "},"ŏ":{"ha":735,"x_min":46,"x_max":644,"o":"m 279 -19 q 486 45 403 -19 q 589 222 569 110 l 636 486 q 640 535 640 511 q 576 678 640 625 q 403 732 513 732 q 197 669 278 732 q 96 489 117 606 l 50 225 q 46 175 46 199 q 108 33 46 85 q 279 -19 169 -19 m 283 35 q 153 74 201 35 q 104 185 104 114 q 108 222 104 201 l 156 486 q 236 625 171 574 q 399 676 301 676 q 532 638 483 676 q 581 528 581 599 q 578 490 581 503 l 531 225 q 448 86 515 138 q 283 35 381 35 m 431 842 q 553 879 503 842 q 640 994 603 917 q 644 1006 644 1003 q 636 1011 643 1010 l 611 1019 q 594 1014 600 1024 q 526 918 563 947 q 433 889 489 889 q 315 1010 319 889 q 306 1021 311 1021 l 300 1019 l 276 1014 q 268 1004 268 1013 l 269 999 q 431 842 278 842 "},"ô":{"ha":735,"x_min":46,"x_max":640,"o":"m 279 -19 q 486 45 403 -19 q 589 222 569 110 l 636 486 q 640 535 640 511 q 576 678 640 625 q 403 732 513 732 q 197 669 278 732 q 96 489 117 606 l 50 225 q 46 175 46 199 q 108 33 46 85 q 279 -19 169 -19 m 283 35 q 153 74 201 35 q 104 185 104 114 q 108 222 104 201 l 156 486 q 236 625 171 574 q 399 676 301 676 q 532 638 483 676 q 581 528 581 599 q 578 490 581 503 l 531 225 q 448 86 515 138 q 283 35 381 35 m 239 836 l 265 836 q 280 838 274 836 q 293 844 286 839 l 454 978 l 567 847 q 575 838 571 840 q 590 836 579 836 l 617 836 q 628 842 628 836 q 625 849 628 846 l 489 1008 q 478 1019 483 1017 q 464 1021 474 1021 l 451 1021 q 438 1019 442 1021 q 424 1008 433 1017 l 231 850 q 226 841 224 846 q 239 836 229 836 "},"ö":{"ha":735,"x_min":46,"x_max":640,"o":"m 279 -19 q 486 45 403 -19 q 589 222 569 110 l 636 486 q 640 535 640 511 q 576 678 640 625 q 403 732 513 732 q 197 669 278 732 q 96 489 117 606 l 50 225 q 46 175 46 199 q 108 33 46 85 q 279 -19 169 -19 m 283 35 q 153 74 201 35 q 104 185 104 114 q 108 222 104 201 l 156 486 q 236 625 171 574 q 399 676 301 676 q 532 638 483 676 q 581 528 581 599 q 578 490 581 503 l 531 225 q 448 86 515 138 q 283 35 381 35 m 314 894 l 321 894 q 348 901 340 894 q 361 928 356 908 l 363 936 q 358 964 365 956 q 332 972 351 972 l 324 972 q 298 965 306 972 q 286 939 290 958 l 285 932 q 282 917 282 921 q 314 894 282 894 m 553 894 l 561 894 q 588 901 581 894 q 600 928 596 908 l 601 936 q 603 949 603 940 q 596 967 603 961 q 571 972 589 972 l 564 972 q 537 965 544 972 q 525 939 529 958 l 524 932 q 522 917 522 926 q 529 899 522 904 q 553 894 536 894 "},"ò":{"ha":735,"x_min":46,"x_max":640,"o":"m 279 -19 q 486 45 403 -19 q 589 222 569 110 l 636 486 q 640 535 640 511 q 576 678 640 625 q 403 732 513 732 q 197 669 278 732 q 96 489 117 606 l 50 225 q 46 175 46 199 q 108 33 46 85 q 279 -19 169 -19 m 283 35 q 153 74 201 35 q 104 185 104 114 q 108 222 104 201 l 156 486 q 236 625 171 574 q 399 676 301 676 q 532 638 483 676 q 581 528 581 599 q 578 490 581 503 l 531 225 q 448 86 515 138 q 283 35 381 35 m 294 988 l 474 847 q 488 843 482 843 q 497 847 493 843 l 507 856 q 504 878 518 867 l 339 1024 q 322 1032 328 1032 q 310 1026 315 1032 l 292 1010 q 286 999 286 1004 q 294 988 286 992 "},"ő":{"ha":735,"x_min":46,"x_max":692,"o":"m 279 -19 q 486 45 403 -19 q 589 222 569 110 l 636 486 q 640 535 640 511 q 576 678 640 625 q 403 732 513 732 q 197 669 278 732 q 96 489 117 606 l 50 225 q 46 175 46 199 q 108 33 46 85 q 279 -19 169 -19 m 283 35 q 153 74 201 35 q 104 185 104 114 q 108 222 104 201 l 156 486 q 236 625 171 574 q 399 676 301 676 q 532 638 483 676 q 581 528 581 599 q 578 490 581 503 l 531 225 q 448 86 515 138 q 283 35 381 35 m 269 836 l 282 832 q 303 838 290 826 l 468 993 q 475 1003 475 997 q 464 1013 475 1008 l 443 1019 q 430 1020 435 1022 q 418 1011 425 1018 l 265 854 q 269 836 256 842 m 486 836 l 497 832 q 508 831 503 829 q 519 838 513 833 l 685 993 q 690 1004 692 999 q 681 1013 689 1010 l 658 1019 q 647 1020 651 1022 q 635 1011 642 1018 l 482 854 q 486 836 472 842 "},"ō":{"ha":735,"x_min":46,"x_max":640,"o":"m 279 -19 q 486 45 403 -19 q 589 222 569 110 l 636 486 q 640 535 640 511 q 576 678 640 625 q 403 732 513 732 q 197 669 278 732 q 96 489 117 606 l 50 225 q 46 175 46 199 q 108 33 46 85 q 279 -19 169 -19 m 283 35 q 153 74 201 35 q 104 185 104 114 q 108 222 104 201 l 156 486 q 236 625 171 574 q 399 676 301 676 q 532 638 483 676 q 581 528 581 599 q 578 490 581 503 l 531 225 q 448 86 515 138 q 283 35 381 35 m 286 900 l 594 900 q 611 915 607 900 l 614 929 q 612 942 615 939 q 600 946 608 946 l 296 946 q 281 943 286 946 q 275 932 276 940 l 272 918 q 286 900 269 900 "},"ø":{"ha":735,"x_min":13,"x_max":683,"o":"m 18 -51 l 46 -51 q 61 -44 56 -51 l 117 26 q 279 -19 178 -19 q 487 45 403 -19 q 589 222 571 110 l 636 486 q 640 536 640 511 q 601 657 640 607 l 679 756 q 675 764 683 764 l 647 764 q 635 760 639 764 l 574 682 q 404 732 513 732 q 199 667 282 732 q 96 489 117 603 l 50 225 q 44 176 44 192 q 89 51 44 103 l 15 -42 q 13 -48 13 -44 q 18 -51 13 -51 m 538 632 l 133 111 q 107 194 107 144 q 111 239 107 214 l 156 486 q 238 625 171 574 q 399 676 304 676 q 538 632 490 676 m 285 35 q 150 76 200 35 l 554 597 q 578 517 578 563 q 574 468 578 496 l 531 225 q 449 86 517 138 q 285 35 381 35 "},"ǿ":{"ha":735,"x_min":13,"x_max":683,"o":"m 18 -51 l 46 -51 q 61 -44 56 -51 l 117 26 q 279 -19 178 -19 q 487 45 403 -19 q 589 222 571 110 l 636 486 q 640 536 640 511 q 601 657 640 607 l 679 756 q 675 764 683 764 l 647 764 q 635 760 639 764 l 574 682 q 404 732 513 732 q 199 667 282 732 q 96 489 117 603 l 50 225 q 44 176 44 192 q 89 51 44 103 l 15 -42 q 13 -48 13 -44 q 18 -51 13 -51 m 538 632 l 133 111 q 107 194 107 144 q 111 239 107 214 l 156 486 q 238 625 171 574 q 399 676 304 676 q 538 632 490 676 m 285 35 q 150 76 200 35 l 554 597 q 578 517 578 563 q 574 468 578 496 l 531 225 q 449 86 517 138 q 285 35 381 35 m 329 828 l 336 817 q 346 811 342 811 q 357 814 353 811 l 586 956 q 593 967 593 960 q 590 975 593 972 l 578 990 q 565 999 572 999 q 553 994 561 999 l 332 847 q 326 838 326 846 q 329 828 326 832 "},"õ":{"ha":735,"x_min":46,"x_max":643,"o":"m 279 -19 q 486 45 403 -19 q 589 222 569 110 l 636 486 q 640 535 640 511 q 576 678 640 625 q 403 732 513 732 q 197 669 278 732 q 96 489 117 606 l 50 225 q 46 175 46 199 q 108 33 46 85 q 279 -19 169 -19 m 283 35 q 153 74 201 35 q 104 185 104 114 q 108 222 104 201 l 156 486 q 236 625 171 574 q 399 676 301 676 q 532 638 483 676 q 581 528 581 599 q 578 490 581 503 l 531 225 q 448 86 515 138 q 283 35 381 35 m 251 857 l 271 857 q 281 868 278 857 q 310 934 293 911 q 360 957 326 957 q 395 947 381 957 q 432 913 410 936 q 476 872 454 886 q 529 857 497 857 q 607 890 576 857 q 642 982 638 924 q 641 997 643 993 q 633 1000 639 1000 l 613 1000 q 601 990 603 1000 q 579 926 601 951 q 524 900 557 900 q 489 911 504 900 q 456 943 474 922 q 409 985 431 971 q 354 1000 388 1000 q 279 968 306 1000 q 240 876 253 936 q 251 857 239 857 "},"œ":{"ha":1119,"x_min":46,"x_max":1051,"o":"m 267 -19 q 408 18 346 -19 q 504 122 469 56 q 569 17 518 54 q 711 -19 621 -19 q 983 142 876 -19 q 979 163 990 156 l 957 174 q 938 171 946 181 q 714 26 847 26 q 590 67 633 26 q 546 178 546 107 q 550 222 546 200 l 569 331 q 782 304 663 304 q 963 361 890 304 q 1049 522 1035 418 q 1051 558 1051 547 q 994 687 1051 642 q 840 732 938 732 q 582 574 664 732 q 524 689 576 646 q 385 732 471 732 q 194 668 271 732 q 96 490 117 604 l 50 225 q 46 176 46 200 q 106 33 46 86 q 267 -19 167 -19 m 781 350 q 575 375 664 350 l 590 449 q 675 624 613 563 q 836 685 738 685 q 950 652 908 685 q 992 554 992 619 q 989 522 992 544 q 918 394 976 438 q 781 350 860 350 m 274 35 q 153 75 201 35 q 106 185 106 115 q 108 221 106 208 l 156 488 q 232 626 169 574 q 382 678 294 678 q 501 638 457 678 q 544 528 544 597 q 540 486 544 507 l 492 222 q 418 87 476 139 q 274 35 360 35 "},"p":{"ha":732,"x_min":-25,"x_max":636,"o":"m -8 -306 l 21 -306 q 38 -292 35 -306 l 96 36 q 306 -19 193 -19 q 497 50 425 -19 q 592 246 569 119 l 628 450 q 636 532 636 494 q 410 732 636 732 q 196 689 296 732 q 154 661 165 675 q 138 613 143 647 l -21 -287 q -8 -306 -25 -306 m 304 36 q 189 55 242 36 q 107 93 136 74 l 194 594 q 206 625 199 617 q 235 644 213 633 q 309 667 264 657 q 403 676 354 676 q 533 638 490 676 q 575 522 575 600 q 568 453 575 494 l 532 250 q 304 36 497 36 "},"þ":{"ha":733,"x_min":-19,"x_max":639,"o":"m -4 -306 l 25 -306 q 36 -302 32 -306 q 42 -289 40 -299 l 100 38 q 184 -1 129 18 q 306 -19 239 -19 q 500 49 428 -19 q 596 249 572 118 l 632 451 q 639 531 639 497 q 417 732 639 732 q 213 683 314 732 l 271 1010 q 258 1028 275 1028 l 231 1028 q 217 1024 222 1028 q 211 1013 213 1021 l -18 -287 q -17 -301 -19 -297 q -4 -306 -14 -306 m 307 36 q 193 54 244 36 q 110 93 142 72 l 203 624 q 290 660 236 643 q 408 676 343 676 q 579 522 579 676 q 572 454 579 496 l 538 254 q 462 91 518 146 q 307 36 406 36 "},"q":{"ha":732,"x_min":46,"x_max":639,"o":"m 431 -306 l 458 -306 q 476 -290 475 -306 l 636 613 l 639 640 q 631 669 639 658 q 600 690 622 679 q 399 732 517 732 q 189 663 264 732 q 89 453 114 593 l 53 250 q 46 178 46 208 q 97 32 46 83 q 253 -19 149 -19 q 475 35 363 -19 l 418 -287 q 431 -306 414 -306 m 263 36 q 106 182 106 36 q 113 247 106 208 l 147 449 q 227 619 167 563 q 396 676 288 676 q 483 667 443 676 q 549 646 522 658 q 570 632 564 639 q 576 615 576 625 q 574 596 576 613 l 485 94 q 388 55 450 74 q 263 36 326 36 "},"r":{"ha":458,"x_min":29,"x_max":460,"o":"m 44 0 l 74 0 q 92 14 88 0 l 190 574 q 202 603 194 592 q 228 622 210 614 q 397 657 307 657 l 438 657 q 448 660 444 657 q 453 672 451 663 l 457 694 q 457 708 460 704 q 444 711 454 711 q 419 713 436 713 q 394 711 404 713 q 189 672 279 710 q 151 644 161 660 q 135 594 140 628 l 33 18 q 44 0 29 0 "},"ŕ":{"ha":458,"x_min":29,"x_max":496,"o":"m 44 0 l 74 0 q 92 14 88 0 l 190 574 q 202 603 194 592 q 228 622 210 614 q 397 657 307 657 l 438 657 q 448 660 444 657 q 453 672 451 663 l 457 694 q 457 708 460 704 q 444 711 454 711 q 419 713 436 713 q 394 711 404 713 q 189 672 279 710 q 151 644 161 660 q 135 594 140 628 l 33 18 q 44 0 29 0 m 231 858 l 238 847 q 247 842 242 842 q 258 844 254 842 l 489 986 q 495 993 494 988 q 492 1006 496 999 l 481 1021 q 467 1029 475 1029 q 454 1025 461 1029 l 235 878 q 228 867 228 874 q 231 858 228 864 "},"ř":{"ha":458,"x_min":29,"x_max":547,"o":"m 44 0 l 74 0 q 92 14 88 0 l 190 574 q 202 603 194 592 q 228 622 210 614 q 397 657 307 657 l 438 657 q 448 660 444 657 q 453 672 451 663 l 457 694 q 457 708 460 704 q 444 711 454 711 q 419 713 436 713 q 394 711 404 713 q 189 672 279 710 q 151 644 161 660 q 135 594 140 628 l 33 18 q 44 0 29 0 m 311 835 l 319 835 q 335 837 331 835 q 353 850 340 839 l 543 1006 q 546 1015 547 1010 q 535 1019 544 1019 l 507 1019 q 493 1018 499 1019 q 482 1011 488 1017 l 321 876 l 208 1010 q 199 1018 203 1017 q 185 1019 196 1019 l 158 1019 q 146 1014 146 1019 q 150 1007 146 1011 l 283 850 q 296 838 290 840 q 311 835 301 835 "},"ŗ":{"ha":458,"x_min":-32,"x_max":460,"o":"m 44 0 l 74 0 q 92 14 88 0 l 190 574 q 202 603 194 592 q 228 622 210 614 q 397 657 307 657 l 438 657 q 448 660 444 657 q 453 672 451 663 l 457 694 q 457 708 460 704 q 444 711 454 711 q 419 713 436 713 q 394 711 404 713 q 189 672 279 710 q 151 644 161 660 q 135 594 140 628 l 33 18 q 44 0 29 0 m -17 -342 l 1 -342 q 15 -339 11 -342 q 24 -326 19 -336 l 125 -128 q 126 -114 129 -119 q 111 -108 122 -108 l 85 -108 q 70 -111 75 -108 q 64 -124 65 -114 l -28 -326 q -17 -342 -32 -342 "},"s":{"ha":672,"x_min":17,"x_max":597,"o":"m 264 -19 q 469 35 396 -19 q 542 196 542 90 q 490 322 542 282 q 335 379 439 363 q 199 420 246 393 q 153 513 153 447 q 204 638 153 597 q 357 678 256 678 q 486 647 442 678 q 546 557 531 617 q 556 546 549 546 l 564 549 l 589 557 q 597 567 597 560 l 596 576 q 526 692 583 653 q 360 731 468 731 q 94 513 94 731 q 152 385 94 424 q 315 331 210 346 q 442 287 401 317 q 483 194 483 257 q 428 74 483 115 q 269 33 372 33 q 74 176 99 33 q 63 188 69 188 l 57 186 l 26 178 q 17 165 17 174 l 19 154 q 99 22 36 63 q 264 -19 161 -19 "},"ś":{"ha":672,"x_min":17,"x_max":597,"o":"m 264 -19 q 469 35 396 -19 q 542 196 542 90 q 490 322 542 282 q 335 379 439 363 q 199 420 246 393 q 153 513 153 447 q 204 638 153 597 q 357 678 256 678 q 486 647 442 678 q 546 557 531 617 q 556 546 549 546 l 564 549 l 589 557 q 597 567 597 560 l 596 576 q 526 692 583 653 q 360 731 468 731 q 94 513 94 731 q 152 385 94 424 q 315 331 210 346 q 442 287 401 317 q 483 194 483 257 q 428 74 483 115 q 269 33 372 33 q 74 176 99 33 q 63 188 69 188 l 57 186 l 26 178 q 17 165 17 174 l 19 154 q 99 22 36 63 q 264 -19 161 -19 m 303 860 l 310 849 q 319 843 314 843 q 331 846 326 843 l 561 988 q 567 994 567 989 q 564 1007 568 1000 l 553 1022 q 539 1031 547 1031 q 526 1026 533 1031 l 307 879 q 300 868 300 875 q 303 860 300 865 "},"š":{"ha":672,"x_min":17,"x_max":621,"o":"m 264 -19 q 469 35 396 -19 q 542 196 542 90 q 490 322 542 282 q 335 379 439 363 q 199 420 246 393 q 153 513 153 447 q 204 638 153 597 q 357 678 256 678 q 486 647 442 678 q 546 557 531 617 q 556 546 549 546 l 564 549 l 589 557 q 597 567 597 560 l 596 576 q 526 692 583 653 q 360 731 468 731 q 94 513 94 731 q 152 385 94 424 q 315 331 210 346 q 442 287 401 317 q 483 194 483 257 q 428 74 483 115 q 269 33 372 33 q 74 176 99 33 q 63 188 69 188 l 57 186 l 26 178 q 17 165 17 174 l 19 154 q 99 22 36 63 q 264 -19 161 -19 m 385 836 l 393 836 q 409 838 404 836 q 426 851 414 840 l 617 1007 q 619 1016 621 1011 q 608 1021 618 1021 l 581 1021 q 567 1019 572 1021 q 556 1013 561 1018 l 394 878 l 282 1011 q 273 1019 276 1018 q 258 1021 269 1021 l 232 1021 q 219 1015 219 1021 q 224 1008 219 1013 l 357 851 q 369 839 364 842 q 385 836 375 836 "},"ş":{"ha":672,"x_min":17,"x_max":597,"o":"m 197 -339 q 313 -303 269 -339 q 357 -197 357 -267 q 337 -136 357 -160 q 279 -110 317 -112 q 260 -108 272 -108 q 229 -111 249 -108 l 275 -19 q 472 39 403 -17 q 542 196 542 94 q 490 322 542 282 q 333 379 439 363 q 198 421 244 393 q 151 515 151 449 q 356 678 151 678 q 486 647 442 678 q 544 557 531 617 q 548 551 546 556 q 554 546 550 546 q 564 549 556 546 l 589 557 q 597 567 597 560 l 596 576 q 358 731 569 731 q 94 510 94 731 q 152 385 94 424 q 315 331 210 347 q 442 287 401 317 q 482 194 482 257 q 427 74 482 115 q 269 33 372 33 q 72 176 99 33 q 63 188 69 188 l 56 186 l 26 178 q 17 165 17 174 l 19 154 q 232 -19 49 -8 l 178 -129 q 176 -142 174 -136 q 186 -147 179 -147 l 190 -147 q 242 -143 224 -142 q 288 -159 272 -143 q 303 -203 303 -175 q 273 -276 303 -253 q 193 -300 243 -300 q 146 -290 165 -300 q 106 -265 126 -281 q 100 -265 103 -264 q 96 -271 97 -267 l 93 -287 q 100 -304 92 -299 q 197 -339 138 -339 "},"ŝ":{"ha":672,"x_min":17,"x_max":599,"o":"m 264 -19 q 469 35 396 -19 q 542 196 542 90 q 490 322 542 282 q 335 379 439 363 q 199 420 246 393 q 153 513 153 447 q 204 638 153 597 q 357 678 256 678 q 486 647 442 678 q 546 557 531 617 q 556 546 549 546 l 564 549 l 589 557 q 597 567 597 560 l 596 576 q 526 692 583 653 q 360 731 468 731 q 94 513 94 731 q 152 385 94 424 q 315 331 210 346 q 442 287 401 317 q 483 194 483 257 q 428 74 483 115 q 269 33 372 33 q 74 176 99 33 q 63 188 69 188 l 57 186 l 26 178 q 17 165 17 174 l 19 154 q 99 22 36 63 q 264 -19 161 -19 m 210 838 l 236 838 q 251 839 244 838 q 264 846 257 840 l 425 979 l 538 849 q 546 840 542 842 q 561 838 550 838 l 588 838 q 599 843 599 838 q 596 850 599 847 l 460 1010 q 449 1020 454 1018 q 435 1022 444 1022 l 422 1022 q 408 1020 413 1022 q 394 1010 404 1018 l 201 851 q 197 842 194 847 q 210 838 200 838 "},"ș":{"ha":672,"x_min":17,"x_max":597,"o":"m 264 -19 q 469 35 396 -19 q 542 196 542 90 q 490 322 542 282 q 335 379 439 363 q 199 420 246 393 q 153 513 153 447 q 204 638 153 597 q 357 678 256 678 q 486 647 442 678 q 546 557 531 617 q 556 546 549 546 l 564 549 l 589 557 q 597 567 597 560 l 596 576 q 526 692 583 653 q 360 731 468 731 q 94 513 94 731 q 152 385 94 424 q 315 331 210 346 q 442 287 401 317 q 483 194 483 257 q 428 74 483 115 q 269 33 372 33 q 74 176 99 33 q 63 188 69 188 l 57 186 l 26 178 q 17 165 17 174 l 19 154 q 99 22 36 63 q 264 -19 161 -19 m 146 -342 l 164 -342 q 178 -339 174 -342 q 186 -326 182 -336 l 288 -128 q 288 -114 292 -119 q 274 -108 285 -108 l 247 -108 q 233 -111 238 -108 q 226 -124 228 -114 l 135 -326 q 146 -342 131 -342 "},"ß":{"ha":749,"x_min":36,"x_max":686,"o":"m 49 0 l 78 0 q 90 3 86 0 q 96 15 93 7 l 225 747 q 303 926 246 867 q 457 985 360 985 q 584 944 540 985 q 628 826 628 904 q 624 774 628 801 q 593 679 618 728 q 526 597 568 631 q 426 563 483 564 l 308 563 q 299 559 301 563 q 294 546 296 556 l 290 519 q 306 506 286 506 l 418 506 q 534 464 493 506 q 575 350 575 422 q 571 301 575 326 q 489 121 553 183 q 318 58 425 58 l 218 58 q 207 56 210 58 q 201 44 204 53 l 197 14 q 211 0 196 0 l 318 0 q 531 77 453 0 q 629 300 610 154 q 633 351 633 328 q 602 471 633 424 q 514 536 571 518 l 514 539 q 630 638 586 568 q 682 779 674 707 q 686 833 686 808 q 628 988 686 935 q 461 1042 571 1042 q 265 969 338 1042 q 165 751 192 897 l 38 19 q 38 5 36 10 q 49 0 40 0 "},"ſ":{"ha":333,"x_min":64,"x_max":515,"o":"m 96 0 l 124 0 q 137 3 132 0 q 143 14 142 6 l 275 757 q 314 888 290 842 q 379 952 338 933 q 492 971 421 971 q 503 974 500 971 q 507 986 506 976 l 511 1010 q 496 1028 515 1028 q 353 1002 408 1028 q 266 919 299 976 q 215 760 233 861 l 206 711 l 89 711 q 75 708 79 711 q 69 697 71 706 l 65 674 q 67 660 64 664 q 78 657 69 657 l 197 657 l 83 18 q 85 4 82 8 q 96 0 88 0 "},"t":{"ha":463,"x_min":56,"x_max":469,"o":"m 322 0 q 339 2 335 0 q 344 15 343 4 l 349 42 q 335 57 353 57 q 213 81 249 57 q 178 174 178 104 q 188 263 178 214 l 258 657 l 444 657 q 457 660 453 657 q 463 672 461 664 l 467 694 q 453 711 469 711 l 268 711 l 294 861 q 281 878 297 878 l 254 878 q 235 864 236 878 l 208 711 l 83 711 q 71 708 75 711 q 65 697 67 706 l 60 674 q 74 657 56 657 l 199 657 l 129 264 q 118 161 118 201 q 166 35 118 71 q 322 0 214 0 "},"ŧ":{"ha":463,"x_min":29,"x_max":469,"o":"m 321 0 q 338 3 333 0 q 344 15 343 6 l 349 42 q 338 57 351 57 l 333 57 q 213 81 249 57 q 178 171 178 104 q 188 263 178 213 l 207 360 l 368 360 q 376 363 374 360 q 382 372 379 365 l 385 390 q 375 406 389 406 l 214 406 l 258 657 l 444 657 q 457 660 453 657 q 463 671 461 663 l 467 694 q 453 711 469 711 l 268 711 l 294 861 q 281 878 297 878 l 253 878 q 235 864 236 878 l 208 711 l 82 711 q 65 697 67 711 l 60 674 q 72 657 58 657 l 199 657 l 154 406 l 50 406 q 40 403 43 406 q 36 393 38 400 l 33 375 q 44 360 29 360 l 147 360 l 129 260 q 118 154 118 196 q 164 35 118 71 q 321 0 210 0 "},"ť":{"ha":463,"x_min":56,"x_max":531,"o":"m 399 801 l 414 801 q 427 804 424 801 q 435 817 431 807 l 526 1008 q 526 1022 531 1017 q 511 1028 522 1028 l 488 1028 q 474 1025 478 1028 q 467 1013 469 1022 l 389 817 q 399 801 383 801 m 322 0 q 339 2 335 0 q 344 15 343 4 l 349 42 q 335 57 353 57 q 213 81 249 57 q 178 174 178 104 q 188 263 178 214 l 258 657 l 444 657 q 457 660 453 657 q 463 672 461 664 l 467 694 q 453 711 469 711 l 268 711 l 294 861 q 281 878 297 878 l 254 878 q 235 864 236 878 l 208 711 l 83 711 q 71 708 75 711 q 65 697 67 706 l 60 674 q 74 657 56 657 l 199 657 l 129 264 q 118 161 118 201 q 166 35 118 71 q 322 0 214 0 "},"ţ":{"ha":463,"x_min":56,"x_max":469,"o":"m 453 711 l 268 711 l 294 861 q 281 878 297 878 l 254 878 q 235 864 236 878 l 208 711 l 83 711 q 71 708 75 711 q 65 697 67 706 l 60 674 q 74 657 56 657 l 199 657 l 129 264 q 119 161 119 210 q 146 57 119 93 q 229 8 172 21 l 160 -129 q 158 -142 156 -136 q 168 -147 161 -147 l 172 -147 q 221 -142 200 -142 q 268 -158 251 -142 q 285 -203 285 -174 q 255 -276 285 -253 q 175 -300 225 -300 q 128 -290 147 -300 q 88 -265 108 -281 q 82 -265 85 -264 q 78 -271 79 -267 l 75 -287 q 82 -304 74 -299 q 179 -339 119 -339 q 294 -303 250 -339 q 339 -199 339 -268 q 317 -134 339 -158 q 257 -107 296 -110 q 211 -111 229 -107 l 267 3 q 329 0 286 0 q 340 3 336 0 q 344 15 343 6 l 349 42 q 335 57 353 57 q 213 81 249 57 q 178 174 178 104 q 188 263 178 214 l 258 657 l 444 657 q 457 660 453 657 q 463 672 461 664 l 467 694 q 453 711 469 711 "},"ț":{"ha":463,"x_min":56,"x_max":469,"o":"m 322 0 q 339 2 335 0 q 344 15 343 4 l 349 42 q 335 57 353 57 q 213 81 249 57 q 178 174 178 104 q 188 263 178 214 l 258 657 l 444 657 q 457 660 453 657 q 463 672 461 664 l 467 694 q 453 711 469 711 l 268 711 l 294 861 q 281 878 297 878 l 254 878 q 235 864 236 878 l 208 711 l 83 711 q 71 708 75 711 q 65 697 67 706 l 60 674 q 74 657 56 657 l 199 657 l 129 264 q 118 161 118 201 q 166 35 118 71 q 322 0 214 0 m 111 -342 l 129 -342 q 143 -339 139 -342 q 151 -326 147 -336 l 253 -128 q 253 -114 257 -119 q 239 -108 250 -108 l 213 -108 q 198 -111 203 -108 q 192 -124 193 -114 l 100 -326 q 111 -342 96 -342 "},"u":{"ha":747,"x_min":64,"x_max":669,"o":"m 271 -19 q 504 24 401 -19 q 544 53 533 38 q 563 100 556 68 l 667 694 q 653 711 669 711 l 625 711 q 607 697 608 711 l 506 121 q 495 90 503 101 q 468 71 488 79 q 279 36 390 36 q 162 72 200 36 q 124 179 124 107 q 131 249 124 207 l 208 694 q 196 711 213 711 l 168 711 q 156 708 160 711 q 150 697 151 706 l 71 250 q 64 174 64 204 q 271 -19 64 -19 "},"ú":{"ha":747,"x_min":64,"x_max":669,"o":"m 271 -19 q 504 24 401 -19 q 544 53 533 38 q 563 100 556 68 l 667 694 q 653 711 669 711 l 625 711 q 607 697 608 711 l 506 121 q 495 90 503 101 q 468 71 488 79 q 279 36 390 36 q 162 72 200 36 q 124 179 124 107 q 131 249 124 207 l 208 694 q 196 711 213 711 l 168 711 q 156 708 160 711 q 150 697 151 706 l 71 250 q 64 174 64 204 q 271 -19 64 -19 m 338 858 l 344 847 q 354 842 349 842 q 365 844 361 842 l 596 986 q 602 993 601 988 q 599 1006 603 999 l 588 1021 q 574 1029 582 1029 q 561 1025 568 1029 l 342 878 q 335 867 335 874 q 338 858 335 864 "},"ŭ":{"ha":747,"x_min":64,"x_max":669,"o":"m 271 -19 q 504 24 401 -19 q 544 53 533 38 q 563 100 556 68 l 667 694 q 653 711 669 711 l 625 711 q 607 697 608 711 l 506 121 q 495 90 503 101 q 468 71 488 79 q 279 36 390 36 q 162 72 200 36 q 124 179 124 107 q 131 249 124 207 l 208 694 q 196 711 213 711 l 168 711 q 156 708 160 711 q 150 697 151 706 l 71 250 q 64 174 64 204 q 271 -19 64 -19 m 436 842 q 558 879 508 842 q 646 994 608 917 q 649 1006 650 1003 q 642 1011 649 1010 l 617 1019 q 600 1014 606 1024 q 531 918 568 947 q 439 889 494 889 q 321 1010 325 889 q 311 1021 317 1021 l 306 1019 l 282 1014 q 274 1004 274 1013 l 275 999 q 436 842 283 842 "},"û":{"ha":747,"x_min":64,"x_max":669,"o":"m 271 -19 q 504 24 401 -19 q 544 53 533 38 q 563 100 556 68 l 667 694 q 653 711 669 711 l 625 711 q 607 697 608 711 l 506 121 q 495 90 503 101 q 468 71 488 79 q 279 36 390 36 q 162 72 200 36 q 124 179 124 107 q 131 249 124 207 l 208 694 q 196 711 213 711 l 168 711 q 156 708 160 711 q 150 697 151 706 l 71 250 q 64 174 64 204 q 271 -19 64 -19 m 244 836 l 271 836 q 285 838 279 836 q 299 844 292 839 l 460 978 l 572 847 q 581 838 576 840 q 596 836 585 836 l 622 836 q 633 842 633 836 q 631 849 633 846 l 494 1008 q 484 1019 489 1017 q 469 1021 479 1021 l 457 1021 q 443 1019 447 1021 q 429 1008 439 1017 l 236 850 q 232 841 229 846 q 244 836 235 836 "},"ü":{"ha":747,"x_min":64,"x_max":669,"o":"m 271 -19 q 504 24 401 -19 q 544 53 533 38 q 563 100 556 68 l 667 694 q 653 711 669 711 l 625 711 q 607 697 608 711 l 506 121 q 495 90 503 101 q 468 71 488 79 q 279 36 390 36 q 162 72 200 36 q 124 179 124 107 q 131 249 124 207 l 208 694 q 196 711 213 711 l 168 711 q 156 708 160 711 q 150 697 151 706 l 71 250 q 64 174 64 204 q 271 -19 64 -19 m 319 894 l 326 894 q 353 901 346 894 q 367 928 361 908 l 368 936 q 364 964 371 956 q 338 972 357 972 l 329 972 q 303 965 311 972 q 292 939 296 958 l 290 932 q 288 917 288 921 q 319 894 288 894 m 558 894 l 567 894 q 594 901 586 894 q 606 928 601 908 l 607 936 q 608 949 608 940 q 601 967 608 961 q 576 972 594 972 l 569 972 q 542 965 550 972 q 531 939 535 958 l 529 932 q 528 917 528 926 q 535 899 528 904 q 558 894 542 894 "},"ù":{"ha":747,"x_min":64,"x_max":669,"o":"m 271 -19 q 504 24 401 -19 q 544 53 533 38 q 563 100 556 68 l 667 694 q 653 711 669 711 l 625 711 q 607 697 608 711 l 506 121 q 495 90 503 101 q 468 71 488 79 q 279 36 390 36 q 162 72 200 36 q 124 179 124 107 q 131 249 124 207 l 208 694 q 196 711 213 711 l 168 711 q 156 708 160 711 q 150 697 151 706 l 71 250 q 64 174 64 204 q 271 -19 64 -19 m 300 988 l 479 847 q 493 843 488 843 q 503 847 499 843 l 513 856 q 510 878 524 867 l 344 1024 q 328 1032 333 1032 q 315 1026 321 1032 l 297 1010 q 292 999 292 1004 q 300 988 292 992 "},"ű":{"ha":747,"x_min":64,"x_max":697,"o":"m 271 -19 q 504 24 401 -19 q 544 53 533 38 q 563 100 556 68 l 667 694 q 653 711 669 711 l 625 711 q 607 697 608 711 l 506 121 q 495 90 503 101 q 468 71 488 79 q 279 36 390 36 q 162 72 200 36 q 124 179 124 107 q 131 249 124 207 l 208 694 q 196 711 213 711 l 168 711 q 156 708 160 711 q 150 697 151 706 l 71 250 q 64 174 64 204 q 271 -19 64 -19 m 275 836 l 288 832 q 308 838 296 826 l 474 993 q 481 1003 481 997 q 469 1013 481 1008 l 449 1019 q 435 1020 440 1022 q 424 1011 431 1018 l 271 854 q 275 836 261 842 m 492 836 l 503 832 q 513 831 508 829 q 525 838 518 833 l 690 993 q 696 1004 697 999 q 686 1013 694 1010 l 664 1019 q 652 1020 657 1022 q 640 1011 647 1018 l 488 854 q 492 836 478 842 "},"ū":{"ha":747,"x_min":64,"x_max":669,"o":"m 271 -19 q 504 24 401 -19 q 544 53 533 38 q 563 100 556 68 l 667 694 q 653 711 669 711 l 625 711 q 607 697 608 711 l 506 121 q 495 90 503 101 q 468 71 488 79 q 279 36 390 36 q 162 72 200 36 q 124 179 124 107 q 131 249 124 207 l 208 694 q 196 711 213 711 l 168 711 q 156 708 160 711 q 150 697 151 706 l 71 250 q 64 174 64 204 q 271 -19 64 -19 m 292 900 l 600 900 q 617 915 613 900 l 619 929 q 617 942 621 939 q 606 946 614 946 l 301 946 q 287 943 292 946 q 281 932 282 940 l 278 918 q 292 900 275 900 "},"ų":{"ha":747,"x_min":64,"x_max":669,"o":"m 381 -343 q 497 -297 446 -343 q 503 -282 503 -292 l 494 -261 q 486 -256 493 -251 q 401 -296 443 -296 q 357 -251 357 -296 q 406 -123 357 -201 q 536 39 454 -44 q 561 100 554 57 l 667 694 q 653 711 669 711 l 625 711 q 607 697 608 711 l 506 121 q 494 92 501 103 q 468 71 488 81 q 279 36 390 36 q 124 178 124 36 q 131 249 124 215 l 208 694 q 196 711 211 711 l 167 711 q 154 708 158 711 q 149 696 150 706 l 71 250 q 64 172 64 204 q 115 31 64 81 q 269 -19 165 -19 q 464 13 379 -19 q 343 -140 383 -69 q 303 -265 303 -211 q 325 -325 303 -307 q 381 -343 347 -343 "},"ů":{"ha":747,"x_min":64,"x_max":669,"o":"m 271 -19 q 504 24 401 -19 q 544 53 533 38 q 563 100 556 68 l 667 694 q 653 711 669 711 l 625 711 q 607 697 608 711 l 506 121 q 495 90 503 101 q 468 71 488 79 q 279 36 390 36 q 162 72 200 36 q 124 179 124 107 q 131 249 124 207 l 208 694 q 196 711 213 711 l 168 711 q 156 708 160 711 q 150 697 151 706 l 71 250 q 64 174 64 204 q 271 -19 64 -19 m 433 799 q 534 842 494 799 q 574 951 574 885 q 545 1028 574 1000 q 468 1057 517 1057 q 364 1015 406 1057 q 322 906 322 972 q 352 828 322 857 q 433 799 382 799 m 436 833 q 379 853 400 833 q 358 908 358 874 q 390 990 358 957 q 467 1022 421 1022 q 521 1003 501 1022 q 540 949 540 983 q 539 931 540 938 q 503 860 532 886 q 436 833 475 833 "},"ũ":{"ha":747,"x_min":64,"x_max":669,"o":"m 271 -19 q 504 24 401 -19 q 544 53 533 38 q 563 100 556 68 l 667 694 q 653 711 669 711 l 625 711 q 607 697 608 711 l 506 121 q 495 90 503 101 q 468 71 488 79 q 279 36 390 36 q 162 72 200 36 q 124 179 124 107 q 131 249 124 207 l 208 694 q 196 711 213 711 l 168 711 q 156 708 160 711 q 150 697 151 706 l 71 250 q 64 174 64 204 q 271 -19 64 -19 m 257 857 l 276 857 q 286 868 283 857 q 315 934 299 911 q 365 957 332 957 q 401 947 386 957 q 438 913 415 936 q 481 872 460 886 q 535 857 503 857 q 613 890 582 857 q 647 982 643 924 q 647 997 649 993 q 639 1000 644 1000 l 618 1000 q 607 990 608 1000 q 585 926 607 951 q 529 900 563 900 q 494 911 510 900 q 461 943 479 922 q 415 985 436 971 q 360 1000 393 1000 q 285 968 311 1000 q 246 876 258 936 q 257 857 244 857 "},"v":{"ha":679,"x_min":82,"x_max":672,"o":"m 240 -6 l 268 -6 q 292 10 282 -6 l 669 690 q 672 703 672 696 q 660 711 672 711 l 631 711 q 615 709 619 711 q 607 697 611 707 l 321 175 q 268 64 290 118 l 263 64 q 246 174 260 106 l 143 693 q 138 708 140 704 q 122 711 135 711 l 96 711 q 82 701 82 711 q 83 692 82 696 l 221 13 q 240 -6 222 -6 "},"w":{"ha":1001,"x_min":92,"x_max":985,"o":"m 188 -7 l 215 -7 q 228 -4 225 -7 q 236 8 232 -1 l 474 510 q 521 617 510 589 l 522 617 q 532 513 528 551 l 593 11 q 613 -7 593 -7 l 638 -7 q 652 -4 647 -7 q 660 8 657 -1 l 982 690 l 985 701 q 971 711 985 711 l 940 711 q 927 709 931 711 q 919 697 924 707 l 694 211 q 639 69 676 169 l 636 69 q 624 213 632 144 l 565 674 q 560 687 564 683 q 547 690 557 690 l 521 690 q 507 688 511 690 q 499 675 503 685 l 275 208 l 261 176 q 218 69 236 119 l 215 69 l 213 111 q 207 203 210 172 l 154 693 q 151 707 154 703 q 138 711 149 711 l 107 711 q 94 709 97 711 q 92 701 92 707 l 92 694 l 169 11 q 176 -3 172 1 q 188 -7 179 -7 "},"ẃ":{"ha":1001,"x_min":92,"x_max":985,"o":"m 188 -7 l 215 -7 q 228 -4 225 -7 q 236 8 232 -1 l 474 510 q 521 617 510 589 l 522 617 q 532 513 528 551 l 593 11 q 613 -7 593 -7 l 638 -7 q 652 -4 647 -7 q 660 8 657 -1 l 982 690 l 985 701 q 971 711 985 711 l 940 711 q 927 709 931 711 q 919 697 924 707 l 694 211 q 639 69 676 169 l 636 69 q 624 213 632 144 l 565 674 q 560 687 564 683 q 547 690 557 690 l 521 690 q 507 688 511 690 q 499 675 503 685 l 275 208 l 261 176 q 218 69 236 119 l 215 69 l 213 111 q 207 203 210 172 l 154 693 q 151 707 154 703 q 138 711 149 711 l 107 711 q 94 709 97 711 q 92 701 92 707 l 92 694 l 169 11 q 176 -3 172 1 q 188 -7 179 -7 m 467 858 l 474 847 q 483 842 478 842 q 494 844 490 842 l 725 986 q 731 993 731 988 q 728 1006 732 999 l 717 1021 q 703 1029 711 1029 q 690 1025 697 1029 l 471 878 q 464 867 464 874 q 467 858 464 864 "},"ŵ":{"ha":1001,"x_min":92,"x_max":985,"o":"m 188 -7 l 215 -7 q 228 -4 225 -7 q 236 8 232 -1 l 474 510 q 521 617 510 589 l 522 617 q 532 513 528 551 l 593 11 q 613 -7 593 -7 l 638 -7 q 652 -4 647 -7 q 660 8 657 -1 l 982 690 l 985 701 q 971 711 985 711 l 940 711 q 927 709 931 711 q 919 697 924 707 l 694 211 q 639 69 676 169 l 636 69 q 624 213 632 144 l 565 674 q 560 687 564 683 q 547 690 557 690 l 521 690 q 507 688 511 690 q 499 675 503 685 l 275 208 l 261 176 q 218 69 236 119 l 215 69 l 213 111 q 207 203 210 172 l 154 693 q 151 707 154 703 q 138 711 149 711 l 107 711 q 94 709 97 711 q 92 701 92 707 l 92 694 l 169 11 q 176 -3 172 1 q 188 -7 179 -7 m 374 836 l 400 836 q 415 838 408 836 q 428 844 421 839 l 589 978 l 701 847 q 710 838 706 840 q 725 836 714 836 l 751 836 q 763 842 763 836 q 760 849 763 846 l 624 1008 q 613 1019 618 1017 q 599 1021 608 1021 l 586 1021 q 572 1019 576 1021 q 558 1008 568 1017 l 365 850 q 361 841 358 846 q 374 836 364 836 "},"ẅ":{"ha":1001,"x_min":92,"x_max":985,"o":"m 188 -7 l 215 -7 q 228 -4 225 -7 q 236 8 232 -1 l 474 510 q 521 617 510 589 l 522 617 q 532 513 528 551 l 593 11 q 613 -7 593 -7 l 638 -7 q 652 -4 647 -7 q 660 8 657 -1 l 982 690 l 985 701 q 971 711 985 711 l 940 711 q 927 709 931 711 q 919 697 924 707 l 694 211 q 639 69 676 169 l 636 69 q 624 213 632 144 l 565 674 q 560 687 564 683 q 547 690 557 690 l 521 690 q 507 688 511 690 q 499 675 503 685 l 275 208 l 261 176 q 218 69 236 119 l 215 69 l 213 111 q 207 203 210 172 l 154 693 q 151 707 154 703 q 138 711 149 711 l 107 711 q 94 709 97 711 q 92 701 92 707 l 92 694 l 169 11 q 176 -3 172 1 q 188 -7 179 -7 m 449 894 l 456 894 q 483 901 475 894 q 496 928 490 908 l 497 936 q 493 964 500 956 q 467 972 486 972 l 458 972 q 433 965 440 972 q 421 939 425 958 l 419 932 q 417 917 417 921 q 449 894 417 894 m 688 894 l 696 894 q 723 901 715 894 q 735 928 731 908 l 736 936 q 738 949 738 940 q 731 967 738 961 q 706 972 724 972 l 699 972 q 672 965 679 972 q 660 939 664 958 l 658 932 q 657 917 657 926 q 664 899 657 904 q 688 894 671 894 "},"ẁ":{"ha":1001,"x_min":92,"x_max":985,"o":"m 188 -7 l 215 -7 q 228 -4 225 -7 q 236 8 232 -1 l 474 510 q 521 617 510 589 l 522 617 q 532 513 528 551 l 593 11 q 613 -7 593 -7 l 638 -7 q 652 -4 647 -7 q 660 8 657 -1 l 982 690 l 985 701 q 971 711 985 711 l 940 711 q 927 709 931 711 q 919 697 924 707 l 694 211 q 639 69 676 169 l 636 69 q 624 213 632 144 l 565 674 q 560 687 564 683 q 547 690 557 690 l 521 690 q 507 688 511 690 q 499 675 503 685 l 275 208 l 261 176 q 218 69 236 119 l 215 69 l 213 111 q 207 203 210 172 l 154 693 q 151 707 154 703 q 138 711 149 711 l 107 711 q 94 709 97 711 q 92 701 92 707 l 92 694 l 169 11 q 176 -3 172 1 q 188 -7 179 -7 m 429 988 l 608 847 q 622 843 617 843 q 632 847 628 843 l 642 856 q 639 878 653 867 l 474 1024 q 457 1032 463 1032 q 444 1026 450 1032 l 426 1010 q 421 999 421 1004 q 429 988 421 992 "},"x":{"ha":650,"x_min":-42,"x_max":631,"o":"m -26 0 l 4 0 q 21 2 15 0 q 32 13 26 4 l 299 324 l 453 15 q 461 3 457 6 q 476 0 465 0 l 510 0 q 521 6 521 0 l 518 17 l 344 367 l 625 693 q 628 706 631 701 q 617 711 626 711 l 583 711 q 568 710 571 711 q 558 700 565 708 l 308 408 l 160 697 q 153 708 158 706 q 136 711 147 711 l 108 711 q 93 704 93 711 q 96 696 93 701 l 264 365 l -36 18 q -42 8 -42 13 q -26 0 -42 0 "},"y":{"ha":751,"x_min":3,"x_max":668,"o":"m 224 -351 q 533 -53 481 -351 l 667 694 q 665 708 668 704 q 653 711 663 711 l 626 711 q 607 697 608 711 l 500 92 q 281 44 392 44 q 163 80 201 44 q 125 188 125 115 q 132 260 125 226 l 208 694 q 196 711 211 711 l 168 711 q 155 708 160 711 q 149 697 150 706 l 72 260 q 65 183 65 214 q 116 40 65 90 q 269 -10 167 -10 q 388 3 339 -10 q 493 38 436 15 l 475 -54 q 224 -296 431 -296 q 111 -262 149 -296 q 54 -162 74 -228 q 44 -154 50 -154 q 36 -157 42 -154 l 11 -169 q 3 -181 3 -174 l 6 -192 q 78 -310 26 -268 q 224 -351 131 -351 "},"ý":{"ha":751,"x_min":3,"x_max":668,"o":"m 224 -351 q 533 -53 481 -351 l 667 694 q 665 708 668 704 q 653 711 663 711 l 626 711 q 607 697 608 711 l 500 92 q 281 44 392 44 q 163 80 201 44 q 125 188 125 115 q 132 260 125 226 l 208 694 q 196 711 211 711 l 168 711 q 155 708 160 711 q 149 697 150 706 l 72 260 q 65 183 65 214 q 116 40 65 90 q 269 -10 167 -10 q 388 3 339 -10 q 493 38 436 15 l 475 -54 q 224 -296 431 -296 q 111 -262 149 -296 q 54 -162 74 -228 q 44 -154 50 -154 q 36 -157 42 -154 l 11 -169 q 3 -181 3 -174 l 6 -192 q 78 -310 26 -268 q 224 -351 131 -351 m 336 858 l 343 847 q 353 842 347 842 q 364 844 360 842 l 594 986 q 601 993 600 988 q 597 1006 601 999 l 586 1021 q 572 1029 581 1029 q 560 1025 567 1029 l 340 878 q 333 867 333 874 q 336 858 333 864 "},"ŷ":{"ha":751,"x_min":3,"x_max":668,"o":"m 224 -351 q 533 -53 481 -351 l 667 694 q 665 708 668 704 q 653 711 663 711 l 626 711 q 607 697 608 711 l 500 92 q 281 44 392 44 q 163 80 201 44 q 125 188 125 115 q 132 260 125 226 l 208 694 q 196 711 211 711 l 168 711 q 155 708 160 711 q 149 697 150 706 l 72 260 q 65 183 65 214 q 116 40 65 90 q 269 -10 167 -10 q 388 3 339 -10 q 493 38 436 15 l 475 -54 q 224 -296 431 -296 q 111 -262 149 -296 q 54 -162 74 -228 q 44 -154 50 -154 q 36 -157 42 -154 l 11 -169 q 3 -181 3 -174 l 6 -192 q 78 -310 26 -268 q 224 -351 131 -351 m 243 836 l 269 836 q 284 838 278 836 q 297 844 290 839 l 458 978 l 571 847 q 579 838 575 840 q 594 836 583 836 l 621 836 q 632 842 632 836 q 629 849 632 846 l 493 1008 q 483 1019 488 1017 q 468 1021 478 1021 l 456 1021 q 442 1019 446 1021 q 428 1008 438 1017 l 235 850 q 231 841 228 846 q 243 836 233 836 "},"ÿ":{"ha":751,"x_min":3,"x_max":668,"o":"m 224 -351 q 533 -53 481 -351 l 667 694 q 665 708 668 704 q 653 711 663 711 l 626 711 q 607 697 608 711 l 500 92 q 281 44 392 44 q 163 80 201 44 q 125 188 125 115 q 132 260 125 226 l 208 694 q 196 711 211 711 l 168 711 q 155 708 160 711 q 149 697 150 706 l 72 260 q 65 183 65 214 q 116 40 65 90 q 269 -10 167 -10 q 388 3 339 -10 q 493 38 436 15 l 475 -54 q 224 -296 431 -296 q 111 -262 149 -296 q 54 -162 74 -228 q 44 -154 50 -154 q 36 -157 42 -154 l 11 -169 q 3 -181 3 -174 l 6 -192 q 78 -310 26 -268 q 224 -351 131 -351 m 318 894 l 325 894 q 352 901 344 894 q 365 928 360 908 l 367 936 q 363 964 369 956 q 336 972 356 972 l 328 972 q 302 965 310 972 q 290 939 294 958 l 289 932 q 286 917 286 921 q 318 894 286 894 m 557 894 l 565 894 q 592 901 585 894 q 604 928 600 908 l 606 936 q 607 949 607 940 q 600 967 607 961 q 575 972 593 972 l 568 972 q 541 965 549 972 q 529 939 533 958 l 528 932 q 526 917 526 926 q 533 899 526 904 q 557 894 540 894 "},"ỳ":{"ha":751,"x_min":3,"x_max":668,"o":"m 224 -351 q 533 -53 481 -351 l 667 694 q 665 708 668 704 q 653 711 663 711 l 626 711 q 607 697 608 711 l 500 92 q 281 44 392 44 q 163 80 201 44 q 125 188 125 115 q 132 260 125 226 l 208 694 q 196 711 211 711 l 168 711 q 155 708 160 711 q 149 697 150 706 l 72 260 q 65 183 65 214 q 116 40 65 90 q 269 -10 167 -10 q 388 3 339 -10 q 493 38 436 15 l 475 -54 q 224 -296 431 -296 q 111 -262 149 -296 q 54 -162 74 -228 q 44 -154 50 -154 q 36 -157 42 -154 l 11 -169 q 3 -181 3 -174 l 6 -192 q 78 -310 26 -268 q 224 -351 131 -351 m 299 988 l 478 847 q 492 843 486 843 q 501 847 497 843 l 511 856 q 508 878 522 867 l 343 1024 q 326 1032 332 1032 q 314 1026 319 1032 l 296 1010 q 290 999 290 1004 q 299 988 290 992 "},"z":{"ha":608,"x_min":-21,"x_max":574,"o":"m -7 0 l 443 0 q 458 14 457 0 l 463 36 q 450 54 467 54 l 58 54 l 557 651 q 567 672 565 661 l 571 694 q 557 711 574 711 l 125 711 q 113 708 117 711 q 107 697 108 706 l 103 675 q 114 657 99 657 l 490 657 l -7 58 q -13 49 -11 53 q -15 40 -15 46 l -19 18 q -18 4 -21 8 q -7 0 -15 0 "},"ź":{"ha":608,"x_min":-21,"x_max":574,"o":"m -7 0 l 443 0 q 458 14 457 0 l 463 36 q 450 54 467 54 l 58 54 l 557 651 q 567 672 565 661 l 571 694 q 557 711 574 711 l 125 711 q 113 708 117 711 q 107 697 108 706 l 103 675 q 114 657 99 657 l 490 657 l -7 58 q -13 49 -11 53 q -15 40 -15 46 l -19 18 q -18 4 -21 8 q -7 0 -15 0 m 271 858 l 278 847 q 288 842 282 842 q 299 844 294 842 l 529 986 q 535 993 535 988 q 532 1006 536 999 l 521 1021 q 507 1029 515 1029 q 494 1025 501 1029 l 275 878 q 268 867 268 874 q 271 858 268 864 "},"ž":{"ha":608,"x_min":-21,"x_max":588,"o":"m -7 0 l 443 0 q 458 14 457 0 l 463 36 q 450 54 467 54 l 58 54 l 557 651 q 567 672 565 661 l 571 694 q 557 711 574 711 l 125 711 q 113 708 117 711 q 107 697 108 706 l 103 675 q 114 657 99 657 l 490 657 l -7 58 q -13 49 -11 53 q -15 40 -15 46 l -19 18 q -18 4 -21 8 q -7 0 -15 0 m 351 835 l 360 835 q 376 837 371 835 q 393 850 381 839 l 583 1006 q 586 1015 588 1010 q 575 1019 585 1019 l 547 1019 q 533 1018 539 1019 q 522 1011 528 1017 l 361 876 l 249 1010 q 240 1018 243 1017 q 225 1019 236 1019 l 199 1019 q 186 1014 186 1019 q 190 1007 186 1011 l 324 850 q 336 838 331 840 q 351 835 342 835 "},"ż":{"ha":608,"x_min":-21,"x_max":574,"o":"m -7 0 l 443 0 q 458 14 457 0 l 463 36 q 450 54 467 54 l 58 54 l 557 651 q 567 672 565 661 l 571 694 q 557 711 574 711 l 125 711 q 113 708 117 711 q 107 697 108 706 l 103 675 q 114 657 99 657 l 490 657 l -7 58 q -13 49 -11 53 q -15 40 -15 46 l -19 18 q -18 4 -21 8 q -7 0 -15 0 m 368 897 l 389 897 q 414 904 407 897 q 425 932 421 911 l 426 942 q 428 957 428 947 q 400 981 428 981 l 379 981 q 356 974 363 981 q 344 946 349 967 l 342 935 q 340 919 340 929 q 347 902 340 907 q 368 897 353 897 "},"ﬁ":{"ha":715,"x_min":60,"x_max":697,"o":"m 93 0 l 121 0 q 134 3 129 0 q 140 14 139 6 l 253 657 l 575 657 l 463 18 q 474 0 458 0 l 501 0 q 515 3 511 0 q 521 14 519 6 l 640 694 q 629 711 644 711 l 263 711 l 271 757 q 313 889 286 843 q 386 954 340 935 q 510 974 432 974 l 676 974 q 688 976 685 974 q 693 988 692 978 l 696 1010 q 694 1024 697 1019 q 682 1028 692 1028 l 514 1028 q 360 1002 419 1028 q 265 919 300 976 q 211 760 229 861 l 203 711 l 86 711 q 72 708 76 711 q 67 697 68 706 l 61 674 q 76 657 60 657 l 193 657 l 81 18 q 81 4 78 8 q 93 0 83 0 "},"ﬂ":{"ha":738,"x_min":60,"x_max":704,"o":"m 93 0 l 121 0 q 134 3 131 0 q 140 14 138 7 l 253 657 l 433 657 q 450 671 449 657 l 454 694 q 442 711 458 711 l 263 711 l 271 760 q 313 891 286 846 q 388 954 340 936 q 519 972 436 972 l 636 972 l 468 18 q 481 0 464 0 l 510 0 q 528 14 524 0 l 703 1010 q 701 1024 704 1019 q 689 1028 699 1028 l 524 1028 q 363 1003 425 1028 q 265 919 301 978 q 211 760 229 861 l 203 711 l 86 711 q 72 708 76 711 q 67 697 68 706 l 61 674 q 63 660 60 664 q 75 657 67 657 l 193 657 l 81 18 q 93 0 76 0 "},"ª":{"ha":513,"x_min":118,"x_max":456,"o":"m 254 493 q 369 514 324 493 q 405 540 394 526 q 421 585 415 554 l 435 663 q 450 754 444 718 q 456 815 456 790 q 424 901 456 871 q 329 931 392 931 q 175 853 235 931 q 170 843 169 847 q 176 833 171 839 l 189 825 q 204 825 197 819 q 258 873 231 858 q 322 888 286 888 q 408 807 408 888 q 397 731 406 767 q 290 739 351 739 q 118 597 118 739 q 152 522 118 550 q 254 493 186 493 m 256 533 q 189 552 211 533 q 167 601 167 571 q 289 700 167 700 q 390 692 353 700 l 374 594 q 362 564 369 574 q 339 547 354 554 q 256 533 304 533 "},"º":{"ha":518,"x_min":125,"x_max":469,"o":"m 261 494 q 386 537 339 494 q 447 657 433 579 l 465 765 q 469 807 469 789 q 435 898 469 865 q 332 931 400 931 q 210 888 257 931 q 149 768 163 844 l 129 660 q 125 618 125 638 q 160 526 125 558 q 261 494 194 494 m 265 540 q 198 562 221 540 q 175 625 175 583 q 178 658 175 646 l 197 767 q 241 853 207 822 q 328 885 275 885 q 419 799 419 885 q 417 767 419 789 l 399 658 q 353 572 388 603 q 265 540 319 540 "},"А":{"ha":867,"x_min":-50,"x_max":743,"o":"m -36 0 l -6 0 q 13 3 7 0 q 22 14 18 6 l 190 322 l 617 322 l 674 18 q 681 4 676 8 q 699 0 686 0 l 731 0 q 743 8 743 0 q 742 17 743 14 l 554 975 q 548 989 551 985 q 536 993 544 993 l 503 993 q 489 990 493 993 q 479 978 485 988 l -46 19 q -48 6 -50 11 q -36 0 -46 0 m 606 378 l 219 378 l 467 833 q 508 929 489 876 l 513 929 q 519 838 513 889 l 606 378 "},"Б":{"ha":856,"x_min":50,"x_max":806,"o":"m 65 0 l 414 0 q 594 44 518 0 q 711 165 671 88 q 751 343 751 242 q 690 499 751 449 q 500 550 628 550 l 210 550 l 276 926 l 782 926 q 793 929 789 926 q 799 942 797 932 l 803 968 q 802 982 806 978 q 789 986 799 986 l 240 986 q 226 983 231 986 q 219 971 221 981 l 51 18 q 53 4 50 8 q 65 0 56 0 m 415 60 l 124 60 l 200 494 l 488 494 q 639 454 590 494 q 688 329 688 414 q 657 194 688 256 q 565 97 626 133 q 415 60 503 60 "},"В":{"ha":876,"x_min":50,"x_max":803,"o":"m 67 0 l 425 0 q 598 40 524 0 q 712 153 672 81 q 751 322 751 226 q 716 442 751 396 q 621 507 681 489 l 622 508 q 758 616 713 543 q 803 789 803 689 q 744 936 803 886 q 569 986 686 986 l 238 986 q 226 983 229 986 q 219 971 222 979 l 51 19 q 53 4 50 8 q 67 0 56 0 m 510 531 l 207 531 l 276 926 l 561 926 q 739 779 739 926 q 677 600 739 669 q 510 531 615 531 m 422 60 l 124 60 l 197 475 l 518 475 q 644 436 600 475 q 689 322 689 397 q 656 186 689 246 q 563 93 624 126 q 422 60 503 60 "},"Г":{"ha":694,"x_min":50,"x_max":735,"o":"m 65 0 l 97 0 q 110 3 106 0 q 115 15 114 6 l 276 926 l 711 926 q 724 929 719 926 q 729 942 728 932 l 733 967 q 732 982 735 978 q 719 986 729 986 l 238 986 q 226 983 229 986 q 219 971 222 979 l 51 19 q 53 4 50 8 q 65 0 56 0 "},"Д":{"ha":953,"x_min":-83,"x_max":883,"o":"m -68 -212 l -37 -212 q -24 -209 -29 -212 q -18 -196 -19 -206 l 15 0 l 750 0 l 717 -194 q 717 -208 714 -204 q 729 -212 719 -212 l 761 -212 q 779 -196 778 -212 l 821 40 q 819 56 824 51 q 806 60 815 60 l 721 60 l 881 967 q 880 982 883 978 q 867 986 876 986 l 354 986 q 342 982 346 986 q 335 969 338 978 l 286 690 q 201 330 246 461 q 118 144 157 199 q 33 60 79 90 l -21 60 q -33 57 -29 60 q -39 44 -37 54 l -82 -193 q -81 -208 -83 -204 q -68 -212 -78 -212 m 657 60 l 114 60 q 194 156 157 96 q 270 344 231 217 q 347 686 310 472 l 390 926 l 808 926 l 657 60 "},"Е":{"ha":779,"x_min":50,"x_max":769,"o":"m 65 0 l 600 0 q 612 3 608 0 q 618 15 615 7 l 622 42 q 621 56 624 51 q 607 60 618 60 l 124 60 l 196 469 l 610 469 q 622 473 618 469 q 628 486 625 476 l 632 513 q 618 531 636 531 l 207 531 l 276 926 l 746 926 q 758 929 754 926 q 764 942 763 932 l 768 967 q 767 982 769 978 q 754 986 764 986 l 240 986 q 226 983 231 986 q 219 969 221 979 l 51 18 q 53 4 50 8 q 65 0 56 0 "},"Ё":{"ha":779,"x_min":50,"x_max":769,"o":"m 65 0 l 600 0 q 612 3 608 0 q 618 15 615 7 l 622 42 q 621 56 624 51 q 607 60 618 60 l 124 60 l 196 469 l 610 469 q 622 473 618 469 q 628 486 625 476 l 632 513 q 618 531 636 531 l 207 531 l 276 926 l 746 926 q 758 929 754 926 q 764 942 763 932 l 768 967 q 767 982 769 978 q 754 986 764 986 l 240 986 q 226 983 231 986 q 219 969 221 979 l 51 18 q 53 4 50 8 q 65 0 56 0 m 397 1113 l 406 1113 q 431 1118 424 1113 q 442 1142 439 1124 l 443 1151 q 440 1177 446 1169 q 415 1185 433 1185 l 407 1185 q 380 1178 388 1185 q 371 1154 372 1172 l 368 1144 q 372 1119 365 1126 q 397 1113 379 1113 m 642 1113 l 649 1113 q 674 1118 667 1113 q 685 1142 682 1124 l 686 1151 q 683 1177 689 1169 q 658 1185 676 1185 l 651 1185 q 624 1178 632 1185 q 614 1154 617 1172 l 613 1144 q 611 1133 611 1140 q 618 1117 611 1122 q 642 1113 625 1113 "},"Ж":{"ha":1236,"x_min":-21,"x_max":1267,"o":"m -8 0 l 25 0 q 43 2 38 0 q 54 14 49 4 l 263 338 q 358 440 308 408 q 485 471 408 471 l 582 471 l 503 19 q 515 0 500 0 l 549 0 q 561 3 557 0 q 567 15 565 6 l 647 471 l 771 471 q 859 458 826 471 q 910 417 892 444 q 943 340 928 390 l 1040 17 q 1047 3 1043 6 q 1064 0 1050 0 l 1096 0 q 1108 8 1108 0 q 1107 17 1108 14 l 1003 363 q 959 456 985 421 q 889 507 933 492 l 1263 967 q 1267 978 1267 974 q 1254 986 1267 986 l 1217 986 q 1200 983 1206 986 q 1188 972 1194 981 l 831 526 q 772 529 813 529 l 657 529 l 735 968 q 733 982 736 978 q 721 986 731 986 l 689 986 q 676 983 681 986 q 671 971 672 981 l 593 529 l 496 529 q 436 526 454 529 l 238 969 q 229 983 233 979 q 214 986 225 986 l 175 986 q 163 979 163 986 q 165 969 163 975 l 375 508 q 285 458 324 493 q 208 365 247 424 l -17 19 q -21 8 -21 14 q -8 0 -21 0 "},"З":{"ha":839,"x_min":33,"x_max":769,"o":"m 351 -19 q 619 72 524 -19 q 715 325 715 164 q 685 441 715 392 q 597 507 654 490 q 724 616 679 540 q 769 792 769 692 q 699 949 769 893 q 501 1006 629 1006 q 271 949 354 1006 q 135 768 188 892 l 132 757 q 143 743 132 747 l 167 735 l 178 732 q 189 740 185 732 q 306 898 238 850 q 497 946 375 946 q 651 903 597 946 q 706 781 706 860 q 679 659 706 715 q 606 569 653 603 q 497 535 558 535 l 271 535 q 257 531 261 535 q 251 518 253 528 l 247 494 q 250 481 247 485 q 263 476 253 476 l 494 476 q 613 433 572 476 q 653 317 653 390 q 575 115 653 189 q 356 40 497 40 q 165 92 226 40 q 93 247 103 143 q 79 263 90 263 l 74 261 l 46 251 q 36 246 39 249 q 33 238 33 243 l 33 232 q 123 44 49 107 q 351 -19 197 -19 "},"И":{"ha":947,"x_min":53,"x_max":894,"o":"m 68 0 l 104 0 q 114 1 111 0 q 122 10 117 3 l 646 657 q 822 894 711 740 l 826 894 q 771 632 794 765 l 663 18 q 664 4 661 8 q 675 0 667 0 l 708 0 q 720 3 717 0 q 726 17 724 7 l 893 968 q 876 986 894 986 l 843 986 q 824 978 832 986 l 317 347 q 171 151 275 294 l 126 92 l 124 92 q 174 336 144 175 l 181 374 l 283 967 q 283 982 286 978 q 271 986 281 986 l 238 986 q 226 983 229 986 q 219 971 222 979 l 54 18 q 56 4 53 8 q 68 0 58 0 "},"Й":{"ha":904,"x_min":53,"x_max":894,"o":"m 569 1097 q 792 1246 724 1097 q 793 1258 794 1254 q 786 1263 792 1261 l 760 1271 q 749 1272 753 1274 q 743 1265 746 1271 q 674 1172 714 1201 q 572 1143 633 1143 q 485 1171 514 1143 q 447 1261 457 1199 q 436 1272 446 1272 l 432 1272 l 407 1265 q 399 1257 399 1264 q 400 1250 399 1253 q 451 1134 411 1171 q 569 1097 492 1097 m 68 0 l 104 0 q 114 1 111 0 q 122 10 117 3 l 646 657 q 822 894 711 740 l 826 894 q 771 632 794 765 l 663 18 q 664 4 661 8 q 675 0 667 0 l 708 0 q 720 3 717 0 q 726 17 724 7 l 893 968 q 876 986 894 986 l 843 986 q 824 978 832 986 l 317 347 q 171 151 275 294 l 126 92 l 124 92 q 174 336 144 175 l 181 374 l 283 967 q 283 982 286 978 q 271 986 281 986 l 238 986 q 226 983 229 986 q 219 971 222 979 l 54 18 q 56 4 53 8 q 68 0 58 0 "},"К":{"ha":821,"x_min":50,"x_max":847,"o":"m 67 0 l 99 0 q 115 15 113 0 l 196 471 l 371 471 q 477 442 444 471 q 529 340 510 413 l 618 17 q 624 3 621 7 q 640 0 628 0 l 675 0 q 688 8 688 0 q 686 17 688 14 l 588 363 q 540 466 568 429 q 460 515 513 503 l 843 967 q 846 981 847 975 q 833 986 844 986 l 799 986 q 779 984 785 986 q 767 972 774 982 l 399 529 l 367 529 l 206 529 l 283 968 q 269 986 288 986 l 239 986 q 226 983 231 986 q 219 971 221 979 l 51 19 q 53 4 50 8 q 67 0 57 0 "},"Л":{"ha":883,"x_min":-56,"x_max":833,"o":"m -19 -18 q 110 69 61 19 q 207 251 160 119 q 300 640 254 382 l 350 926 l 760 926 l 600 19 q 601 4 599 8 q 613 0 604 0 l 644 0 q 658 3 654 0 q 664 15 663 6 l 832 967 q 831 982 833 978 q 818 986 828 986 l 315 986 q 301 983 306 986 q 296 971 297 981 l 238 644 q 154 286 194 406 q 72 122 114 167 q -46 40 29 78 q -56 28 -56 35 l -53 17 l -42 -8 q -29 -21 -37 -21 q -19 -18 -28 -21 "},"М":{"ha":1093,"x_min":50,"x_max":1042,"o":"m 65 0 l 94 0 q 107 3 103 0 q 113 15 111 6 l 225 653 q 258 886 247 771 l 263 886 q 321 696 286 793 l 474 253 q 494 236 479 236 l 515 236 q 536 250 528 236 l 842 688 q 969 885 883 747 l 972 885 q 924 657 943 771 l 811 18 q 813 3 810 7 q 826 0 817 0 l 853 0 q 866 3 863 0 q 872 17 869 7 l 1040 967 q 1039 982 1042 978 q 1026 986 1036 986 l 996 986 q 981 983 986 986 q 968 971 975 981 l 513 308 l 289 969 q 281 983 285 979 q 268 986 278 986 l 240 986 q 226 983 231 986 q 219 971 221 981 l 51 18 q 53 4 50 8 q 65 0 56 0 "},"Н":{"ha":931,"x_min":50,"x_max":881,"o":"m 67 0 l 99 0 q 110 3 107 0 q 115 15 114 7 l 196 469 l 728 469 l 647 18 q 649 4 646 8 q 663 0 651 0 l 693 0 q 705 4 701 0 q 711 18 708 8 l 879 968 q 878 982 881 978 q 865 986 875 986 l 835 986 q 821 983 825 986 q 815 969 817 979 l 738 531 l 207 531 l 283 968 q 283 982 286 978 q 269 986 279 986 l 239 986 q 226 983 231 986 q 219 969 221 979 l 51 19 q 53 3 50 7 q 67 0 57 0 "},"О":{"ha":904,"x_min":68,"x_max":835,"o":"m 368 -19 q 638 70 535 -19 q 768 322 740 160 l 828 661 q 835 744 835 697 q 759 938 835 869 q 538 1006 683 1006 q 268 916 371 1006 q 136 664 165 826 l 76 325 q 68 242 68 282 q 144 49 68 117 q 368 -19 221 -19 m 371 40 q 194 95 254 40 q 133 253 133 150 q 140 324 133 282 l 200 660 q 310 870 224 794 q 535 946 397 946 q 711 892 651 946 q 771 738 771 839 q 764 664 771 708 l 706 326 q 594 115 681 189 q 371 40 508 40 "},"П":{"ha":922,"x_min":50,"x_max":872,"o":"m 65 0 l 97 0 q 110 3 106 0 q 115 17 114 7 l 276 926 l 797 926 l 638 19 q 639 4 636 8 q 651 0 642 0 l 682 0 q 696 3 692 0 q 701 17 700 7 l 869 967 q 869 982 872 978 q 857 986 867 986 l 240 986 q 226 983 231 986 q 219 971 221 981 l 51 19 q 53 4 50 8 q 65 0 56 0 "},"Р":{"ha":846,"x_min":50,"x_max":817,"o":"m 67 0 l 97 0 q 110 3 107 0 q 115 17 114 7 l 181 383 l 478 383 q 704 467 614 383 q 813 693 794 550 q 817 753 817 725 q 753 925 817 864 q 571 986 689 986 l 240 986 q 226 983 231 986 q 219 971 222 979 l 51 18 q 53 4 50 8 q 67 0 56 0 m 475 444 l 192 444 l 276 926 l 563 926 q 703 879 654 926 q 753 744 753 832 q 749 690 753 719 q 658 509 731 574 q 475 444 585 444 "},"С":{"ha":868,"x_min":69,"x_max":836,"o":"m 365 -19 q 599 41 511 -19 q 744 225 686 101 q 749 238 749 233 q 738 250 749 246 l 711 260 q 699 263 703 263 q 688 253 692 263 q 565 94 638 146 q 371 42 493 42 q 194 97 254 42 q 133 254 133 153 q 139 321 133 289 l 200 664 q 308 872 224 797 q 532 946 393 946 q 707 897 651 946 q 774 746 763 849 q 786 732 778 732 q 794 733 792 732 l 824 740 q 836 753 836 744 l 835 760 q 751 945 821 885 q 536 1006 682 1006 q 267 916 369 1006 q 136 665 165 826 l 76 325 q 69 243 69 289 q 145 49 69 118 q 365 -19 221 -19 "},"Т":{"ha":735,"x_min":118,"x_max":781,"o":"m 267 0 l 297 0 q 310 3 306 0 q 315 15 314 6 l 476 926 l 756 926 q 769 929 765 926 q 775 942 772 932 l 779 967 q 778 982 781 978 q 765 986 775 986 l 144 986 q 131 983 135 986 q 124 971 126 981 l 119 946 q 122 931 118 935 q 135 926 125 926 l 411 926 l 251 18 q 253 4 250 8 q 267 0 256 0 "},"У":{"ha":796,"x_min":117,"x_max":847,"o":"m 167 0 l 200 0 q 218 3 213 0 q 229 14 224 6 l 844 967 q 847 978 847 971 q 836 986 847 986 l 804 986 q 788 984 793 986 q 776 972 782 982 l 372 347 l 186 969 q 178 983 183 979 q 158 986 172 986 l 128 986 q 117 976 117 986 l 117 969 l 328 279 l 157 18 q 154 6 151 11 q 167 0 157 0 "},"Ф":{"ha":1129,"x_min":82,"x_max":1063,"o":"m 461 -28 l 492 -28 q 506 -25 501 -28 q 511 -12 510 -22 l 531 90 l 619 90 q 899 183 790 90 q 1036 442 1008 276 l 1054 549 q 1063 640 1063 597 q 988 835 1063 767 q 761 903 914 903 l 674 903 l 690 1001 q 690 1017 693 1013 q 678 1021 688 1021 l 649 1021 q 634 1018 639 1021 q 628 1006 629 1015 l 610 903 l 521 903 q 242 811 347 903 q 108 551 138 719 l 90 444 q 82 357 82 399 q 158 160 82 229 q 379 90 233 90 l 467 90 l 449 -10 q 449 -24 446 -19 q 461 -28 451 -28 m 475 149 l 392 149 q 209 205 271 149 q 147 365 147 261 q 154 439 147 394 l 172 550 q 283 767 196 689 q 511 844 371 844 l 600 844 l 475 149 m 631 149 l 540 149 l 664 844 l 753 844 q 997 632 997 844 q 990 554 997 600 l 971 443 q 858 226 947 304 q 631 149 769 149 "},"Х":{"ha":825,"x_min":-44,"x_max":860,"o":"m -33 0 l 8 0 q 36 15 28 0 l 406 451 l 622 17 q 630 3 625 7 q 646 0 635 0 l 683 0 q 697 10 697 0 q 694 19 697 11 l 456 503 l 856 968 q 857 981 860 975 q 846 986 854 986 l 804 986 q 788 984 793 986 q 776 972 782 982 l 421 551 l 213 969 q 206 983 210 981 q 189 986 201 986 l 149 986 q 138 978 138 986 q 139 971 138 974 l 371 501 l -39 22 q -44 7 -44 15 q -33 0 -44 0 "},"Ч":{"ha":853,"x_min":110,"x_max":801,"o":"m 582 0 l 613 0 q 626 3 622 0 q 632 18 629 7 l 800 968 q 799 982 801 978 q 786 986 796 986 l 754 986 q 742 983 746 986 q 736 969 738 979 l 649 472 q 390 438 518 438 q 226 483 276 438 q 175 624 175 529 q 183 715 175 665 l 228 967 q 226 982 229 978 q 215 986 224 986 l 183 986 q 170 983 175 986 q 164 971 165 979 l 121 719 q 110 611 110 657 q 175 436 110 496 q 382 376 240 376 q 522 386 464 376 q 638 410 581 396 l 568 19 q 582 0 564 0 "},"Ц":{"ha":944,"x_min":50,"x_max":875,"o":"m 724 -212 l 751 -212 q 765 -209 761 -212 q 771 -196 769 -206 l 813 40 q 797 60 817 60 l 713 60 l 874 967 q 872 982 875 978 q 860 986 869 986 l 829 986 q 816 983 821 986 q 808 971 811 981 l 649 60 l 124 60 l 283 967 q 283 982 286 978 q 269 986 279 986 l 240 986 q 226 983 231 986 q 219 971 221 981 l 51 19 q 53 4 50 8 q 65 0 56 0 l 742 0 l 708 -194 q 710 -209 707 -206 q 724 -212 714 -212 "},"Ш":{"ha":1243,"x_min":50,"x_max":1193,"o":"m 65 0 l 1006 0 q 1017 3 1014 0 q 1024 17 1021 7 l 1192 967 q 1190 982 1193 978 q 1178 986 1188 986 l 1149 986 q 1134 983 1139 986 q 1128 971 1129 981 l 968 60 l 578 60 l 738 967 q 738 982 740 978 q 725 986 735 986 l 694 986 q 681 983 685 986 q 674 971 676 981 l 514 60 l 124 60 l 283 967 q 269 986 288 986 l 239 986 q 226 983 231 986 q 219 971 221 979 l 51 19 q 53 4 50 8 q 65 0 56 0 "},"Щ":{"ha":1272,"x_min":51,"x_max":1199,"o":"m 1047 -212 l 1076 -212 q 1090 -209 1086 -212 q 1096 -196 1093 -206 l 1138 40 q 1122 60 1142 60 l 1038 60 l 1197 967 q 1196 982 1199 978 q 1183 986 1193 986 l 1153 986 q 1140 983 1144 986 q 1133 971 1135 979 l 974 60 l 582 60 l 742 967 q 740 982 743 978 q 729 986 738 986 l 697 986 q 684 983 689 986 q 678 971 679 979 l 518 60 l 125 60 l 286 967 q 285 982 288 978 q 272 986 282 986 l 240 986 q 227 983 232 986 q 221 971 222 979 l 53 18 q 55 4 51 8 q 68 0 58 0 l 1067 0 l 1032 -194 q 1047 -212 1028 -212 "},"Ь":{"ha":846,"x_min":50,"x_max":751,"o":"m 65 0 l 408 0 q 590 49 513 0 q 710 181 668 97 q 751 369 751 265 q 683 545 751 488 q 474 603 614 603 l 219 603 l 283 967 q 283 982 285 978 q 271 986 281 986 l 240 986 q 226 983 231 986 q 219 969 221 979 l 51 19 q 53 5 50 10 q 65 0 56 0 m 407 60 l 124 60 l 208 542 l 463 542 q 632 498 576 542 q 688 363 688 454 q 653 210 688 279 q 556 100 619 140 q 407 60 492 60 "},"Ъ":{"ha":988,"x_min":115,"x_max":879,"o":"m 192 0 l 535 0 q 718 49 640 0 q 838 181 796 97 q 879 369 879 265 q 810 545 879 488 q 601 603 742 603 l 347 603 l 411 967 q 397 986 415 986 l 143 986 q 129 983 133 986 q 124 971 125 981 l 119 944 q 133 926 115 926 l 339 926 l 179 19 q 181 5 178 10 q 192 0 183 0 m 535 60 l 251 60 l 336 542 l 590 542 q 760 498 704 542 q 815 363 815 454 q 781 210 815 279 q 683 100 747 140 q 535 60 619 60 "},"Ы":{"ha":1156,"x_min":50,"x_max":1104,"o":"m 65 0 l 408 0 q 590 49 513 0 q 710 181 668 97 q 751 369 751 265 q 683 545 751 488 q 474 603 614 603 l 219 603 l 283 967 q 283 982 285 978 q 271 986 281 986 l 239 986 q 226 983 231 986 q 219 969 221 979 l 51 19 q 53 5 50 10 q 65 0 56 0 m 885 0 l 918 0 q 935 15 931 0 l 1103 968 q 1101 982 1104 978 q 1089 986 1099 986 l 1058 986 q 1045 983 1050 986 q 1039 971 1040 981 l 871 18 q 872 3 869 7 q 885 0 875 0 m 407 60 l 124 60 l 208 542 l 463 542 q 632 498 576 542 q 688 363 688 454 q 653 210 688 279 q 556 100 619 140 q 407 60 492 60 "},"Э":{"ha":874,"x_min":38,"x_max":806,"o":"m 336 -19 q 606 70 503 -19 q 738 321 708 160 l 797 661 q 806 744 806 706 q 728 937 806 868 q 508 1006 651 1006 q 275 944 363 1006 q 129 761 188 883 q 126 749 126 756 q 138 736 126 739 l 161 726 l 174 724 q 185 733 181 724 q 306 892 233 840 q 503 944 379 944 q 680 890 618 944 q 742 733 742 835 q 735 665 742 704 l 711 529 l 297 529 q 285 526 288 529 q 279 513 282 524 l 275 488 q 289 469 271 469 l 700 469 l 674 322 q 565 115 650 189 q 340 40 479 40 q 167 89 221 40 q 100 242 113 138 q 89 256 99 256 q 81 254 83 256 l 50 246 q 38 232 38 242 l 39 226 q 119 41 50 101 q 336 -19 189 -19 "},"Ю":{"ha":1254,"x_min":50,"x_max":1176,"o":"m 708 -19 q 978 69 875 -19 q 1110 322 1082 158 l 1169 660 q 1176 742 1176 708 q 1101 937 1176 868 q 878 1006 1025 1006 q 609 917 713 1006 q 476 664 506 828 l 453 531 l 207 531 l 283 967 q 271 986 288 986 l 239 986 q 226 983 231 986 q 219 971 221 979 l 51 19 q 53 4 50 8 q 65 0 56 0 l 96 0 q 110 3 106 0 q 115 15 114 6 l 196 469 l 443 469 l 418 325 q 410 242 410 282 q 486 49 410 117 q 708 -19 563 -19 m 711 40 q 535 95 596 40 q 475 250 475 150 q 482 322 475 281 l 540 660 q 651 870 565 794 q 876 946 738 946 q 1052 891 992 946 q 1113 735 1113 836 q 1106 664 1113 706 l 1046 326 q 935 115 1022 189 q 711 40 849 40 "},"Я":{"ha":875,"x_min":-14,"x_max":826,"o":"m 1 0 l 32 0 q 51 2 46 0 q 63 14 57 4 l 238 300 q 330 402 282 371 q 450 433 378 433 l 664 433 l 592 19 q 593 5 590 10 q 606 0 596 0 l 638 0 q 650 3 647 0 q 656 17 653 7 l 824 967 q 810 986 826 986 l 469 986 q 215 906 299 986 q 131 674 131 825 q 180 524 131 586 q 311 449 229 461 q 241 403 271 433 q 183 328 211 374 l -8 19 q -11 6 -14 11 q 1 0 -8 0 m 675 493 l 369 493 q 244 548 292 493 q 196 682 196 603 q 263 863 196 799 q 468 926 329 926 l 751 926 l 675 493 "},"а":{"ha":694,"x_min":26,"x_max":597,"o":"m 254 -19 q 457 17 372 -19 q 502 46 489 31 q 521 97 515 61 l 560 318 q 576 411 564 342 q 590 517 588 481 q 545 674 597 617 q 379 732 493 732 q 225 699 288 732 q 113 596 163 665 q 108 583 108 588 q 117 571 108 575 l 139 561 q 149 560 146 558 q 158 568 153 561 q 249 649 199 621 q 369 678 299 678 q 496 635 457 678 q 532 518 535 593 q 518 417 532 493 l 513 385 q 431 396 485 390 q 319 401 376 401 q 26 157 26 401 q 78 26 26 71 q 254 -19 131 -19 m 258 31 q 126 64 165 31 q 86 164 86 97 q 144 305 86 257 q 313 353 203 353 q 504 335 410 353 l 464 111 q 452 77 460 86 q 422 60 444 68 q 258 31 343 31 "},"б":{"ha":754,"x_min":64,"x_max":722,"o":"m 300 -19 q 514 49 433 -19 q 617 244 594 118 l 650 435 q 657 506 657 476 q 603 652 657 601 q 440 703 550 703 q 183 578 300 703 l 190 611 q 257 819 217 744 q 364 928 297 894 q 539 961 431 961 l 588 961 q 711 983 667 961 q 722 997 722 989 l 722 1004 l 717 1028 q 706 1040 715 1040 q 699 1039 701 1040 q 589 1018 664 1018 l 543 1018 q 333 977 414 1018 q 207 847 253 936 q 133 603 161 757 l 69 247 q 64 183 64 218 q 124 33 64 86 q 300 -19 183 -19 m 304 35 q 170 76 215 35 q 125 193 125 117 q 129 244 125 218 l 174 499 q 272 602 211 556 q 421 649 333 649 q 553 610 511 649 q 596 497 596 572 q 590 436 596 465 l 558 249 q 476 91 540 147 q 304 35 411 35 "},"в":{"ha":726,"x_min":50,"x_max":635,"o":"m 292 -19 q 518 46 438 -19 q 599 231 599 111 q 497 369 599 339 q 597 443 558 389 q 635 571 635 497 q 578 691 635 650 q 408 732 521 732 q 304 722 356 732 q 214 694 253 713 q 164 660 179 679 q 142 606 149 642 l 53 103 q 50 76 50 83 q 60 43 50 56 q 93 18 69 31 q 181 -10 128 0 q 292 -19 235 -19 m 414 390 l 163 390 l 197 590 q 212 628 201 614 q 244 653 222 643 q 403 683 308 683 q 579 563 579 683 q 533 438 579 485 q 414 390 488 390 m 296 26 q 211 34 254 26 q 140 56 168 42 q 117 74 124 64 q 110 97 110 83 q 113 121 110 104 l 154 347 l 411 347 q 508 317 472 347 q 543 228 543 286 q 540 196 543 218 q 464 70 528 114 q 296 26 400 26 "}}}
